<?xml version="1.0" encoding="UTF-8" standalone="no"?>
<!DOCTYPE svg PUBLIC "-//W3C//DTD SVG 1.1//EN"
 "http://www.w3.org/Graphics/SVG/1.1/DTD/svg11.dtd">
<!-- Generated by graphviz version 2.40.1 (20161225.0304)
 -->
<!-- Title: dependency&#45;cruiser output Pages: 1 -->
<svg width="372pt" height="147pt"
 viewBox="0.00 0.00 372.02 146.50" xmlns="http://www.w3.org/2000/svg" xmlns:xlink="http://www.w3.org/1999/xlink">
<g id="graph0" class="graph" transform="scale(1 1) rotate(0) translate(4 142.5)">
<title>dependency&#45;cruiser output</title>
<polygon fill="#ffffff" stroke="transparent" points="-4,4 -4,-142.5 368.0186,-142.5 368.0186,4 -4,4"/>
<g id="clust1" class="cluster">
<title>cluster_/bin</title>
<path fill="none" stroke="#000000" stroke-width="2" d="M20,-54.5C20,-54.5 66,-54.5 66,-54.5 72,-54.5 78,-60.5 78,-66.5 78,-66.5 78,-93.5 78,-93.5 78,-99.5 72,-105.5 66,-105.5 66,-105.5 20,-105.5 20,-105.5 14,-105.5 8,-99.5 8,-93.5 8,-93.5 8,-66.5 8,-66.5 8,-60.5 14,-54.5 20,-54.5"/>
<text text-anchor="middle" x="43" y="-94.3" font-family="Helvetica,sans-Serif" font-weight="bold" font-size="9.00" fill="#000000">bin</text>
</g>
<g id="clust2" class="cluster">
<title>cluster_/node_modules</title>
<path fill="none" stroke="#000000" stroke-width="2" d="M282.0186,-46.5C282.0186,-46.5 344.0186,-46.5 344.0186,-46.5 350.0186,-46.5 356.0186,-52.5 356.0186,-58.5 356.0186,-58.5 356.0186,-118.5 356.0186,-118.5 356.0186,-124.5 350.0186,-130.5 344.0186,-130.5 344.0186,-130.5 282.0186,-130.5 282.0186,-130.5 276.0186,-130.5 270.0186,-124.5 270.0186,-118.5 270.0186,-118.5 270.0186,-58.5 270.0186,-58.5 270.0186,-52.5 276.0186,-46.5 282.0186,-46.5"/>
<text text-anchor="middle" x="313.0186" y="-119.3" font-family="Helvetica,sans-Serif" font-weight="bold" font-size="9.00" fill="#000000">node_modules</text>
</g>
<g id="clust3" class="cluster">
<title>cluster_/node_modules/lodash.get</title>
<path fill="none" stroke="#000000" stroke-width="2" d="M290.0186,-54.5C290.0186,-54.5 336.0186,-54.5 336.0186,-54.5 342.0186,-54.5 348.0186,-60.5 348.0186,-66.5 348.0186,-66.5 348.0186,-93.5 348.0186,-93.5 348.0186,-99.5 342.0186,-105.5 336.0186,-105.5 336.0186,-105.5 290.0186,-105.5 290.0186,-105.5 284.0186,-105.5 278.0186,-99.5 278.0186,-93.5 278.0186,-93.5 278.0186,-66.5 278.0186,-66.5 278.0186,-60.5 284.0186,-54.5 290.0186,-54.5"/>
<text text-anchor="middle" x="313.0186" y="-94.3" font-family="Helvetica,sans-Serif" font-weight="bold" font-size="9.00" fill="#000000">lodash.get</text>
</g>
<g id="clust4" class="cluster">
<title>cluster_/src</title>
<path fill="none" stroke="#000000" stroke-width="2" d="M98,-25.5C98,-25.5 250.0186,-25.5 250.0186,-25.5 256.0186,-25.5 262.0186,-31.5 262.0186,-37.5 262.0186,-37.5 262.0186,-93.5 262.0186,-93.5 262.0186,-99.5 256.0186,-105.5 250.0186,-105.5 250.0186,-105.5 98,-105.5 98,-105.5 92,-105.5 86,-99.5 86,-93.5 86,-93.5 86,-37.5 86,-37.5 86,-31.5 92,-25.5 98,-25.5"/>
<text text-anchor="middle" x="174.0093" y="-94.3" font-family="Helvetica,sans-Serif" font-weight="bold" font-size="9.00" fill="#000000">src</text>
</g>
<!-- bin/upem.js -->
<g id="node1" class="node">
<title>bin/upem.js</title>
<g id="a_node1"><a xlink:href="https:/github.com/sverweij/upem/blob/develop/bin/upem.js" xlink:title="upem.js">
<path fill="#ffffcc" stroke="#000000" d="M64.3333,-80C64.3333,-80 21.6667,-80 21.6667,-80 18.8333,-80 16,-77.1667 16,-74.3333 16,-74.3333 16,-68.6667 16,-68.6667 16,-65.8333 18.8333,-63 21.6667,-63 21.6667,-63 64.3333,-63 64.3333,-63 67.1667,-63 70,-65.8333 70,-68.6667 70,-68.6667 70,-74.3333 70,-74.3333 70,-77.1667 67.1667,-80 64.3333,-80"/>
<text text-anchor="middle" x="43" y="-68.8" font-family="Helvetica,sans-Serif" font-size="9.00" fill="#000000">upem.js</text>
</a>
</g>
</g>
<!-- path -->
<g id="node4" class="node">
<title>path</title>
<path fill="#ffffcc" stroke="#c0c0c0" d="M161.8426,-131C161.8426,-131 119.1759,-131 119.1759,-131 116.3426,-131 113.5093,-128.1667 113.5093,-125.3333 113.5093,-125.3333 113.5093,-119.6667 113.5093,-119.6667 113.5093,-116.8333 116.3426,-114 119.1759,-114 119.1759,-114 161.8426,-114 161.8426,-114 164.6759,-114 167.5093,-116.8333 167.5093,-119.6667 167.5093,-119.6667 167.5093,-125.3333 167.5093,-125.3333 167.5093,-128.1667 164.6759,-131 161.8426,-131"/>
<text text-anchor="middle" x="140.5093" y="-119.8" font-family="Helvetica,sans-Serif" font-size="9.00" fill="#c0c0c0">path</text>
</g>
<!-- bin/upem.js&#45;&gt;path -->
<g id="edge3" class="edge">
<title>bin/upem.js&#45;&gt;path</title>
<path fill="none" stroke="#c0c0c0" d="M50.7119,-80.1315C58.7257,-88.5793 72.0301,-101.2099 86,-108.5 91.3827,-111.3089 97.3639,-113.5791 103.336,-115.4065"/>
<polygon fill="#c0c0c0" stroke="#c0c0c0" points="102.7047,-118.8611 113.2707,-118.081 104.5244,-112.1017 102.7047,-118.8611"/>
</g>
<!-- src/index.js -->
<g id="node6" class="node">
<title>src/index.js</title>
<g id="a_node6"><a xlink:href="https:/github.com/sverweij/upem/blob/develop/src/index.js" xlink:title="index.js">
<path fill="#ffffcc" stroke="#000000" d="M161.8426,-80C161.8426,-80 119.1759,-80 119.1759,-80 116.3426,-80 113.5093,-77.1667 113.5093,-74.3333 113.5093,-74.3333 113.5093,-68.6667 113.5093,-68.6667 113.5093,-65.8333 116.3426,-63 119.1759,-63 119.1759,-63 161.8426,-63 161.8426,-63 164.6759,-63 167.5093,-65.8333 167.5093,-68.6667 167.5093,-68.6667 167.5093,-74.3333 167.5093,-74.3333 167.5093,-77.1667 164.6759,-80 161.8426,-80"/>
<text text-anchor="middle" x="140.5093" y="-68.8" font-family="Helvetica,sans-Serif" font-size="9.00" fill="#000000">index.js</text>
</a>
</g>
</g>
<!-- bin/upem.js&#45;&gt;src/index.js -->
<g id="edge1" class="edge">
<title>bin/upem.js&#45;&gt;src/index.js</title>
<path fill="none" stroke="#000000" d="M70.1618,-71.5C80.4108,-71.5 92.2552,-71.5 103.2682,-71.5"/>
<polygon fill="#000000" stroke="#000000" points="103.4932,-75.0001 113.4932,-71.5 103.4931,-68.0001 103.4932,-75.0001"/>
</g>
<!-- src/readFromStream.js -->
<g id="node7" class="node">
<title>src/readFromStream.js</title>
<g id="a_node7"><a xlink:href="https:/github.com/sverweij/upem/blob/develop/src/readFromStream.js" xlink:title="readFromStream.js">
<path fill="#ffffcc" stroke="#000000" d="M181.3612,-51C181.3612,-51 99.6574,-51 99.6574,-51 96.8241,-51 93.9907,-48.1667 93.9907,-45.3333 93.9907,-45.3333 93.9907,-39.6667 93.9907,-39.6667 93.9907,-36.8333 96.8241,-34 99.6574,-34 99.6574,-34 181.3612,-34 181.3612,-34 184.1945,-34 187.0278,-36.8333 187.0278,-39.6667 187.0278,-39.6667 187.0278,-45.3333 187.0278,-45.3333 187.0278,-48.1667 184.1945,-51 181.3612,-51"/>
<text text-anchor="middle" x="140.5093" y="-39.8" font-family="Helvetica,sans-Serif" font-size="9.00" fill="#000000">readFromStream.js</text>
</a>
</g>
</g>
<!-- bin/upem.js&#45;&gt;src/readFromStream.js -->
<g id="edge2" class="edge">
<title>bin/upem.js&#45;&gt;src/readFromStream.js</title>
<path fill="none" stroke="#000000" d="M68.861,-62.866C74.4952,-61.045 80.4356,-59.1705 86,-57.5 90.0717,-56.2777 94.3259,-55.0395 98.5844,-53.826"/>
<polygon fill="#000000" stroke="#000000" points="99.7628,-57.1306 108.4446,-51.0579 97.8708,-50.3911 99.7628,-57.1306"/>
</g>
<!-- fs -->
<g id="node2" class="node">
<title>fs</title>
<path fill="#ffffcc" stroke="#c0c0c0" d="M248.3519,-17C248.3519,-17 205.6852,-17 205.6852,-17 202.8519,-17 200.0186,-14.1667 200.0186,-11.3333 200.0186,-11.3333 200.0186,-5.6667 200.0186,-5.6667 200.0186,-2.8333 202.8519,0 205.6852,0 205.6852,0 248.3519,0 248.3519,0 251.1852,0 254.0186,-2.8333 254.0186,-5.6667 254.0186,-5.6667 254.0186,-11.3333 254.0186,-11.3333 254.0186,-14.1667 251.1852,-17 248.3519,-17"/>
<text text-anchor="middle" x="227.0186" y="-5.8" font-family="Helvetica,sans-Serif" font-size="9.00" fill="#c0c0c0">fs</text>
</g>
<!-- node_modules/lodash.get/index.js -->
<g id="node3" class="node">
<title>node_modules/lodash.get/index.js</title>
<g id="a_node3"><a xlink:href="https:/github.com/sverweij/upem/blob/develop/node_modules/lodash.get/index.js" xlink:title="index.js">
<polygon fill="#c40b0a" stroke="#000000" points="340.0186,-80 338.6019,-81.8889 328.6852,-81.8889 327.2686,-80 286.0186,-80 286.0186,-63 340.0186,-63 340.0186,-80"/>
<text text-anchor="middle" x="313.0186" y="-68.8" font-family="Helvetica,sans-Serif" font-size="9.00" fill="#ffffff">index.js</text>
</a>
</g>
</g>
<!-- src/core.js -->
<g id="node5" class="node">
<title>src/core.js</title>
<g id="a_node5"><a xlink:href="https:/github.com/sverweij/upem/blob/develop/src/core.js" xlink:title="core.js">
<path fill="#ffffcc" stroke="#000000" d="M248.3519,-80C248.3519,-80 205.6852,-80 205.6852,-80 202.8519,-80 200.0186,-77.1667 200.0186,-74.3333 200.0186,-74.3333 200.0186,-68.6667 200.0186,-68.6667 200.0186,-65.8333 202.8519,-63 205.6852,-63 205.6852,-63 248.3519,-63 248.3519,-63 251.1852,-63 254.0186,-65.8333 254.0186,-68.6667 254.0186,-68.6667 254.0186,-74.3333 254.0186,-74.3333 254.0186,-77.1667 251.1852,-80 248.3519,-80"/>
<text text-anchor="middle" x="227.0186" y="-68.8" font-family="Helvetica,sans-Serif" font-size="9.00" fill="#000000">core.js</text>
</a>
</g>
</g>
<!-- src/core.js&#45;&gt;node_modules/lodash.get/index.js -->
<g id="edge4" class="edge">
<title>src/core.js&#45;&gt;node_modules/lodash.get/index.js</title>
<path fill="none" stroke="#000000" d="M254.2295,-71.5C261.1196,-71.5 268.6378,-71.5 275.9253,-71.5"/>
<polygon fill="#000000" stroke="#000000" points="275.9847,-75.0001 285.9846,-71.5 275.9846,-68.0001 275.9847,-75.0001"/>
</g>
<!-- src/index.js&#45;&gt;fs -->
<g id="edge6" class="edge">
<title>src/index.js&#45;&gt;fs</title>
<path fill="none" stroke="#c0c0c0" d="M167.8039,-67.7443C174.7474,-65.6716 181.7311,-62.4632 187.0186,-57.5 197.2269,-47.9177 191.6381,-38.4384 200.062,-24.9893"/>
<polygon fill="#c0c0c0" stroke="#c0c0c0" points="202.8697,-27.0822 206.3729,-17.0833 197.3989,-22.7152 202.8697,-27.0822"/>
</g>
<!-- src/index.js&#45;&gt;src/core.js -->
<g id="edge5" class="edge">
<title>src/index.js&#45;&gt;src/core.js</title>
<path fill="none" stroke="#000000" d="M167.8814,-71.5C174.8123,-71.5 182.375,-71.5 189.7056,-71.5"/>
<polygon fill="#000000" stroke="#000000" points="189.8246,-75.0001 199.8245,-71.5 189.8245,-68.0001 189.8246,-75.0001"/>
</g>
</g>
</svg>
