<?xml version="1.0" encoding="UTF-8" standalone="no"?>
<!DOCTYPE svg PUBLIC "-//W3C//DTD SVG 1.1//EN"
 "http://www.w3.org/Graphics/SVG/1.1/DTD/svg11.dtd">
<!-- Generated by graphviz version 7.0.0 (20221023.0053)
 -->
<!-- Title: dependency&#45;cruiser output Pages: 1 -->
<svg width="358pt" height="306pt"
 viewBox="0.00 0.00 358.00 306.00" xmlns="http://www.w3.org/2000/svg" xmlns:xlink="http://www.w3.org/1999/xlink">
<g id="graph0" class="graph" transform="scale(1 1) rotate(0) translate(4 302)">
<title>dependency&#45;cruiser output</title>
<polygon fill="white" stroke="none" points="-4,4 -4,-302 354,-302 354,4 -4,4"/>
<g id="clust1" class="cluster">
<title>cluster_node_modules</title>
<path fill="#ffffff" stroke="black" stroke-width="2" d="M128,-82C128,-82 189,-82 189,-82 195,-82 201,-88 201,-94 201,-94 201,-122 201,-122 201,-128 195,-134 189,-134 189,-134 128,-134 128,-134 122,-134 116,-128 116,-122 116,-122 116,-94 116,-94 116,-88 122,-82 128,-82"/>
<text text-anchor="middle" x="158.5" y="-122.8" font-family="Helvetica,sans-Serif" font-weight="bold" font-size="9.00">node_modules</text>
</g>
<g id="clust2" class="cluster">
<title>cluster_src</title>
<path fill="#ffffff" stroke="black" stroke-width="2" d="M20,-160C20,-160 330,-160 330,-160 336,-160 342,-166 342,-172 342,-172 342,-260 342,-260 342,-266 336,-272 330,-272 330,-272 20,-272 20,-272 14,-272 8,-266 8,-260 8,-260 8,-172 8,-172 8,-166 14,-160 20,-160"/>
<text text-anchor="middle" x="175" y="-260.8" font-family="Helvetica,sans-Serif" font-weight="bold" font-size="9.00">src</text>
</g>
<!-- assert -->
<g id="node1" class="node">
<title>assert</title>
<g id="a_node1"><a xlink:title="assert">
<path fill="#ffffcc" stroke="grey" d="M304.5,-298C304.5,-298 262.5,-298 262.5,-298 259.5,-298 256.5,-295 256.5,-292 256.5,-292 256.5,-286 256.5,-286 256.5,-283 259.5,-280 262.5,-280 262.5,-280 304.5,-280 304.5,-280 307.5,-280 310.5,-283 310.5,-286 310.5,-286 310.5,-292 310.5,-292 310.5,-295 307.5,-298 304.5,-298"/>
<text text-anchor="middle" x="283.5" y="-286.8" font-family="Helvetica,sans-Serif" font-size="9.00" fill="grey">assert</text>
</a>
</g>
</g>
<!-- fs -->
<g id="node2" class="node">
<title>fs</title>
<g id="a_node2"><a xlink:title="fs">
<path fill="#ffffcc" stroke="grey" d="M304.5,-152C304.5,-152 262.5,-152 262.5,-152 259.5,-152 256.5,-149 256.5,-146 256.5,-146 256.5,-140 256.5,-140 256.5,-137 259.5,-134 262.5,-134 262.5,-134 304.5,-134 304.5,-134 307.5,-134 310.5,-137 310.5,-140 310.5,-140 310.5,-146 310.5,-146 310.5,-149 307.5,-152 304.5,-152"/>
<text text-anchor="middle" x="283.5" y="-140.8" font-family="Helvetica,sans-Serif" font-size="9.00" fill="grey">fs</text>
</a>
</g>
</g>
<!-- node_modules/libnpmconfig -->
<g id="node3" class="node">
<title>node_modules/libnpmconfig</title>
<g id="a_node3"><a xlink:href="https://github.com/sverweij/upem/blob/main/node_modules/libnpmconfig" xlink:title="libnpmconfig">
<polygon fill="#c40b0a" fill-opacity="0.101961" stroke="black" points="193,-108 126,-108 124,-106 124,-90 191,-90 193,-92 193,-108"/>
<polyline fill="none" stroke="black" points="191,-106 124,-106"/>
<polyline fill="none" stroke="black" points="191,-106 191,-90"/>
<polyline fill="none" stroke="black" points="191,-106 193,-108"/>
<text text-anchor="start" x="132" y="-96.8" font-family="Helvetica,sans-Serif" font-size="9.00" fill="#c40b0a">libnpmconfig</text>
</a>
</g>
</g>
<!-- os -->
<g id="node4" class="node">
<title>os</title>
<g id="a_node4"><a xlink:title="os">
<path fill="#ffffcc" stroke="grey" d="M304.5,-84C304.5,-84 262.5,-84 262.5,-84 259.5,-84 256.5,-81 256.5,-78 256.5,-78 256.5,-72 256.5,-72 256.5,-69 259.5,-66 262.5,-66 262.5,-66 304.5,-66 304.5,-66 307.5,-66 310.5,-69 310.5,-72 310.5,-72 310.5,-78 310.5,-78 310.5,-81 307.5,-84 304.5,-84"/>
<text text-anchor="middle" x="283.5" y="-72.8" font-family="Helvetica,sans-Serif" font-size="9.00" fill="grey">os</text>
</a>
</g>
</g>
<!-- path -->
<g id="node5" class="node">
<title>path</title>
<g id="a_node5"><a xlink:title="path">
<path fill="#ffffcc" stroke="grey" d="M179.5,-74C179.5,-74 137.5,-74 137.5,-74 134.5,-74 131.5,-71 131.5,-68 131.5,-68 131.5,-62 131.5,-62 131.5,-59 134.5,-56 137.5,-56 137.5,-56 179.5,-56 179.5,-56 182.5,-56 185.5,-59 185.5,-62 185.5,-62 185.5,-68 185.5,-68 185.5,-71 182.5,-74 179.5,-74"/>
<text text-anchor="middle" x="158.5" y="-62.8" font-family="Helvetica,sans-Serif" font-size="9.00" fill="grey">path</text>
</a>
</g>
</g>
<!-- src/cli.ts -->
<g id="node6" class="node">
<title>src/cli.ts</title>
<g id="a_node6"><a xlink:href="https://github.com/sverweij/upem/blob/main/src/cli.ts" xlink:title="cli.ts">
<path fill="#ddfeff" stroke="black" d="M71,-216C71,-216 29,-216 29,-216 26,-216 23,-213 23,-210 23,-210 23,-204 23,-204 23,-201 26,-198 29,-198 29,-198 71,-198 71,-198 74,-198 77,-201 77,-204 77,-204 77,-210 77,-210 77,-213 74,-216 71,-216"/>
<text text-anchor="start" x="40.5" y="-204.8" font-family="Helvetica,sans-Serif" font-size="9.00">cli.ts</text>
</a>
</g>
</g>
<!-- src/cli.ts&#45;&gt;node_modules/libnpmconfig -->
<g id="edge2" class="edge">
<title>src/cli.ts&#45;&gt;node_modules/libnpmconfig</title>
<path fill="none" stroke="#000000" stroke-opacity="0.200000" d="M77.12,-207C84.74,-207 91,-207 91,-207 91,-207 91,-99 91,-99 91,-99 116.05,-99 116.05,-99"/>
<polygon fill="#000000" fill-opacity="0.200000" stroke="#000000" stroke-opacity="0.200000" points="116.05,-101.1 122.05,-99 116.05,-96.9 116.05,-101.1"/>
</g>
<!-- src/cli.ts&#45;&gt;path -->
<g id="edge3" class="edge">
<title>src/cli.ts&#45;&gt;path</title>
<path fill="none" stroke="#000000" stroke-dasharray="5,2" stroke-opacity="0.200000" d="M77.21,-202.5C83.3,-202.5 88,-202.5 88,-202.5 88,-202.5 88,-68 88,-68 88,-68 123.53,-68 123.53,-68"/>
<polygon fill="#000000" fill-opacity="0.200000" stroke="#000000" stroke-opacity="0.200000" points="123.53,-70.1 129.53,-68 123.53,-65.9 123.53,-70.1"/>
</g>
<!-- src/main.ts -->
<g id="node7" class="node">
<title>src/main.ts</title>
<g id="a_node7"><a xlink:href="https://github.com/sverweij/upem/blob/main/src/main.ts" xlink:title="main.ts">
<path fill="#ddfeff" stroke="black" d="M179.5,-186C179.5,-186 137.5,-186 137.5,-186 134.5,-186 131.5,-183 131.5,-180 131.5,-180 131.5,-174 131.5,-174 131.5,-171 134.5,-168 137.5,-168 137.5,-168 179.5,-168 179.5,-168 182.5,-168 185.5,-171 185.5,-174 185.5,-174 185.5,-180 185.5,-180 185.5,-183 182.5,-186 179.5,-186"/>
<text text-anchor="start" x="143.5" y="-174.8" font-family="Helvetica,sans-Serif" font-size="9.00">main.ts</text>
</a>
</g>
</g>
<!-- src/cli.ts&#45;&gt;src/main.ts -->
<g id="edge1" class="edge">
<title>src/cli.ts&#45;&gt;src/main.ts</title>
<path fill="none" stroke="#000000" stroke-width="2" stroke-opacity="0.200000" d="M77.37,-211.5C86.31,-211.5 94,-211.5 94,-211.5 94,-211.5 94,-180 94,-180 94,-180 122.12,-180 122.12,-180"/>
<polygon fill="#000000" fill-opacity="0.200000" stroke="#000000" stroke-width="2" stroke-opacity="0.200000" points="122.12,-182.1 128.12,-180 122.12,-177.9 122.12,-182.1"/>
</g>
<!-- src/main.ts&#45;&gt;fs -->
<g id="edge14" class="edge">
<title>src/main.ts&#45;&gt;fs</title>
<path fill="none" stroke="#000000" stroke-dasharray="5,2" stroke-opacity="0.200000" d="M159,-167.53C159,-158.41 159,-146 159,-146 159,-146 248.66,-146 248.66,-146"/>
<polygon fill="#000000" fill-opacity="0.200000" stroke="#000000" stroke-opacity="0.200000" points="248.66,-148.1 254.66,-146 248.66,-143.9 248.66,-148.1"/>
</g>
<!-- src/main.ts&#45;&gt;os -->
<g id="edge15" class="edge">
<title>src/main.ts&#45;&gt;os</title>
<path fill="none" stroke="#000000" stroke-dasharray="5,2" stroke-opacity="0.200000" d="M185.9,-171.6C203.85,-171.6 224,-171.6 224,-171.6 224,-171.6 224,-80.67 224,-80.67 224,-80.67 248.67,-80.67 248.67,-80.67"/>
<polygon fill="#000000" fill-opacity="0.200000" stroke="#000000" stroke-opacity="0.200000" points="248.67,-82.77 254.67,-80.67 248.67,-78.57 248.67,-82.77"/>
</g>
<!-- src/determine&#45;policies.ts -->
<g id="node9" class="node">
<title>src/determine&#45;policies.ts</title>
<g id="a_node9"><a xlink:href="https://github.com/sverweij/upem/blob/main/src/determine-policies.ts" xlink:title="determine&#45;policies.ts">
<path fill="#ddfeff" stroke="black" d="M328,-216C328,-216 239,-216 239,-216 236,-216 233,-213 233,-210 233,-210 233,-204 233,-204 233,-201 236,-198 239,-198 239,-198 328,-198 328,-198 331,-198 334,-201 334,-204 334,-204 334,-210 334,-210 334,-213 331,-216 328,-216"/>
<text text-anchor="start" x="241" y="-204.8" font-family="Helvetica,sans-Serif" font-size="9.00">determine&#45;policies.ts</text>
</a>
</g>
</g>
<!-- src/main.ts&#45;&gt;src/determine&#45;policies.ts -->
<g id="edge12" class="edge">
<title>src/main.ts&#45;&gt;src/determine&#45;policies.ts</title>
<path fill="none" stroke="#000000" stroke-width="2" stroke-opacity="0.200000" d="M185.94,-182.4C206.1,-182.4 230,-182.4 230,-182.4 230,-182.4 230,-202.5 230,-202.5 230,-202.5 230.26,-202.5 230.26,-202.5"/>
<polygon fill="#000000" fill-opacity="0.200000" stroke="#000000" stroke-width="2" stroke-opacity="0.200000" points="223.55,-204.6 229.55,-202.5 223.55,-200.4 223.55,-204.6"/>
</g>
<!-- src/update&#45;manifest.ts -->
<g id="node12" class="node">
<title>src/update&#45;manifest.ts</title>
<g id="a_node12"><a xlink:href="https://github.com/sverweij/upem/blob/main/src/update-manifest.ts" xlink:title="update&#45;manifest.ts">
<path fill="#ddfeff" stroke="black" d="M323.5,-186C323.5,-186 243.5,-186 243.5,-186 240.5,-186 237.5,-183 237.5,-180 237.5,-180 237.5,-174 237.5,-174 237.5,-171 240.5,-168 243.5,-168 243.5,-168 323.5,-168 323.5,-168 326.5,-168 329.5,-171 329.5,-174 329.5,-174 329.5,-180 329.5,-180 329.5,-183 326.5,-186 323.5,-186"/>
<text text-anchor="start" x="245.5" y="-174.8" font-family="Helvetica,sans-Serif" font-size="9.00">update&#45;manifest.ts</text>
</a>
</g>
</g>
<!-- src/main.ts&#45;&gt;src/update&#45;manifest.ts -->
<g id="edge13" class="edge">
<title>src/main.ts&#45;&gt;src/update&#45;manifest.ts</title>
<path fill="none" stroke="#000000" stroke-width="2" stroke-opacity="0.200000" d="M185.93,-175.2C185.93,-175.2 228.43,-175.2 228.43,-175.2"/>
<polygon fill="#000000" fill-opacity="0.200000" stroke="#000000" stroke-width="2" stroke-opacity="0.200000" points="228.43,-177.3 234.43,-175.2 228.43,-173.1 228.43,-177.3"/>
</g>
<!-- src/determine&#45;policies.spec.ts -->
<g id="node8" class="node">
<title>src/determine&#45;policies.spec.ts</title>
<g id="a_node8"><a xlink:href="https://github.com/sverweij/upem/blob/main/src/determine-policies.spec.ts" xlink:title="determine&#45;policies.spec.ts">
<path fill="#ddfeff" stroke="black" d="M214,-246C214,-246 103,-246 103,-246 100,-246 97,-243 97,-240 97,-240 97,-234 97,-234 97,-231 100,-228 103,-228 103,-228 214,-228 214,-228 217,-228 220,-231 220,-234 220,-234 220,-240 220,-240 220,-243 217,-246 214,-246"/>
<text text-anchor="start" x="105" y="-234.8" font-family="Helvetica,sans-Serif" font-size="9.00">determine&#45;policies.spec.ts</text>
</a>
</g>
</g>
<!-- src/determine&#45;policies.spec.ts&#45;&gt;assert -->
<g id="edge5" class="edge">
<title>src/determine&#45;policies.spec.ts&#45;&gt;assert</title>
<path fill="none" stroke="#000000" stroke-dasharray="5,2" stroke-opacity="0.200000" d="M220.15,-240C251.89,-240 284,-240 284,-240 284,-240 284,-272.04 284,-272.04"/>
<polygon fill="#000000" fill-opacity="0.200000" stroke="#000000" stroke-opacity="0.200000" points="281.9,-272.04 284,-278.04 286.1,-272.04 281.9,-272.04"/>
</g>
<!-- src/determine&#45;policies.spec.ts&#45;&gt;src/determine&#45;policies.ts -->
<g id="edge4" class="edge">
<title>src/determine&#45;policies.spec.ts&#45;&gt;src/determine&#45;policies.ts</title>
<path fill="none" stroke="#000000" stroke-width="2" stroke-opacity="0.200000" d="M220.44,-234C234.31,-234 245,-234 245,-234 245,-234 245,-225.47 245,-225.47"/>
<polygon fill="#000000" fill-opacity="0.200000" stroke="#000000" stroke-width="2" stroke-opacity="0.200000" points="247.1,-225.47 245,-219.47 242.9,-225.47 247.1,-225.47"/>
</g>
<!-- src/main.spec.ts -->
<g id="node10" class="node">
<title>src/main.spec.ts</title>
<g id="a_node10"><a xlink:href="https://github.com/sverweij/upem/blob/main/src/main.spec.ts" xlink:title="main.spec.ts">
<path fill="#ddfeff" stroke="black" d="M78,-186C78,-186 22,-186 22,-186 19,-186 16,-183 16,-180 16,-180 16,-174 16,-174 16,-171 19,-168 22,-168 22,-168 78,-168 78,-168 81,-168 84,-171 84,-174 84,-174 84,-180 84,-180 84,-183 81,-186 78,-186"/>
<text text-anchor="start" x="24" y="-174.8" font-family="Helvetica,sans-Serif" font-size="9.00">main.spec.ts</text>
</a>
</g>
</g>
<!-- src/main.spec.ts&#45;&gt;assert -->
<g id="edge7" class="edge">
<title>src/main.spec.ts&#45;&gt;assert</title>
<path fill="none" stroke="#000000" stroke-dasharray="5,2" stroke-opacity="0.200000" d="M81,-186.41C81,-213.88 81,-292 81,-292 81,-292 248.68,-292 248.68,-292"/>
<polygon fill="#000000" fill-opacity="0.200000" stroke="#000000" stroke-opacity="0.200000" points="248.68,-294.1 254.68,-292 248.68,-289.9 248.68,-294.1"/>
</g>
<!-- src/main.spec.ts&#45;&gt;fs -->
<g id="edge8" class="edge">
<title>src/main.spec.ts&#45;&gt;fs</title>
<path fill="none" stroke="#000000" stroke-dasharray="5,2" stroke-opacity="0.200000" d="M71,-167.66C71,-156.7 71,-140 71,-140 71,-140 248.64,-140 248.64,-140"/>
<polygon fill="#000000" fill-opacity="0.200000" stroke="#000000" stroke-opacity="0.200000" points="248.64,-142.1 254.64,-140 248.64,-137.9 248.64,-142.1"/>
</g>
<!-- src/main.spec.ts&#45;&gt;os -->
<g id="edge9" class="edge">
<title>src/main.spec.ts&#45;&gt;os</title>
<path fill="none" stroke="#000000" stroke-dasharray="5,2" stroke-opacity="0.200000" d="M57,-167.8C57,-143.13 57,-77.33 57,-77.33 57,-77.33 248.67,-77.33 248.67,-77.33"/>
<polygon fill="#000000" fill-opacity="0.200000" stroke="#000000" stroke-opacity="0.200000" points="248.67,-79.43 254.67,-77.33 248.67,-75.23 248.67,-79.43"/>
</g>
<!-- src/main.spec.ts&#45;&gt;path -->
<g id="edge10" class="edge">
<title>src/main.spec.ts&#45;&gt;path</title>
<path fill="none" stroke="#000000" stroke-dasharray="5,2" stroke-opacity="0.200000" d="M44,-167.59C44,-140.12 44,-62 44,-62 44,-62 123.56,-62 123.56,-62"/>
<polygon fill="#000000" fill-opacity="0.200000" stroke="#000000" stroke-opacity="0.200000" points="123.56,-64.1 129.56,-62 123.56,-59.9 123.56,-64.1"/>
</g>
<!-- src/main.spec.ts&#45;&gt;src/main.ts -->
<g id="edge6" class="edge">
<title>src/main.spec.ts&#45;&gt;src/main.ts</title>
<path fill="none" stroke="#000000" stroke-width="2" stroke-opacity="0.200000" d="M84.33,-174C84.33,-174 122.23,-174 122.23,-174"/>
<polygon fill="#000000" fill-opacity="0.200000" stroke="#000000" stroke-width="2" stroke-opacity="0.200000" points="122.23,-176.1 128.23,-174 122.23,-171.9 122.23,-176.1"/>
</g>
<!-- url -->
<g id="node11" class="node">
<title>url</title>
<g id="a_node11"><a xlink:title="url">
<path fill="#ffffcc" stroke="grey" d="M179.5,-18C179.5,-18 137.5,-18 137.5,-18 134.5,-18 131.5,-15 131.5,-12 131.5,-12 131.5,-6 131.5,-6 131.5,-3 134.5,0 137.5,0 137.5,0 179.5,0 179.5,0 182.5,0 185.5,-3 185.5,-6 185.5,-6 185.5,-12 185.5,-12 185.5,-15 182.5,-18 179.5,-18"/>
<text text-anchor="middle" x="158.5" y="-6.8" font-family="Helvetica,sans-Serif" font-size="9.00" fill="grey">url</text>
</a>
</g>
</g>
<!-- src/main.spec.ts&#45;&gt;url -->
<g id="edge11" class="edge">
<title>src/main.spec.ts&#45;&gt;url</title>
<path fill="none" stroke="#000000" stroke-dasharray="5,2" stroke-opacity="0.200000" d="M30,-167.97C30,-133.07 30,-9 30,-9 30,-9 123.73,-9 123.73,-9"/>
<polygon fill="#000000" fill-opacity="0.200000" stroke="#000000" stroke-opacity="0.200000" points="123.73,-11.1 129.73,-9 123.73,-6.9 123.73,-11.1"/>
</g>
<!-- src/update&#45;manifest.spec.ts -->
<g id="node13" class="node">
<title>src/update&#45;manifest.spec.ts</title>
<g id="a_node13"><a xlink:href="https://github.com/sverweij/upem/blob/main/src/update-manifest.spec.ts" xlink:title="update&#45;manifest.spec.ts">
<path fill="#ddfeff" stroke="black" d="M209,-216C209,-216 108,-216 108,-216 105,-216 102,-213 102,-210 102,-210 102,-204 102,-204 102,-201 105,-198 108,-198 108,-198 209,-198 209,-198 212,-198 215,-201 215,-204 215,-204 215,-210 215,-210 215,-213 212,-216 209,-216"/>
<text text-anchor="start" x="110" y="-204.8" font-family="Helvetica,sans-Serif" font-size="9.00">update&#45;manifest.spec.ts</text>
</a>
</g>
</g>
<!-- src/update&#45;manifest.spec.ts&#45;&gt;assert -->
<g id="edge18" class="edge">
<title>src/update&#45;manifest.spec.ts&#45;&gt;assert</title>
<path fill="none" stroke="#000000" stroke-dasharray="5,2" stroke-opacity="0.200000" d="M215.38,-211.5C222.31,-211.5 227,-211.5 227,-211.5 227,-211.5 227,-286 227,-286 227,-286 248.73,-286 248.73,-286"/>
<polygon fill="#000000" fill-opacity="0.200000" stroke="#000000" stroke-opacity="0.200000" points="248.73,-288.1 254.73,-286 248.73,-283.9 248.73,-288.1"/>
</g>
<!-- src/update&#45;manifest.spec.ts&#45;&gt;src/determine&#45;policies.ts -->
<g id="edge16" class="edge">
<title>src/update&#45;manifest.spec.ts&#45;&gt;src/determine&#45;policies.ts</title>
<path fill="none" stroke="#000000" stroke-width="2" stroke-opacity="0.200000" d="M215.15,-207C215.15,-207 223.56,-207 223.56,-207"/>
<polygon fill="#000000" fill-opacity="0.200000" stroke="#000000" stroke-width="2" stroke-opacity="0.200000" points="223.56,-209.1 229.56,-207 223.56,-204.9 223.56,-209.1"/>
</g>
<!-- src/update&#45;manifest.spec.ts&#45;&gt;src/update&#45;manifest.ts -->
<g id="edge17" class="edge">
<title>src/update&#45;manifest.spec.ts&#45;&gt;src/update&#45;manifest.ts</title>
<path fill="none" stroke="#000000" stroke-width="2" stroke-opacity="0.200000" d="M204,-197.77C204,-189.54 204,-178.8 204,-178.8 204,-178.8 228.23,-178.8 228.23,-178.8"/>
<polygon fill="#000000" fill-opacity="0.200000" stroke="#000000" stroke-width="2" stroke-opacity="0.200000" points="228.23,-180.9 234.23,-178.8 228.23,-176.7 228.23,-180.9"/>
</g>
</g>
</svg>
