<?xml version="1.0" encoding="UTF-8" standalone="no"?>
<!DOCTYPE svg PUBLIC "-//W3C//DTD SVG 1.1//EN"
 "http://www.w3.org/Graphics/SVG/1.1/DTD/svg11.dtd">
<!-- Generated by graphviz version 14.0.4 (20251115.1723)
 -->
<!-- Title: dependency&#45;cruiser output Pages: 1 -->
<svg width="346pt" height="344pt"
 viewBox="0.00 0.00 346.00 344.00" xmlns="http://www.w3.org/2000/svg" xmlns:xlink="http://www.w3.org/1999/xlink">
<g id="graph0" class="graph" transform="scale(1 1) rotate(0) translate(4 339.88)">
<title>dependency&#45;cruiser output</title>
<polygon fill="white" stroke="none" points="-4,4 -4,-339.88 341.75,-339.88 341.75,4 -4,4"/>
<g id="clust1" class="cluster">
<title>cluster_assert</title>
<path fill="#ffffff" stroke="black" stroke-width="2" d="M248.38,-275.88C248.38,-275.88 294.38,-275.88 294.38,-275.88 300.38,-275.88 306.38,-281.88 306.38,-287.88 306.38,-287.88 306.38,-315.88 306.38,-315.88 306.38,-321.88 300.38,-327.88 294.38,-327.88 294.38,-327.88 248.38,-327.88 248.38,-327.88 242.38,-327.88 236.38,-321.88 236.38,-315.88 236.38,-315.88 236.38,-287.88 236.38,-287.88 236.38,-281.88 242.38,-275.88 248.38,-275.88"/>
<text xml:space="preserve" text-anchor="middle" x="271.38" y="-315.32" font-family="Helvetica,sans-Serif" font-weight="bold" font-size="9.00">assert</text>
</g>
<g id="clust2" class="cluster">
<title>cluster_node_modules</title>
<path fill="#ffffff" stroke="black" stroke-width="2" d="M122.38,-77.88C122.38,-77.88 177.38,-77.88 177.38,-77.88 183.38,-77.88 189.38,-83.88 189.38,-89.88 189.38,-89.88 189.38,-117.88 189.38,-117.88 189.38,-123.88 183.38,-129.88 177.38,-129.88 177.38,-129.88 122.38,-129.88 122.38,-129.88 116.38,-129.88 110.38,-123.88 110.38,-117.88 110.38,-117.88 110.38,-89.88 110.38,-89.88 110.38,-83.88 116.38,-77.88 122.38,-77.88"/>
<text xml:space="preserve" text-anchor="middle" x="149.88" y="-117.33" font-family="Helvetica,sans-Serif" font-weight="bold" font-size="9.00">node_modules</text>
</g>
<g id="clust3" class="cluster">
<title>cluster_src</title>
<path fill="#ffffff" stroke="black" stroke-width="2" d="M20,-155.88C20,-155.88 317.75,-155.88 317.75,-155.88 323.75,-155.88 329.75,-161.88 329.75,-167.88 329.75,-167.88 329.75,-255.88 329.75,-255.88 329.75,-261.88 323.75,-267.88 317.75,-267.88 317.75,-267.88 20,-267.88 20,-267.88 14,-267.88 8,-261.88 8,-255.88 8,-255.88 8,-167.88 8,-167.88 8,-161.88 14,-155.88 20,-155.88"/>
<text xml:space="preserve" text-anchor="middle" x="168.88" y="-255.32" font-family="Helvetica,sans-Serif" font-weight="bold" font-size="9.00">src</text>
</g>
<!-- assert/strict -->
<g id="node1" class="node">
<title>assert/strict</title>
<g id="a_node1"><a xlink:href="https://nodejs.org/api/assert.html" xlink:title="strict">
<path fill="#ffffcc" stroke="grey" d="M292.46,-301.75C292.46,-301.75 250.29,-301.75 250.29,-301.75 247.33,-301.75 244.38,-298.79 244.38,-295.83 244.38,-295.83 244.38,-289.92 244.38,-289.92 244.38,-286.96 247.33,-284 250.29,-284 250.29,-284 292.46,-284 292.46,-284 295.42,-284 298.38,-286.96 298.38,-289.92 298.38,-289.92 298.38,-295.83 298.38,-295.83 298.38,-298.79 295.42,-301.75 292.46,-301.75"/>
<text xml:space="preserve" text-anchor="start" x="262" y="-289.2" font-family="Helvetica,sans-Serif" font-size="9.00" fill="grey">strict</text>
</a>
</g>
</g>
<!-- fs -->
<g id="node2" class="node">
<title>fs</title>
<g id="a_node2"><a xlink:href="https://nodejs.org/api/fs.html" xlink:title="fs">
<path fill="#ffffcc" stroke="grey" d="M292.46,-56.75C292.46,-56.75 250.29,-56.75 250.29,-56.75 247.33,-56.75 244.38,-53.79 244.38,-50.83 244.38,-50.83 244.38,-44.92 244.38,-44.92 244.38,-41.96 247.33,-39 250.29,-39 250.29,-39 292.46,-39 292.46,-39 295.42,-39 298.38,-41.96 298.38,-44.92 298.38,-44.92 298.38,-50.83 298.38,-50.83 298.38,-53.79 295.42,-56.75 292.46,-56.75"/>
<text xml:space="preserve" text-anchor="start" x="268" y="-44.2" font-family="Helvetica,sans-Serif" font-size="9.00" fill="grey">fs</text>
</a>
</g>
</g>
<!-- node:test -->
<g id="node3" class="node">
<title>node:test</title>
<g id="a_node3"><a xlink:href="https://nodejs.org/api/node:test.html" xlink:title="node:test">
<path fill="#ffffcc" stroke="grey" d="M292.46,-147.75C292.46,-147.75 250.29,-147.75 250.29,-147.75 247.33,-147.75 244.38,-144.79 244.38,-141.83 244.38,-141.83 244.38,-135.92 244.38,-135.92 244.38,-132.96 247.33,-130 250.29,-130 250.29,-130 292.46,-130 292.46,-130 295.42,-130 298.38,-132.96 298.38,-135.92 298.38,-135.92 298.38,-141.83 298.38,-141.83 298.38,-144.79 295.42,-147.75 292.46,-147.75"/>
<text xml:space="preserve" text-anchor="start" x="252.62" y="-135.2" font-family="Helvetica,sans-Serif" font-size="9.00" fill="grey">node:test</text>
</a>
</g>
</g>
<!-- node_modules/@npmcli -->
<g id="node4" class="node">
<title>node_modules/@npmcli</title>
<g id="a_node4"><a xlink:href="https://www.npmjs.com/package/" xlink:title="@npmcli">
<polygon fill="#c40b0a" fill-opacity="0.101961" stroke="black" points="176.38,-103.75 124.35,-103.75 122.38,-101.78 122.38,-86 174.4,-86 176.38,-87.97 176.38,-103.75"/>
<polyline fill="none" stroke="black" points="174.4,-101.78 122.38,-101.78"/>
<polyline fill="none" stroke="black" points="174.4,-101.78 174.4,-86"/>
<polyline fill="none" stroke="black" points="174.4,-101.78 176.38,-103.75"/>
<text xml:space="preserve" text-anchor="start" x="131.38" y="-91.2" font-family="Helvetica,sans-Serif" font-size="9.00" fill="#c40b0a">@npmcli</text>
</a>
</g>
</g>
<!-- os -->
<g id="node5" class="node">
<title>os</title>
<g id="a_node5"><a xlink:href="https://nodejs.org/api/os.html" xlink:title="os">
<path fill="#ffffcc" stroke="grey" d="M292.46,-107.75C292.46,-107.75 250.29,-107.75 250.29,-107.75 247.33,-107.75 244.38,-104.79 244.38,-101.83 244.38,-101.83 244.38,-95.92 244.38,-95.92 244.38,-92.96 247.33,-90 250.29,-90 250.29,-90 292.46,-90 292.46,-90 295.42,-90 298.38,-92.96 298.38,-95.92 298.38,-95.92 298.38,-101.83 298.38,-101.83 298.38,-104.79 295.42,-107.75 292.46,-107.75"/>
<text xml:space="preserve" text-anchor="start" x="266.5" y="-95.2" font-family="Helvetica,sans-Serif" font-size="9.00" fill="grey">os</text>
</a>
</g>
</g>
<!-- path -->
<g id="node6" class="node">
<title>path</title>
<g id="a_node6"><a xlink:href="https://nodejs.org/api/path.html" xlink:title="path">
<path fill="#ffffcc" stroke="grey" d="M170.46,-17.75C170.46,-17.75 128.29,-17.75 128.29,-17.75 125.33,-17.75 122.38,-14.79 122.38,-11.83 122.38,-11.83 122.38,-5.92 122.38,-5.92 122.38,-2.96 125.33,0 128.29,0 128.29,0 170.46,0 170.46,0 173.42,0 176.38,-2.96 176.38,-5.92 176.38,-5.92 176.38,-11.83 176.38,-11.83 176.38,-14.79 173.42,-17.75 170.46,-17.75"/>
<text xml:space="preserve" text-anchor="start" x="140.38" y="-5.2" font-family="Helvetica,sans-Serif" font-size="9.00" fill="grey">path</text>
</a>
</g>
</g>
<!-- src/cli.ts -->
<g id="node7" class="node">
<title>src/cli.ts</title>
<g id="a_node7"><a xlink:href="https://github.com/sverweij/upem/blob/main/src/cli.ts" xlink:title="cli.ts">
<path fill="#ddfeff" stroke="black" d="M67.96,-181.75C67.96,-181.75 25.79,-181.75 25.79,-181.75 22.83,-181.75 19.88,-178.79 19.88,-175.83 19.88,-175.83 19.88,-169.92 19.88,-169.92 19.88,-166.96 22.83,-164 25.79,-164 25.79,-164 67.96,-164 67.96,-164 70.92,-164 73.88,-166.96 73.88,-169.92 73.88,-169.92 73.88,-175.83 73.88,-175.83 73.88,-178.79 70.92,-181.75 67.96,-181.75"/>
<text xml:space="preserve" text-anchor="start" x="37.88" y="-169.2" font-family="Helvetica,sans-Serif" font-size="9.00">cli.ts</text>
</a>
</g>
</g>
<!-- src/cli.ts&#45;&gt;node_modules/@npmcli -->
<g id="edge2" class="edge">
<title>src/cli.ts&#45;&gt;node_modules/@npmcli</title>
<path fill="none" stroke="#000000" stroke-opacity="0.200000" d="M55.75,-163.62C55.75,-142.96 55.75,-94.88 55.75,-94.88 55.75,-94.88 114.53,-94.88 114.53,-94.88"/>
<polygon fill="#000000" fill-opacity="0.200000" stroke="#000000" stroke-opacity="0.200000" points="114.53,-96.98 120.53,-94.88 114.53,-92.78 114.53,-96.98"/>
</g>
<!-- src/cli.ts&#45;&gt;path -->
<g id="edge3" class="edge">
<title>src/cli.ts&#45;&gt;path</title>
<path fill="none" stroke="#000000" stroke-dasharray="5,2" stroke-opacity="0.200000" d="M37.75,-163.59C37.75,-128.89 37.75,-8.88 37.75,-8.88 37.75,-8.88 114.55,-8.88 114.55,-8.88"/>
<polygon fill="#000000" fill-opacity="0.200000" stroke="#000000" stroke-opacity="0.200000" points="114.55,-10.98 120.55,-8.88 114.55,-6.78 114.55,-10.98"/>
</g>
<!-- src/main.ts -->
<g id="node8" class="node">
<title>src/main.ts</title>
<g id="a_node8"><a xlink:href="https://github.com/sverweij/upem/blob/main/src/main.ts" xlink:title="main.ts">
<path fill="#ddfeff" stroke="black" d="M170.46,-181.75C170.46,-181.75 128.29,-181.75 128.29,-181.75 125.33,-181.75 122.38,-178.79 122.38,-175.83 122.38,-175.83 122.38,-169.92 122.38,-169.92 122.38,-166.96 125.33,-164 128.29,-164 128.29,-164 170.46,-164 170.46,-164 173.42,-164 176.38,-166.96 176.38,-169.92 176.38,-169.92 176.38,-175.83 176.38,-175.83 176.38,-178.79 173.42,-181.75 170.46,-181.75"/>
<text xml:space="preserve" text-anchor="start" x="134.75" y="-169.2" font-family="Helvetica,sans-Serif" font-size="9.00">main.ts</text>
</a>
</g>
</g>
<!-- src/cli.ts&#45;&gt;src/main.ts -->
<g id="edge1" class="edge">
<title>src/cli.ts&#45;&gt;src/main.ts</title>
<path fill="none" stroke="#000000" stroke-width="2" stroke-opacity="0.200000" d="M74.34,-169.92C74.34,-169.92 113.16,-169.92 113.16,-169.92"/>
<polygon fill="#000000" fill-opacity="0.200000" stroke="#000000" stroke-width="2" stroke-opacity="0.200000" points="113.16,-172.02 119.16,-169.92 113.16,-167.82 113.16,-172.02"/>
</g>
<!-- src/main.ts&#45;&gt;fs -->
<g id="edge14" class="edge">
<title>src/main.ts&#45;&gt;fs</title>
<path fill="none" stroke="#000000" stroke-dasharray="5,2" stroke-opacity="0.200000" d="M176.74,-166.96C192.71,-166.96 209.75,-166.96 209.75,-166.96 209.75,-166.96 209.75,-50.83 209.75,-50.83 209.75,-50.83 236.65,-50.83 236.65,-50.83"/>
<polygon fill="#000000" fill-opacity="0.200000" stroke="#000000" stroke-opacity="0.200000" points="236.65,-52.93 242.65,-50.83 236.65,-48.73 236.65,-52.93"/>
</g>
<!-- src/main.ts&#45;&gt;os -->
<g id="edge15" class="edge">
<title>src/main.ts&#45;&gt;os</title>
<path fill="none" stroke="#000000" stroke-dasharray="5,2" stroke-opacity="0.200000" d="M176.72,-169.92C194.64,-169.92 214.75,-169.92 214.75,-169.92 214.75,-169.92 214.75,-96.88 214.75,-96.88 214.75,-96.88 236.54,-96.88 236.54,-96.88"/>
<polygon fill="#000000" fill-opacity="0.200000" stroke="#000000" stroke-opacity="0.200000" points="236.54,-98.98 242.54,-96.88 236.54,-94.78 236.54,-98.98"/>
</g>
<!-- src/determine&#45;policies.ts -->
<g id="node10" class="node">
<title>src/determine&#45;policies.ts</title>
<g id="a_node10"><a xlink:href="https://github.com/sverweij/upem/blob/main/src/determine-policies.ts" xlink:title="determine&#45;policies.ts">
<path fill="#ddfeff" stroke="black" d="M315.83,-211.75C315.83,-211.75 226.92,-211.75 226.92,-211.75 223.96,-211.75 221,-208.79 221,-205.83 221,-205.83 221,-199.92 221,-199.92 221,-196.96 223.96,-194 226.92,-194 226.92,-194 315.83,-194 315.83,-194 318.79,-194 321.75,-196.96 321.75,-199.92 321.75,-199.92 321.75,-205.83 321.75,-205.83 321.75,-208.79 318.79,-211.75 315.83,-211.75"/>
<text xml:space="preserve" text-anchor="start" x="229" y="-199.2" font-family="Helvetica,sans-Serif" font-size="9.00">determine&#45;policies.ts</text>
</a>
</g>
</g>
<!-- src/main.ts&#45;&gt;src/determine&#45;policies.ts -->
<g id="edge12" class="edge">
<title>src/main.ts&#45;&gt;src/determine&#45;policies.ts</title>
<path fill="none" stroke="#000000" stroke-width="2" stroke-opacity="0.200000" d="M176.79,-175.83C196.19,-175.83 218.75,-175.83 218.75,-175.83 218.75,-175.83 218.75,-198.44 218.75,-198.44 218.75,-198.44 218.93,-198.44 218.93,-198.44"/>
<polygon fill="#000000" fill-opacity="0.200000" stroke="#000000" stroke-width="2" stroke-opacity="0.200000" points="211.47,-200.54 217.47,-198.44 211.47,-196.34 211.47,-200.54"/>
</g>
<!-- src/update&#45;manifest.ts -->
<g id="node12" class="node">
<title>src/update&#45;manifest.ts</title>
<g id="a_node12"><a xlink:href="https://github.com/sverweij/upem/blob/main/src/update-manifest.ts" xlink:title="update&#45;manifest.ts">
<path fill="#ddfeff" stroke="black" d="M310.96,-181.75C310.96,-181.75 231.79,-181.75 231.79,-181.75 228.83,-181.75 225.88,-178.79 225.88,-175.83 225.88,-175.83 225.88,-169.92 225.88,-169.92 225.88,-166.96 228.83,-164 231.79,-164 231.79,-164 310.96,-164 310.96,-164 313.92,-164 316.88,-166.96 316.88,-169.92 316.88,-169.92 316.88,-175.83 316.88,-175.83 316.88,-178.79 313.92,-181.75 310.96,-181.75"/>
<text xml:space="preserve" text-anchor="start" x="233.88" y="-169.2" font-family="Helvetica,sans-Serif" font-size="9.00">update&#45;manifest.ts</text>
</a>
</g>
</g>
<!-- src/main.ts&#45;&gt;src/update&#45;manifest.ts -->
<g id="edge13" class="edge">
<title>src/main.ts&#45;&gt;src/update&#45;manifest.ts</title>
<path fill="none" stroke="#000000" stroke-width="2" stroke-opacity="0.200000" d="M176.75,-172.88C176.75,-172.88 216.38,-172.88 216.38,-172.88"/>
<polygon fill="#000000" fill-opacity="0.200000" stroke="#000000" stroke-width="2" stroke-opacity="0.200000" points="216.38,-174.98 222.38,-172.88 216.38,-170.78 216.38,-174.98"/>
</g>
<!-- src/determine&#45;policies.test.ts -->
<g id="node9" class="node">
<title>src/determine&#45;policies.test.ts</title>
<g id="a_node9"><a xlink:href="https://github.com/sverweij/upem/blob/main/src/determine-policies.test.ts" xlink:title="determine&#45;policies.test.ts">
<path fill="#ddfeff" stroke="black" d="M202.08,-241.75C202.08,-241.75 96.67,-241.75 96.67,-241.75 93.71,-241.75 90.75,-238.79 90.75,-235.83 90.75,-235.83 90.75,-229.92 90.75,-229.92 90.75,-226.96 93.71,-224 96.67,-224 96.67,-224 202.08,-224 202.08,-224 205.04,-224 208,-226.96 208,-229.92 208,-229.92 208,-235.83 208,-235.83 208,-238.79 205.04,-241.75 202.08,-241.75"/>
<text xml:space="preserve" text-anchor="start" x="98.75" y="-229.2" font-family="Helvetica,sans-Serif" font-size="9.00">determine&#45;policies.test.ts</text>
</a>
</g>
</g>
<!-- src/determine&#45;policies.test.ts&#45;&gt;assert/strict -->
<g id="edge5" class="edge">
<title>src/determine&#45;policies.test.ts&#45;&gt;assert/strict</title>
<path fill="none" stroke="#000000" stroke-dasharray="5,2" stroke-opacity="0.200000" d="M208.41,-237.31C239.71,-237.31 271.75,-237.31 271.75,-237.31 271.75,-237.31 271.75,-276.19 271.75,-276.19"/>
<polygon fill="#000000" fill-opacity="0.200000" stroke="#000000" stroke-opacity="0.200000" points="269.65,-276.19 271.75,-282.19 273.85,-276.19 269.65,-276.19"/>
</g>
<!-- src/determine&#45;policies.test.ts&#45;&gt;node:test -->
<g id="edge6" class="edge">
<title>src/determine&#45;policies.test.ts&#45;&gt;node:test</title>
<path fill="none" stroke="#000000" stroke-dasharray="5,2" stroke-opacity="0.200000" d="M208.49,-228.44C213.53,-228.44 216.75,-228.44 216.75,-228.44 216.75,-228.44 216.75,-143.31 216.75,-143.31 216.75,-143.31 236.55,-143.31 236.55,-143.31"/>
<polygon fill="#000000" fill-opacity="0.200000" stroke="#000000" stroke-opacity="0.200000" points="236.55,-145.41 242.55,-143.31 236.55,-141.21 236.55,-145.41"/>
</g>
<!-- src/determine&#45;policies.test.ts&#45;&gt;src/determine&#45;policies.ts -->
<g id="edge4" class="edge">
<title>src/determine&#45;policies.test.ts&#45;&gt;src/determine&#45;policies.ts</title>
<path fill="none" stroke="#000000" stroke-width="2" stroke-opacity="0.200000" d="M208.19,-232.88C221.98,-232.88 232.75,-232.88 232.75,-232.88 232.75,-232.88 232.75,-221.07 232.75,-221.07"/>
<polygon fill="#000000" fill-opacity="0.200000" stroke="#000000" stroke-width="2" stroke-opacity="0.200000" points="234.85,-221.07 232.75,-215.07 230.65,-221.07 234.85,-221.07"/>
</g>
<!-- src/main.test.ts -->
<g id="node11" class="node">
<title>src/main.test.ts</title>
<g id="a_node11"><a xlink:href="https://github.com/sverweij/upem/blob/main/src/main.test.ts" xlink:title="main.test.ts">
<path fill="#ddfeff" stroke="black" d="M71.83,-211.75C71.83,-211.75 21.92,-211.75 21.92,-211.75 18.96,-211.75 16,-208.79 16,-205.83 16,-205.83 16,-199.92 16,-199.92 16,-196.96 18.96,-194 21.92,-194 21.92,-194 71.83,-194 71.83,-194 74.79,-194 77.75,-196.96 77.75,-199.92 77.75,-199.92 77.75,-205.83 77.75,-205.83 77.75,-208.79 74.79,-211.75 71.83,-211.75"/>
<text xml:space="preserve" text-anchor="start" x="24" y="-199.2" font-family="Helvetica,sans-Serif" font-size="9.00">main.test.ts</text>
</a>
</g>
</g>
<!-- src/main.test.ts&#45;&gt;assert/strict -->
<g id="edge8" class="edge">
<title>src/main.test.ts&#45;&gt;assert/strict</title>
<path fill="none" stroke="#000000" stroke-dasharray="5,2" stroke-opacity="0.200000" d="M77.99,-208.79C81.45,-208.79 83.75,-208.79 83.75,-208.79 83.75,-208.79 83.75,-295.83 83.75,-295.83 83.75,-295.83 236.58,-295.83 236.58,-295.83"/>
<polygon fill="#000000" fill-opacity="0.200000" stroke="#000000" stroke-opacity="0.200000" points="236.58,-297.93 242.58,-295.83 236.58,-293.73 236.58,-297.93"/>
</g>
<!-- src/main.test.ts&#45;&gt;fs -->
<g id="edge9" class="edge">
<title>src/main.test.ts&#45;&gt;fs</title>
<path fill="none" stroke="#000000" stroke-dasharray="5,2" stroke-opacity="0.200000" d="M77.98,-196.96C79.1,-196.96 79.75,-196.96 79.75,-196.96 79.75,-196.96 79.75,-44.92 79.75,-44.92 79.75,-44.92 236.41,-44.92 236.41,-44.92"/>
<polygon fill="#000000" fill-opacity="0.200000" stroke="#000000" stroke-opacity="0.200000" points="236.41,-47.02 242.41,-44.92 236.41,-42.82 236.41,-47.02"/>
</g>
<!-- src/main.test.ts&#45;&gt;node:test -->
<g id="edge10" class="edge">
<title>src/main.test.ts&#45;&gt;node:test</title>
<path fill="none" stroke="#000000" stroke-dasharray="5,2" stroke-opacity="0.200000" d="M77.9,-202.88C83.05,-202.88 86.75,-202.88 86.75,-202.88 86.75,-202.88 86.75,-134.44 86.75,-134.44 86.75,-134.44 236.62,-134.44 236.62,-134.44"/>
<polygon fill="#000000" fill-opacity="0.200000" stroke="#000000" stroke-opacity="0.200000" points="236.62,-136.54 242.62,-134.44 236.62,-132.34 236.62,-136.54"/>
</g>
<!-- src/main.test.ts&#45;&gt;os -->
<g id="edge11" class="edge">
<title>src/main.test.ts&#45;&gt;os</title>
<path fill="none" stroke="#000000" stroke-dasharray="5,2" stroke-opacity="0.200000" d="M78.02,-199.92C80.31,-199.92 81.75,-199.92 81.75,-199.92 81.75,-199.92 81.75,-118.88 81.75,-118.88 81.75,-118.88 271.75,-118.88 271.75,-118.88 271.75,-118.88 271.75,-115.45 271.75,-115.45"/>
<polygon fill="#000000" fill-opacity="0.200000" stroke="#000000" stroke-opacity="0.200000" points="273.85,-115.45 271.75,-109.45 269.65,-115.45 273.85,-115.45"/>
</g>
<!-- src/main.test.ts&#45;&gt;src/main.ts -->
<g id="edge7" class="edge">
<title>src/main.test.ts&#45;&gt;src/main.ts</title>
<path fill="none" stroke="#000000" stroke-width="2" stroke-opacity="0.200000" d="M78.18,-205.83C84.24,-205.83 88.75,-205.83 88.75,-205.83 88.75,-205.83 88.75,-175.83 88.75,-175.83 88.75,-175.83 112.87,-175.83 112.87,-175.83"/>
<polygon fill="#000000" fill-opacity="0.200000" stroke="#000000" stroke-width="2" stroke-opacity="0.200000" points="112.87,-177.93 118.87,-175.83 112.87,-173.73 112.87,-177.93"/>
</g>
<!-- src/types.d.ts -->
<g id="node13" class="node">
<title>src/types.d.ts</title>
<g id="a_node13"><a xlink:href="https://github.com/sverweij/upem/blob/main/src/types.d.ts" xlink:title="types.d.ts">
<path fill="#ccffcc" stroke="black" d="M68.08,-241.75C68.08,-241.75 25.67,-241.75 25.67,-241.75 22.71,-241.75 19.75,-238.79 19.75,-235.83 19.75,-235.83 19.75,-229.92 19.75,-229.92 19.75,-226.96 22.71,-224 25.67,-224 25.67,-224 68.08,-224 68.08,-224 71.04,-224 74,-226.96 74,-229.92 74,-229.92 74,-235.83 74,-235.83 74,-238.79 71.04,-241.75 68.08,-241.75"/>
<text xml:space="preserve" text-anchor="start" x="27.75" y="-229.2" font-family="Helvetica,sans-Serif" font-size="9.00">types.d.ts</text>
</a>
</g>
</g>
<!-- src/update&#45;manifest.test.ts -->
<g id="node14" class="node">
<title>src/update&#45;manifest.test.ts</title>
<g id="a_node14"><a xlink:href="https://github.com/sverweij/upem/blob/main/src/update-manifest.test.ts" xlink:title="update&#45;manifest.test.ts">
<path fill="#ddfeff" stroke="black" d="M197.21,-211.75C197.21,-211.75 101.54,-211.75 101.54,-211.75 98.58,-211.75 95.62,-208.79 95.62,-205.83 95.62,-205.83 95.62,-199.92 95.62,-199.92 95.62,-196.96 98.58,-194 101.54,-194 101.54,-194 197.21,-194 197.21,-194 200.17,-194 203.12,-196.96 203.12,-199.92 203.12,-199.92 203.12,-205.83 203.12,-205.83 203.12,-208.79 200.17,-211.75 197.21,-211.75"/>
<text xml:space="preserve" text-anchor="start" x="103.62" y="-199.2" font-family="Helvetica,sans-Serif" font-size="9.00">update&#45;manifest.test.ts</text>
</a>
</g>
</g>
<!-- src/update&#45;manifest.test.ts&#45;&gt;assert/strict -->
<g id="edge18" class="edge">
<title>src/update&#45;manifest.test.ts&#45;&gt;assert/strict</title>
<path fill="none" stroke="#000000" stroke-dasharray="5,2" stroke-opacity="0.200000" d="M203.4,-207.31C209.03,-207.31 212.75,-207.31 212.75,-207.31 212.75,-207.31 212.75,-289.92 212.75,-289.92 212.75,-289.92 236.61,-289.92 236.61,-289.92"/>
<polygon fill="#000000" fill-opacity="0.200000" stroke="#000000" stroke-opacity="0.200000" points="236.61,-292.02 242.61,-289.92 236.61,-287.82 236.61,-292.02"/>
</g>
<!-- src/update&#45;manifest.test.ts&#45;&gt;node:test -->
<g id="edge19" class="edge">
<title>src/update&#45;manifest.test.ts&#45;&gt;node:test</title>
<path fill="none" stroke="#000000" stroke-dasharray="5,2" stroke-opacity="0.200000" d="M185.75,-193.71C185.75,-176.01 185.75,-138.88 185.75,-138.88 185.75,-138.88 236.77,-138.88 236.77,-138.88"/>
<polygon fill="#000000" fill-opacity="0.200000" stroke="#000000" stroke-opacity="0.200000" points="236.77,-140.98 242.77,-138.88 236.77,-136.78 236.77,-140.98"/>
</g>
<!-- src/update&#45;manifest.test.ts&#45;&gt;src/determine&#45;policies.ts -->
<g id="edge16" class="edge">
<title>src/update&#45;manifest.test.ts&#45;&gt;src/determine&#45;policies.ts</title>
<path fill="none" stroke="#000000" stroke-width="2" stroke-opacity="0.200000" d="M203.6,-202.88C203.6,-202.88 211.79,-202.88 211.79,-202.88"/>
<polygon fill="#000000" fill-opacity="0.200000" stroke="#000000" stroke-width="2" stroke-opacity="0.200000" points="211.79,-204.98 217.79,-202.88 211.79,-200.78 211.79,-204.98"/>
</g>
<!-- src/update&#45;manifest.test.ts&#45;&gt;src/update&#45;manifest.ts -->
<g id="edge17" class="edge">
<title>src/update&#45;manifest.test.ts&#45;&gt;src/update&#45;manifest.ts</title>
<path fill="none" stroke="#000000" stroke-width="2" stroke-opacity="0.200000" d="M193.75,-193.63C193.75,-186.84 193.75,-178.79 193.75,-178.79 193.75,-178.79 216.74,-178.79 216.74,-178.79"/>
<polygon fill="#000000" fill-opacity="0.200000" stroke="#000000" stroke-width="2" stroke-opacity="0.200000" points="216.74,-180.89 222.74,-178.79 216.74,-176.69 216.74,-180.89"/>
</g>
</g>
</svg>
