<?xml version="1.0" encoding="UTF-8" standalone="no"?>
<!DOCTYPE svg PUBLIC "-//W3C//DTD SVG 1.1//EN"
 "http://www.w3.org/Graphics/SVG/1.1/DTD/svg11.dtd">
<!-- Generated by graphviz version 2.47.0 (20210316.0004)
 -->
<!-- Title: dependency&#45;cruiser output Pages: 1 -->
<svg width="347pt" height="178pt"
 viewBox="0.00 0.00 347.00 178.00" xmlns="http://www.w3.org/2000/svg" xmlns:xlink="http://www.w3.org/1999/xlink">
<g id="graph0" class="graph" transform="scale(1 1) rotate(0) translate(4 174)">
<title>dependency&#45;cruiser output</title>
<polygon fill="white" stroke="transparent" points="-4,4 -4,-174 343,-174 343,4 -4,4"/>
<g id="clust1" class="cluster">
<title>cluster_bin</title>
<path fill="#ffffff" stroke="black" stroke-width="2" d="M20,-20C20,-20 66,-20 66,-20 72,-20 78,-26 78,-32 78,-32 78,-60 78,-60 78,-66 72,-72 66,-72 66,-72 20,-72 20,-72 14,-72 8,-66 8,-60 8,-60 8,-32 8,-32 8,-26 14,-20 20,-20"/>
<text text-anchor="middle" x="43" y="-60.8" font-family="Helvetica,sans-Serif" font-weight="bold" font-size="9.00">bin</text>
</g>
<g id="clust2" class="cluster">
<title>cluster_node_modules</title>
<path fill="#ffffff" stroke="black" stroke-width="2" d="M243,-20C243,-20 319,-20 319,-20 325,-20 331,-26 331,-32 331,-32 331,-150 331,-150 331,-156 325,-162 319,-162 319,-162 243,-162 243,-162 237,-162 231,-156 231,-150 231,-150 231,-32 231,-32 231,-26 237,-20 243,-20"/>
<text text-anchor="middle" x="281" y="-150.8" font-family="Helvetica,sans-Serif" font-weight="bold" font-size="9.00">node_modules</text>
</g>
<g id="clust3" class="cluster">
<title>cluster_src</title>
<path fill="#ffffff" stroke="black" stroke-width="2" d="M98,-108C98,-108 211,-108 211,-108 217,-108 223,-114 223,-120 223,-120 223,-148 223,-148 223,-154 217,-160 211,-160 211,-160 98,-160 98,-160 92,-160 86,-154 86,-148 86,-148 86,-120 86,-120 86,-114 92,-108 98,-108"/>
<text text-anchor="middle" x="154.5" y="-148.8" font-family="Helvetica,sans-Serif" font-weight="bold" font-size="9.00">src</text>
</g>
<!-- bin/upem.js -->
<g id="node1" class="node">
<title>bin/upem.js</title>
<g id="a_node1"><a xlink:href="https://github.com/sverweij/upem/blob/master/bin/upem.js" xlink:title="upem.js">
<path fill="#ffffcc" stroke="black" d="M64,-46C64,-46 22,-46 22,-46 19,-46 16,-43 16,-40 16,-40 16,-34 16,-34 16,-31 19,-28 22,-28 22,-28 64,-28 64,-28 67,-28 70,-31 70,-34 70,-34 70,-40 70,-40 70,-43 67,-46 64,-46"/>
<text text-anchor="middle" x="43" y="-34.8" font-family="Helvetica,sans-Serif" font-size="9.00">upem.js</text>
</a>
</g>
</g>
<!-- src/index.js -->
<g id="node2" class="node">
<title>src/index.js</title>
<g id="a_node2"><a xlink:href="https://github.com/sverweij/upem/blob/master/src/index.js" xlink:title="index.js">
<path fill="#ffffcc" stroke="black" d="M142,-134C142,-134 100,-134 100,-134 97,-134 94,-131 94,-128 94,-128 94,-122 94,-122 94,-119 97,-116 100,-116 100,-116 142,-116 142,-116 145,-116 148,-119 148,-122 148,-122 148,-128 148,-128 148,-131 145,-134 142,-134"/>
<text text-anchor="middle" x="121" y="-122.8" font-family="Helvetica,sans-Serif" font-size="9.00">index.js</text>
</a>
</g>
</g>
<!-- bin/upem.js&#45;&gt;src/index.js -->
<g id="edge1" class="edge">
<title>bin/upem.js&#45;&gt;src/index.js</title>
<path fill="none" stroke="#000000" stroke-width="2" stroke-opacity="0.200000" d="M51.85,-46.09C65.16,-61.5 92.25,-92.87 107.97,-111.07"/>
<polygon fill="#000000" fill-opacity="0.200000" stroke="#000000" stroke-width="2" stroke-opacity="0.200000" points="106.57,-112.66 112.08,-115.83 109.75,-109.92 106.57,-112.66"/>
</g>
<!-- node_modules/get&#45;stdin -->
<g id="node3" class="node">
<title>node_modules/get&#45;stdin</title>
<g id="a_node3"><a xlink:href="https://github.com/sverweij/upem/blob/master/node_modules/get-stdin" xlink:title="get&#45;stdin">
<polygon fill="#c40b0a" fill-opacity="0.101961" stroke="black" points="308,-76 256,-76 254,-74 254,-58 306,-58 308,-60 308,-76"/>
<polyline fill="none" stroke="black" points="306,-74 254,-74 "/>
<polyline fill="none" stroke="black" points="306,-74 306,-58 "/>
<polyline fill="none" stroke="black" points="306,-74 308,-76 "/>
<text text-anchor="middle" x="281" y="-64.8" font-family="Helvetica,sans-Serif" font-size="9.00" fill="#c40b0a">get&#45;stdin</text>
</a>
</g>
</g>
<!-- bin/upem.js&#45;&gt;node_modules/get&#45;stdin -->
<g id="edge2" class="edge">
<title>bin/upem.js&#45;&gt;node_modules/get&#45;stdin</title>
<path fill="none" stroke="#000000" stroke-opacity="0.200000" d="M70.1,-43.77C75.34,-44.98 80.83,-46.12 86,-47 142.33,-56.57 208.68,-62.21 247.38,-64.95"/>
<polygon fill="#000000" fill-opacity="0.200000" stroke="#000000" stroke-opacity="0.200000" points="247.68,-67.07 253.81,-65.39 247.97,-62.88 247.68,-67.07"/>
</g>
<!-- node_modules/libnpmconfig -->
<g id="node4" class="node">
<title>node_modules/libnpmconfig</title>
<g id="a_node4"><a xlink:href="https://github.com/sverweij/upem/blob/master/node_modules/libnpmconfig" xlink:title="libnpmconfig">
<polygon fill="#c40b0a" fill-opacity="0.101961" stroke="black" points="315.5,-46 248.5,-46 246.5,-44 246.5,-28 313.5,-28 315.5,-30 315.5,-46"/>
<polyline fill="none" stroke="black" points="313.5,-44 246.5,-44 "/>
<polyline fill="none" stroke="black" points="313.5,-44 313.5,-28 "/>
<polyline fill="none" stroke="black" points="313.5,-44 315.5,-46 "/>
<text text-anchor="middle" x="281" y="-34.8" font-family="Helvetica,sans-Serif" font-size="9.00" fill="#c40b0a">libnpmconfig</text>
</a>
</g>
</g>
<!-- bin/upem.js&#45;&gt;node_modules/libnpmconfig -->
<g id="edge3" class="edge">
<title>bin/upem.js&#45;&gt;node_modules/libnpmconfig</title>
<path fill="none" stroke="#000000" stroke-opacity="0.200000" d="M70.16,-37C111.36,-37 191.66,-37 240.09,-37"/>
<polygon fill="#000000" fill-opacity="0.200000" stroke="#000000" stroke-opacity="0.200000" points="240.13,-39.1 246.13,-37 240.13,-34.9 240.13,-39.1"/>
</g>
<!-- path -->
<g id="node5" class="node">
<title>path</title>
<path fill="#ffffcc" stroke="grey" d="M142,-18C142,-18 100,-18 100,-18 97,-18 94,-15 94,-12 94,-12 94,-6 94,-6 94,-3 97,0 100,0 100,0 142,0 142,0 145,0 148,-3 148,-6 148,-6 148,-12 148,-12 148,-15 145,-18 142,-18"/>
<text text-anchor="middle" x="121" y="-6.8" font-family="Helvetica,sans-Serif" font-size="9.00" fill="grey">path</text>
</g>
<!-- bin/upem.js&#45;&gt;path -->
<g id="edge4" class="edge">
<title>bin/upem.js&#45;&gt;path</title>
<path fill="none" stroke="#000000" stroke-dasharray="5,2" stroke-opacity="0.200000" d="M68.47,-27.99C75.18,-25.51 82.54,-22.8 89.54,-20.22"/>
<polygon fill="#000000" fill-opacity="0.200000" stroke="#000000" stroke-opacity="0.200000" points="90.42,-22.14 95.32,-18.09 88.96,-18.2 90.42,-22.14"/>
</g>
<!-- fs -->
<g id="node6" class="node">
<title>fs</title>
<path fill="#ffffcc" stroke="grey" d="M209,-100C209,-100 167,-100 167,-100 164,-100 161,-97 161,-94 161,-94 161,-88 161,-88 161,-85 164,-82 167,-82 167,-82 209,-82 209,-82 212,-82 215,-85 215,-88 215,-88 215,-94 215,-94 215,-97 212,-100 209,-100"/>
<text text-anchor="middle" x="188" y="-88.8" font-family="Helvetica,sans-Serif" font-size="9.00" fill="grey">fs</text>
</g>
<!-- src/index.js&#45;&gt;fs -->
<g id="edge8" class="edge">
<title>src/index.js&#45;&gt;fs</title>
<path fill="none" stroke="#000000" stroke-dasharray="5,2" stroke-opacity="0.200000" d="M139.42,-115.89C147,-111.93 155.98,-107.23 164.09,-102.99"/>
<polygon fill="#000000" fill-opacity="0.200000" stroke="#000000" stroke-opacity="0.200000" points="165.19,-104.78 169.53,-100.14 163.24,-101.06 165.19,-104.78"/>
</g>
<!-- src/core.js -->
<g id="node9" class="node">
<title>src/core.js</title>
<g id="a_node9"><a xlink:href="https://github.com/sverweij/upem/blob/master/src/core.js" xlink:title="core.js">
<path fill="#ffffcc" stroke="black" d="M209,-134C209,-134 167,-134 167,-134 164,-134 161,-131 161,-128 161,-128 161,-122 161,-122 161,-119 164,-116 167,-116 167,-116 209,-116 209,-116 212,-116 215,-119 215,-122 215,-122 215,-128 215,-128 215,-131 212,-134 209,-134"/>
<text text-anchor="middle" x="188" y="-122.8" font-family="Helvetica,sans-Serif" font-size="9.00">core.js</text>
</a>
</g>
</g>
<!-- src/index.js&#45;&gt;src/core.js -->
<g id="edge7" class="edge">
<title>src/index.js&#45;&gt;src/core.js</title>
<path fill="none" stroke="#000000" stroke-width="2" stroke-opacity="0.200000" d="M148.06,-125C150.32,-125 152.61,-125 154.9,-125"/>
<polygon fill="#000000" fill-opacity="0.200000" stroke="#000000" stroke-width="2" stroke-opacity="0.200000" points="154.93,-127.1 160.93,-125 154.93,-122.9 154.93,-127.1"/>
</g>
<!-- node_modules/lodash.castarray -->
<g id="node7" class="node">
<title>node_modules/lodash.castarray</title>
<g id="a_node7"><a xlink:href="https://github.com/sverweij/upem/blob/master/node_modules/lodash.castarray" xlink:title="lodash.castarray">
<polygon fill="#c40b0a" fill-opacity="0.101961" stroke="black" points="323,-136 241,-136 239,-134 239,-118 321,-118 323,-120 323,-136"/>
<polyline fill="none" stroke="black" points="321,-134 239,-134 "/>
<polyline fill="none" stroke="black" points="321,-134 321,-118 "/>
<polyline fill="none" stroke="black" points="321,-134 323,-136 "/>
<text text-anchor="middle" x="281" y="-124.8" font-family="Helvetica,sans-Serif" font-size="9.00" fill="#c40b0a">lodash.castarray</text>
</a>
</g>
</g>
<!-- node_modules/lodash.get -->
<g id="node8" class="node">
<title>node_modules/lodash.get</title>
<g id="a_node8"><a xlink:href="https://github.com/sverweij/upem/blob/master/node_modules/lodash.get" xlink:title="lodash.get">
<polygon fill="#c40b0a" fill-opacity="0.101961" stroke="black" points="310.5,-106 253.5,-106 251.5,-104 251.5,-88 308.5,-88 310.5,-90 310.5,-106"/>
<polyline fill="none" stroke="black" points="308.5,-104 251.5,-104 "/>
<polyline fill="none" stroke="black" points="308.5,-104 308.5,-88 "/>
<polyline fill="none" stroke="black" points="308.5,-104 310.5,-106 "/>
<text text-anchor="middle" x="281" y="-94.8" font-family="Helvetica,sans-Serif" font-size="9.00" fill="#c40b0a">lodash.get</text>
</a>
</g>
</g>
<!-- src/core.js&#45;&gt;node_modules/lodash.castarray -->
<g id="edge5" class="edge">
<title>src/core.js&#45;&gt;node_modules/lodash.castarray</title>
<path fill="none" stroke="#000000" stroke-opacity="0.200000" d="M215.32,-125.58C220.83,-125.7 226.8,-125.83 232.81,-125.96"/>
<polygon fill="#000000" fill-opacity="0.200000" stroke="#000000" stroke-opacity="0.200000" points="232.78,-128.06 238.82,-126.09 232.87,-123.86 232.78,-128.06"/>
</g>
<!-- src/core.js&#45;&gt;node_modules/lodash.get -->
<g id="edge6" class="edge">
<title>src/core.js&#45;&gt;node_modules/lodash.get</title>
<path fill="none" stroke="#000000" stroke-opacity="0.200000" d="M215.21,-116.87C220.44,-115.26 225.89,-113.57 231,-112 235.77,-110.53 240.8,-108.99 245.74,-107.47"/>
<polygon fill="#000000" fill-opacity="0.200000" stroke="#000000" stroke-opacity="0.200000" points="246.37,-109.48 251.49,-105.71 245.14,-105.46 246.37,-109.48"/>
</g>
</g>
</svg>
