<?xml version="1.0" encoding="UTF-8" standalone="no"?>
<!DOCTYPE svg PUBLIC "-//W3C//DTD SVG 1.1//EN"
 "http://www.w3.org/Graphics/SVG/1.1/DTD/svg11.dtd">
<!-- Generated by graphviz version 5.0.0 (20220707.1540)
 -->
<!-- Title: dependency&#45;cruiser output Pages: 1 -->
<svg width="358pt" height="300pt"
 viewBox="0.00 0.00 358.00 300.00" xmlns="http://www.w3.org/2000/svg" xmlns:xlink="http://www.w3.org/1999/xlink">
<g id="graph0" class="graph" transform="scale(1 1) rotate(0) translate(4 296)">
<title>dependency&#45;cruiser output</title>
<polygon fill="white" stroke="transparent" points="-4,4 -4,-296 354,-296 354,4 -4,4"/>
<g id="clust1" class="cluster">
<title>cluster_node_modules</title>
<path fill="#ffffff" stroke="black" stroke-width="2" d="M128,-82C128,-82 189,-82 189,-82 195,-82 201,-88 201,-94 201,-94 201,-152 201,-152 201,-158 195,-164 189,-164 189,-164 128,-164 128,-164 122,-164 116,-158 116,-152 116,-152 116,-94 116,-94 116,-88 122,-82 128,-82"/>
<text text-anchor="middle" x="158.5" y="-152.8" font-family="Helvetica,sans-Serif" font-weight="bold" font-size="9.00">node_modules</text>
</g>
<g id="clust2" class="cluster">
<title>cluster_src</title>
<path fill="#ffffff" stroke="black" stroke-width="2" d="M20,-172C20,-172 330,-172 330,-172 336,-172 342,-178 342,-184 342,-184 342,-272 342,-272 342,-278 336,-284 330,-284 330,-284 20,-284 20,-284 14,-284 8,-278 8,-272 8,-272 8,-184 8,-184 8,-178 14,-172 20,-172"/>
<text text-anchor="middle" x="175" y="-272.8" font-family="Helvetica,sans-Serif" font-weight="bold" font-size="9.00">src</text>
</g>
<!-- fs -->
<g id="node1" class="node">
<title>fs</title>
<g id="a_node1"><a xlink:title="fs">
<path fill="#ffffcc" stroke="grey" d="M304.5,-105C304.5,-105 262.5,-105 262.5,-105 259.5,-105 256.5,-102 256.5,-99 256.5,-99 256.5,-93 256.5,-93 256.5,-90 259.5,-87 262.5,-87 262.5,-87 304.5,-87 304.5,-87 307.5,-87 310.5,-90 310.5,-93 310.5,-93 310.5,-99 310.5,-99 310.5,-102 307.5,-105 304.5,-105"/>
<text text-anchor="middle" x="283.5" y="-93.8" font-family="Helvetica,sans-Serif" font-size="9.00" fill="grey">fs</text>
</a>
</g>
</g>
<!-- node_modules/get&#45;stdin -->
<g id="node2" class="node">
<title>node_modules/get&#45;stdin</title>
<g id="a_node2"><a xlink:href="https://github.com/sverweij/upem/blob/master/node_modules/get-stdin" xlink:title="get&#45;stdin">
<polygon fill="#c40b0a" fill-opacity="0.101961" stroke="black" points="185.5,-138 133.5,-138 131.5,-136 131.5,-120 183.5,-120 185.5,-122 185.5,-138"/>
<polyline fill="none" stroke="black" points="183.5,-136 131.5,-136 "/>
<polyline fill="none" stroke="black" points="183.5,-136 183.5,-120 "/>
<polyline fill="none" stroke="black" points="183.5,-136 185.5,-138 "/>
<text text-anchor="start" x="140.5" y="-126.8" font-family="Helvetica,sans-Serif" font-size="9.00" fill="#c40b0a">get&#45;stdin</text>
</a>
</g>
</g>
<!-- node_modules/libnpmconfig -->
<g id="node3" class="node">
<title>node_modules/libnpmconfig</title>
<g id="a_node3"><a xlink:href="https://github.com/sverweij/upem/blob/master/node_modules/libnpmconfig" xlink:title="libnpmconfig">
<polygon fill="#c40b0a" fill-opacity="0.101961" stroke="black" points="193,-108 126,-108 124,-106 124,-90 191,-90 193,-92 193,-108"/>
<polyline fill="none" stroke="black" points="191,-106 124,-106 "/>
<polyline fill="none" stroke="black" points="191,-106 191,-90 "/>
<polyline fill="none" stroke="black" points="191,-106 193,-108 "/>
<text text-anchor="start" x="132" y="-96.8" font-family="Helvetica,sans-Serif" font-size="9.00" fill="#c40b0a">libnpmconfig</text>
</a>
</g>
</g>
<!-- path -->
<g id="node4" class="node">
<title>path</title>
<g id="a_node4"><a xlink:title="path">
<path fill="#ffffcc" stroke="grey" d="M179.5,-74C179.5,-74 137.5,-74 137.5,-74 134.5,-74 131.5,-71 131.5,-68 131.5,-68 131.5,-62 131.5,-62 131.5,-59 134.5,-56 137.5,-56 137.5,-56 179.5,-56 179.5,-56 182.5,-56 185.5,-59 185.5,-62 185.5,-62 185.5,-68 185.5,-68 185.5,-71 182.5,-74 179.5,-74"/>
<text text-anchor="middle" x="158.5" y="-62.8" font-family="Helvetica,sans-Serif" font-size="9.00" fill="grey">path</text>
</a>
</g>
</g>
<!-- src/cli.js -->
<g id="node5" class="node">
<title>src/cli.js</title>
<g id="a_node5"><a xlink:href="https://github.com/sverweij/upem/blob/master/src/cli.js" xlink:title="cli.js">
<path fill="#ffffcc" stroke="black" d="M71,-228C71,-228 29,-228 29,-228 26,-228 23,-225 23,-222 23,-222 23,-216 23,-216 23,-213 26,-210 29,-210 29,-210 71,-210 71,-210 74,-210 77,-213 77,-216 77,-216 77,-222 77,-222 77,-225 74,-228 71,-228"/>
<text text-anchor="start" x="40.5" y="-216.8" font-family="Helvetica,sans-Serif" font-size="9.00">cli.js</text>
</a>
</g>
</g>
<!-- src/cli.js&#45;&gt;node_modules/get&#45;stdin -->
<g id="edge2" class="edge">
<title>src/cli.js&#45;&gt;node_modules/get&#45;stdin</title>
<path fill="none" stroke="#000000" stroke-opacity="0.200000" d="M77.31,-220.8C85.33,-220.8 92,-220.8 92,-220.8 92,-220.8 92,-129 92,-129 92,-129 125.45,-129 125.45,-129"/>
<polygon fill="#000000" fill-opacity="0.200000" stroke="#000000" stroke-opacity="0.200000" points="125.45,-131.1 131.45,-129 125.45,-126.9 125.45,-131.1"/>
</g>
<!-- src/cli.js&#45;&gt;node_modules/libnpmconfig -->
<g id="edge3" class="edge">
<title>src/cli.js&#45;&gt;node_modules/libnpmconfig</title>
<path fill="none" stroke="#000000" stroke-opacity="0.200000" d="M77.34,-217.2C84.38,-217.2 90,-217.2 90,-217.2 90,-217.2 90,-99 90,-99 90,-99 117.85,-99 117.85,-99"/>
<polygon fill="#000000" fill-opacity="0.200000" stroke="#000000" stroke-opacity="0.200000" points="117.85,-101.1 123.85,-99 117.85,-96.9 117.85,-101.1"/>
</g>
<!-- src/cli.js&#45;&gt;path -->
<g id="edge4" class="edge">
<title>src/cli.js&#45;&gt;path</title>
<path fill="none" stroke="#000000" stroke-dasharray="5,2" stroke-opacity="0.200000" d="M77.28,-213.6C82.82,-213.6 87,-213.6 87,-213.6 87,-213.6 87,-68 87,-68 87,-68 125.47,-68 125.47,-68"/>
<polygon fill="#000000" fill-opacity="0.200000" stroke="#000000" stroke-opacity="0.200000" points="125.47,-70.1 131.47,-68 125.47,-65.9 125.47,-70.1"/>
</g>
<!-- src/main.js -->
<g id="node6" class="node">
<title>src/main.js</title>
<g id="a_node6"><a xlink:href="https://github.com/sverweij/upem/blob/master/src/main.js" xlink:title="main.js">
<path fill="#ffffcc" stroke="black" d="M179.5,-198C179.5,-198 137.5,-198 137.5,-198 134.5,-198 131.5,-195 131.5,-192 131.5,-192 131.5,-186 131.5,-186 131.5,-183 134.5,-180 137.5,-180 137.5,-180 179.5,-180 179.5,-180 182.5,-180 185.5,-183 185.5,-186 185.5,-186 185.5,-192 185.5,-192 185.5,-195 182.5,-198 179.5,-198"/>
<text text-anchor="start" x="143.5" y="-186.8" font-family="Helvetica,sans-Serif" font-size="9.00">main.js</text>
</a>
</g>
</g>
<!-- src/cli.js&#45;&gt;src/main.js -->
<g id="edge1" class="edge">
<title>src/cli.js&#45;&gt;src/main.js</title>
<path fill="none" stroke="#000000" stroke-width="2" stroke-opacity="0.200000" d="M77.21,-224.4C86.69,-224.4 95,-224.4 95,-224.4 95,-224.4 95,-192 95,-192 95,-192 125.2,-192 125.2,-192"/>
<polygon fill="#000000" fill-opacity="0.200000" stroke="#000000" stroke-width="2" stroke-opacity="0.200000" points="125.2,-194.1 131.2,-192 125.2,-189.9 125.2,-194.1"/>
</g>
<!-- src/main.js&#45;&gt;fs -->
<g id="edge8" class="edge">
<title>src/main.js&#45;&gt;fs</title>
<path fill="none" stroke="#000000" stroke-dasharray="5,2" stroke-opacity="0.200000" d="M185.66,-183.6C193.99,-183.6 201,-183.6 201,-183.6 201,-183.6 201,-97.5 201,-97.5 201,-97.5 250.49,-97.5 250.49,-97.5"/>
<polygon fill="#000000" fill-opacity="0.200000" stroke="#000000" stroke-opacity="0.200000" points="250.49,-99.6 256.49,-97.5 250.49,-95.4 250.49,-99.6"/>
</g>
<!-- src/determine&#45;policies.js -->
<g id="node7" class="node">
<title>src/determine&#45;policies.js</title>
<g id="a_node7"><a xlink:href="https://github.com/sverweij/upem/blob/master/src/determine-policies.js" xlink:title="determine&#45;policies.js">
<path fill="#ffffcc" stroke="black" d="M328,-228C328,-228 239,-228 239,-228 236,-228 233,-225 233,-222 233,-222 233,-216 233,-216 233,-213 236,-210 239,-210 239,-210 328,-210 328,-210 331,-210 334,-213 334,-216 334,-216 334,-222 334,-222 334,-225 331,-228 328,-228"/>
<text text-anchor="start" x="241" y="-216.8" font-family="Helvetica,sans-Serif" font-size="9.00">determine&#45;policies.js</text>
</a>
</g>
</g>
<!-- src/main.js&#45;&gt;src/determine&#45;policies.js -->
<g id="edge6" class="edge">
<title>src/main.js&#45;&gt;src/determine&#45;policies.js</title>
<path fill="none" stroke="#000000" stroke-width="2" stroke-opacity="0.200000" d="M185.57,-190.8C204.72,-190.8 227,-190.8 227,-190.8 227,-190.8 227,-216 227,-216 227,-216 227.56,-216 227.56,-216"/>
<polygon fill="#000000" fill-opacity="0.200000" stroke="#000000" stroke-width="2" stroke-opacity="0.200000" points="226.62,-218.1 232.62,-216 226.62,-213.9 226.62,-218.1"/>
</g>
<!-- src/update&#45;manifest.js -->
<g id="node9" class="node">
<title>src/update&#45;manifest.js</title>
<g id="a_node9"><a xlink:href="https://github.com/sverweij/upem/blob/master/src/update-manifest.js" xlink:title="update&#45;manifest.js">
<path fill="#ffffcc" stroke="black" d="M323.5,-198C323.5,-198 243.5,-198 243.5,-198 240.5,-198 237.5,-195 237.5,-192 237.5,-192 237.5,-186 237.5,-186 237.5,-183 240.5,-180 243.5,-180 243.5,-180 323.5,-180 323.5,-180 326.5,-180 329.5,-183 329.5,-186 329.5,-186 329.5,-192 329.5,-192 329.5,-195 326.5,-198 323.5,-198"/>
<text text-anchor="start" x="245.5" y="-186.8" font-family="Helvetica,sans-Serif" font-size="9.00">update&#45;manifest.js</text>
</a>
</g>
</g>
<!-- src/main.js&#45;&gt;src/update&#45;manifest.js -->
<g id="edge7" class="edge">
<title>src/main.js&#45;&gt;src/update&#45;manifest.js</title>
<path fill="none" stroke="#000000" stroke-width="2" stroke-opacity="0.200000" d="M185.62,-187.2C185.62,-187.2 231.25,-187.2 231.25,-187.2"/>
<polygon fill="#000000" fill-opacity="0.200000" stroke="#000000" stroke-width="2" stroke-opacity="0.200000" points="231.25,-189.3 237.25,-187.2 231.25,-185.1 231.25,-189.3"/>
</g>
<!-- src/determine&#45;policies.spec.js -->
<g id="node8" class="node">
<title>src/determine&#45;policies.spec.js</title>
<g id="a_node8"><a xlink:href="https://github.com/sverweij/upem/blob/master/src/determine-policies.spec.js" xlink:title="determine&#45;policies.spec.js">
<path fill="#ccccff" stroke="black" d="M214,-258C214,-258 103,-258 103,-258 100,-258 97,-255 97,-252 97,-252 97,-246 97,-246 97,-243 100,-240 103,-240 103,-240 214,-240 214,-240 217,-240 220,-243 220,-246 220,-246 220,-252 220,-252 220,-255 217,-258 214,-258"/>
<text text-anchor="start" x="105" y="-246.8" font-family="Helvetica,sans-Serif" font-size="9.00">determine&#45;policies.spec.js</text>
</a>
</g>
</g>
<!-- src/determine&#45;policies.spec.js&#45;&gt;src/determine&#45;policies.js -->
<g id="edge5" class="edge">
<title>src/determine&#45;policies.spec.js&#45;&gt;src/determine&#45;policies.js</title>
<path fill="none" stroke="#000000" stroke-width="2" stroke-opacity="0.200000" d="M220.15,-249C251.89,-249 284,-249 284,-249 284,-249 284,-234.16 284,-234.16"/>
<polygon fill="#000000" fill-opacity="0.200000" stroke="#000000" stroke-width="2" stroke-opacity="0.200000" points="286.1,-234.16 284,-228.16 281.9,-234.16 286.1,-234.16"/>
</g>
<!-- src/main.spec.js -->
<g id="node10" class="node">
<title>src/main.spec.js</title>
<g id="a_node10"><a xlink:href="https://github.com/sverweij/upem/blob/master/src/main.spec.js" xlink:title="main.spec.js">
<path fill="#ccccff" stroke="black" d="M78,-198C78,-198 22,-198 22,-198 19,-198 16,-195 16,-192 16,-192 16,-186 16,-186 16,-183 19,-180 22,-180 22,-180 78,-180 78,-180 81,-180 84,-183 84,-186 84,-186 84,-192 84,-192 84,-195 81,-198 78,-198"/>
<text text-anchor="start" x="24" y="-186.8" font-family="Helvetica,sans-Serif" font-size="9.00">main.spec.js</text>
</a>
</g>
</g>
<!-- src/main.spec.js&#45;&gt;fs -->
<g id="edge10" class="edge">
<title>src/main.spec.js&#45;&gt;fs</title>
<path fill="none" stroke="#000000" stroke-dasharray="5,2" stroke-opacity="0.200000" d="M33,-179.84C33,-171.01 33,-159 33,-159 33,-159 284,-159 284,-159 284,-159 284,-111.03 284,-111.03"/>
<polygon fill="#000000" fill-opacity="0.200000" stroke="#000000" stroke-opacity="0.200000" points="286.1,-111.03 284,-105.03 281.9,-111.03 286.1,-111.03"/>
</g>
<!-- src/main.spec.js&#45;&gt;path -->
<g id="edge11" class="edge">
<title>src/main.spec.js&#45;&gt;path</title>
<path fill="none" stroke="#000000" stroke-dasharray="5,2" stroke-opacity="0.200000" d="M67,-179.87C67,-150.75 67,-62 67,-62 67,-62 125.05,-62 125.05,-62"/>
<polygon fill="#000000" fill-opacity="0.200000" stroke="#000000" stroke-opacity="0.200000" points="125.05,-64.1 131.05,-62 125.05,-59.9 125.05,-64.1"/>
</g>
<!-- src/main.spec.js&#45;&gt;src/main.js -->
<g id="edge9" class="edge">
<title>src/main.spec.js&#45;&gt;src/main.js</title>
<path fill="none" stroke="#000000" stroke-width="2" stroke-opacity="0.200000" d="M84.03,-186C84.03,-186 125.47,-186 125.47,-186"/>
<polygon fill="#000000" fill-opacity="0.200000" stroke="#000000" stroke-width="2" stroke-opacity="0.200000" points="125.47,-188.1 131.47,-186 125.47,-183.9 125.47,-188.1"/>
</g>
<!-- url -->
<g id="node11" class="node">
<title>url</title>
<g id="a_node11"><a xlink:title="url">
<path fill="#ffffcc" stroke="grey" d="M179.5,-18C179.5,-18 137.5,-18 137.5,-18 134.5,-18 131.5,-15 131.5,-12 131.5,-12 131.5,-6 131.5,-6 131.5,-3 134.5,0 137.5,0 137.5,0 179.5,0 179.5,0 182.5,0 185.5,-3 185.5,-6 185.5,-6 185.5,-12 185.5,-12 185.5,-15 182.5,-18 179.5,-18"/>
<text text-anchor="middle" x="158.5" y="-6.8" font-family="Helvetica,sans-Serif" font-size="9.00" fill="grey">url</text>
</a>
</g>
</g>
<!-- src/main.spec.js&#45;&gt;url -->
<g id="edge12" class="edge">
<title>src/main.spec.js&#45;&gt;url</title>
<path fill="none" stroke="#000000" stroke-dasharray="5,2" stroke-opacity="0.200000" d="M50,-179.83C50,-143.15 50,-9 50,-9 50,-9 125.4,-9 125.4,-9"/>
<polygon fill="#000000" fill-opacity="0.200000" stroke="#000000" stroke-opacity="0.200000" points="125.4,-11.1 131.4,-9 125.4,-6.9 125.4,-11.1"/>
</g>
<!-- src/update&#45;manifest.spec.js -->
<g id="node12" class="node">
<title>src/update&#45;manifest.spec.js</title>
<g id="a_node12"><a xlink:href="https://github.com/sverweij/upem/blob/master/src/update-manifest.spec.js" xlink:title="update&#45;manifest.spec.js">
<path fill="#ccccff" stroke="black" d="M209,-228C209,-228 108,-228 108,-228 105,-228 102,-225 102,-222 102,-222 102,-216 102,-216 102,-213 105,-210 108,-210 108,-210 209,-210 209,-210 212,-210 215,-213 215,-216 215,-216 215,-222 215,-222 215,-225 212,-228 209,-228"/>
<text text-anchor="start" x="110" y="-216.8" font-family="Helvetica,sans-Serif" font-size="9.00">update&#45;manifest.spec.js</text>
</a>
</g>
</g>
<!-- src/update&#45;manifest.spec.js&#45;&gt;src/determine&#45;policies.js -->
<g id="edge13" class="edge">
<title>src/update&#45;manifest.spec.js&#45;&gt;src/determine&#45;policies.js</title>
<path fill="none" stroke="#000000" stroke-width="2" stroke-opacity="0.200000" d="M215.15,-222C215.15,-222 226.97,-222 226.97,-222"/>
<polygon fill="#000000" fill-opacity="0.200000" stroke="#000000" stroke-width="2" stroke-opacity="0.200000" points="226.97,-224.1 232.97,-222 226.97,-219.9 226.97,-224.1"/>
</g>
<!-- src/update&#45;manifest.spec.js&#45;&gt;src/update&#45;manifest.js -->
<g id="edge14" class="edge">
<title>src/update&#45;manifest.spec.js&#45;&gt;src/update&#45;manifest.js</title>
<path fill="none" stroke="#000000" stroke-width="2" stroke-opacity="0.200000" d="M208,-209.84C208,-202.85 208,-194.4 208,-194.4 208,-194.4 231.41,-194.4 231.41,-194.4"/>
<polygon fill="#000000" fill-opacity="0.200000" stroke="#000000" stroke-width="2" stroke-opacity="0.200000" points="231.41,-196.5 237.41,-194.4 231.41,-192.3 231.41,-196.5"/>
</g>
</g>
</svg>
