<?xml version="1.0" encoding="UTF-8" standalone="no"?>
<!DOCTYPE svg PUBLIC "-//W3C//DTD SVG 1.1//EN"
 "http://www.w3.org/Graphics/SVG/1.1/DTD/svg11.dtd">
<!-- Generated by graphviz version 8.0.5 (20230430.1635)
 -->
<!-- Title: dependency&#45;cruiser output Pages: 1 -->
<svg width="356pt" height="306pt"
 viewBox="0.00 0.00 356.25 305.75" xmlns="http://www.w3.org/2000/svg" xmlns:xlink="http://www.w3.org/1999/xlink">
<g id="graph0" class="graph" transform="scale(1 1) rotate(0) translate(4 301.75)">
<title>dependency&#45;cruiser output</title>
<polygon fill="white" stroke="none" points="-4,4 -4,-301.75 352.25,-301.75 352.25,4 -4,4"/>
<g id="clust1" class="cluster">
<title>cluster_node_modules</title>
<path fill="#ffffff" stroke="black" stroke-width="2" d="M127,-81.88C127,-81.88 187.5,-81.88 187.5,-81.88 193.5,-81.88 199.5,-87.88 199.5,-93.88 199.5,-93.88 199.5,-121.88 199.5,-121.88 199.5,-127.88 193.5,-133.88 187.5,-133.88 187.5,-133.88 127,-133.88 127,-133.88 121,-133.88 115,-127.88 115,-121.88 115,-121.88 115,-93.88 115,-93.88 115,-87.88 121,-81.88 127,-81.88"/>
<text text-anchor="middle" x="157.25" y="-121.33" font-family="Helvetica,sans-Serif" font-weight="bold" font-size="9.00">node_modules</text>
</g>
<g id="clust2" class="cluster">
<title>cluster_src</title>
<path fill="#ffffff" stroke="black" stroke-width="2" d="M20,-159.88C20,-159.88 328.25,-159.88 328.25,-159.88 334.25,-159.88 340.25,-165.88 340.25,-171.88 340.25,-171.88 340.25,-259.88 340.25,-259.88 340.25,-265.88 334.25,-271.88 328.25,-271.88 328.25,-271.88 20,-271.88 20,-271.88 14,-271.88 8,-265.88 8,-259.88 8,-259.88 8,-171.88 8,-171.88 8,-165.88 14,-159.88 20,-159.88"/>
<text text-anchor="middle" x="174.12" y="-259.32" font-family="Helvetica,sans-Serif" font-weight="bold" font-size="9.00">src</text>
</g>
<!-- assert -->
<g id="node1" class="node">
<title>assert</title>
<g id="a_node1"><a xlink:title="assert">
<path fill="#ffffcc" stroke="grey" d="M302.96,-297.75C302.96,-297.75 260.79,-297.75 260.79,-297.75 257.83,-297.75 254.88,-294.79 254.88,-291.83 254.88,-291.83 254.88,-285.92 254.88,-285.92 254.88,-282.96 257.83,-280 260.79,-280 260.79,-280 302.96,-280 302.96,-280 305.92,-280 308.88,-282.96 308.88,-285.92 308.88,-285.92 308.88,-291.83 308.88,-291.83 308.88,-294.79 305.92,-297.75 302.96,-297.75"/>
<text text-anchor="middle" x="281.88" y="-285.2" font-family="Helvetica,sans-Serif" font-size="9.00" fill="grey">assert</text>
</a>
</g>
</g>
<!-- fs -->
<g id="node2" class="node">
<title>fs</title>
<g id="a_node2"><a xlink:title="fs">
<path fill="#ffffcc" stroke="grey" d="M302.96,-151.75C302.96,-151.75 260.79,-151.75 260.79,-151.75 257.83,-151.75 254.88,-148.79 254.88,-145.83 254.88,-145.83 254.88,-139.92 254.88,-139.92 254.88,-136.96 257.83,-134 260.79,-134 260.79,-134 302.96,-134 302.96,-134 305.92,-134 308.88,-136.96 308.88,-139.92 308.88,-139.92 308.88,-145.83 308.88,-145.83 308.88,-148.79 305.92,-151.75 302.96,-151.75"/>
<text text-anchor="middle" x="281.88" y="-139.2" font-family="Helvetica,sans-Serif" font-size="9.00" fill="grey">fs</text>
</a>
</g>
</g>
<!-- node_modules/libnpmconfig -->
<g id="node3" class="node">
<title>node_modules/libnpmconfig</title>
<g id="a_node3"><a xlink:href="https://github.com/sverweij/upem/blob/main/node_modules/libnpmconfig" xlink:title="libnpmconfig">
<polygon fill="#c40b0a" fill-opacity="0.101961" stroke="black" points="191.5,-107.75 124.97,-107.75 123,-105.78 123,-90 189.53,-90 191.5,-91.97 191.5,-107.75"/>
<polyline fill="none" stroke="black" points="189.53,-105.78 123,-105.78"/>
<polyline fill="none" stroke="black" points="189.53,-105.78 189.53,-90"/>
<polyline fill="none" stroke="black" points="189.53,-105.78 191.5,-107.75"/>
<text text-anchor="start" x="131" y="-95.2" font-family="Helvetica,sans-Serif" font-size="9.00" fill="#c40b0a">libnpmconfig</text>
</a>
</g>
</g>
<!-- os -->
<g id="node4" class="node">
<title>os</title>
<g id="a_node4"><a xlink:title="os">
<path fill="#ffffcc" stroke="grey" d="M302.96,-83.75C302.96,-83.75 260.79,-83.75 260.79,-83.75 257.83,-83.75 254.88,-80.79 254.88,-77.83 254.88,-77.83 254.88,-71.92 254.88,-71.92 254.88,-68.96 257.83,-66 260.79,-66 260.79,-66 302.96,-66 302.96,-66 305.92,-66 308.88,-68.96 308.88,-71.92 308.88,-71.92 308.88,-77.83 308.88,-77.83 308.88,-80.79 305.92,-83.75 302.96,-83.75"/>
<text text-anchor="middle" x="281.88" y="-71.2" font-family="Helvetica,sans-Serif" font-size="9.00" fill="grey">os</text>
</a>
</g>
</g>
<!-- path -->
<g id="node5" class="node">
<title>path</title>
<g id="a_node5"><a xlink:title="path">
<path fill="#ffffcc" stroke="grey" d="M178.33,-73.75C178.33,-73.75 136.17,-73.75 136.17,-73.75 133.21,-73.75 130.25,-70.79 130.25,-67.83 130.25,-67.83 130.25,-61.92 130.25,-61.92 130.25,-58.96 133.21,-56 136.17,-56 136.17,-56 178.33,-56 178.33,-56 181.29,-56 184.25,-58.96 184.25,-61.92 184.25,-61.92 184.25,-67.83 184.25,-67.83 184.25,-70.79 181.29,-73.75 178.33,-73.75"/>
<text text-anchor="middle" x="157.25" y="-61.2" font-family="Helvetica,sans-Serif" font-size="9.00" fill="grey">path</text>
</a>
</g>
</g>
<!-- src/cli.ts -->
<g id="node6" class="node">
<title>src/cli.ts</title>
<g id="a_node6"><a xlink:href="https://github.com/sverweij/upem/blob/main/src/cli.ts" xlink:title="cli.ts">
<path fill="#ddfeff" stroke="black" d="M70.58,-215.75C70.58,-215.75 28.42,-215.75 28.42,-215.75 25.46,-215.75 22.5,-212.79 22.5,-209.83 22.5,-209.83 22.5,-203.92 22.5,-203.92 22.5,-200.96 25.46,-198 28.42,-198 28.42,-198 70.58,-198 70.58,-198 73.54,-198 76.5,-200.96 76.5,-203.92 76.5,-203.92 76.5,-209.83 76.5,-209.83 76.5,-212.79 73.54,-215.75 70.58,-215.75"/>
<text text-anchor="start" x="40.5" y="-203.2" font-family="Helvetica,sans-Serif" font-size="9.00">cli.ts</text>
</a>
</g>
</g>
<!-- src/cli.ts&#45;&gt;node_modules/libnpmconfig -->
<g id="edge2" class="edge">
<title>src/cli.ts&#45;&gt;node_modules/libnpmconfig</title>
<path fill="none" stroke="#000000" stroke-opacity="0.200000" d="M76.65,-206.88C84.62,-206.88 91.25,-206.88 91.25,-206.88 91.25,-206.88 91.25,-98.88 91.25,-98.88 91.25,-98.88 115.7,-98.88 115.7,-98.88"/>
<polygon fill="#000000" fill-opacity="0.200000" stroke="#000000" stroke-opacity="0.200000" points="115.7,-100.98 121.7,-98.88 115.7,-96.78 115.7,-100.98"/>
</g>
<!-- src/cli.ts&#45;&gt;path -->
<g id="edge3" class="edge">
<title>src/cli.ts&#45;&gt;path</title>
<path fill="none" stroke="#000000" stroke-dasharray="5,2" stroke-opacity="0.200000" d="M76.83,-202.44C83.25,-202.44 88.25,-202.44 88.25,-202.44 88.25,-202.44 88.25,-67.83 88.25,-67.83 88.25,-67.83 122.98,-67.83 122.98,-67.83"/>
<polygon fill="#000000" fill-opacity="0.200000" stroke="#000000" stroke-opacity="0.200000" points="122.98,-69.93 128.98,-67.83 122.98,-65.73 122.98,-69.93"/>
</g>
<!-- src/main.ts -->
<g id="node7" class="node">
<title>src/main.ts</title>
<g id="a_node7"><a xlink:href="https://github.com/sverweij/upem/blob/main/src/main.ts" xlink:title="main.ts">
<path fill="#ddfeff" stroke="black" d="M178.33,-185.75C178.33,-185.75 136.17,-185.75 136.17,-185.75 133.21,-185.75 130.25,-182.79 130.25,-179.83 130.25,-179.83 130.25,-173.92 130.25,-173.92 130.25,-170.96 133.21,-168 136.17,-168 136.17,-168 178.33,-168 178.33,-168 181.29,-168 184.25,-170.96 184.25,-173.92 184.25,-173.92 184.25,-179.83 184.25,-179.83 184.25,-182.79 181.29,-185.75 178.33,-185.75"/>
<text text-anchor="start" x="142.62" y="-173.2" font-family="Helvetica,sans-Serif" font-size="9.00">main.ts</text>
</a>
</g>
</g>
<!-- src/cli.ts&#45;&gt;src/main.ts -->
<g id="edge1" class="edge">
<title>src/cli.ts&#45;&gt;src/main.ts</title>
<path fill="none" stroke="#000000" stroke-width="2" stroke-opacity="0.200000" d="M76.82,-211.31C86.14,-211.31 94.25,-211.31 94.25,-211.31 94.25,-211.31 94.25,-181.31 94.25,-181.31 94.25,-181.31 120.8,-181.31 120.8,-181.31"/>
<polygon fill="#000000" fill-opacity="0.200000" stroke="#000000" stroke-width="2" stroke-opacity="0.200000" points="120.8,-183.41 126.8,-181.31 120.8,-179.21 120.8,-183.41"/>
</g>
<!-- src/main.ts&#45;&gt;fs -->
<g id="edge14" class="edge">
<title>src/main.ts&#45;&gt;fs</title>
<path fill="none" stroke="#000000" stroke-dasharray="5,2" stroke-opacity="0.200000" d="M157.25,-167.73C157.25,-158.57 157.25,-145.83 157.25,-145.83 157.25,-145.83 247.53,-145.83 247.53,-145.83"/>
<polygon fill="#000000" fill-opacity="0.200000" stroke="#000000" stroke-opacity="0.200000" points="247.53,-147.93 253.53,-145.83 247.53,-143.73 247.53,-147.93"/>
</g>
<!-- src/main.ts&#45;&gt;os -->
<g id="edge15" class="edge">
<title>src/main.ts&#45;&gt;os</title>
<path fill="none" stroke="#000000" stroke-dasharray="5,2" stroke-opacity="0.200000" d="M184.56,-171.55C192.58,-171.55 199.25,-171.55 199.25,-171.55 199.25,-171.55 199.25,-80.42 199.25,-80.42 199.25,-80.42 247.82,-80.42 247.82,-80.42"/>
<polygon fill="#000000" fill-opacity="0.200000" stroke="#000000" stroke-opacity="0.200000" points="247.82,-82.52 253.82,-80.42 247.82,-78.32 247.82,-82.52"/>
</g>
<!-- src/determine&#45;policies.ts -->
<g id="node9" class="node">
<title>src/determine&#45;policies.ts</title>
<g id="a_node9"><a xlink:href="https://github.com/sverweij/upem/blob/main/src/determine-policies.ts" xlink:title="determine&#45;policies.ts">
<path fill="#ddfeff" stroke="black" d="M326.33,-215.75C326.33,-215.75 237.42,-215.75 237.42,-215.75 234.46,-215.75 231.5,-212.79 231.5,-209.83 231.5,-209.83 231.5,-203.92 231.5,-203.92 231.5,-200.96 234.46,-198 237.42,-198 237.42,-198 326.33,-198 326.33,-198 329.29,-198 332.25,-200.96 332.25,-203.92 332.25,-203.92 332.25,-209.83 332.25,-209.83 332.25,-212.79 329.29,-215.75 326.33,-215.75"/>
<text text-anchor="start" x="239.5" y="-203.2" font-family="Helvetica,sans-Serif" font-size="9.00">determine&#45;policies.ts</text>
</a>
</g>
</g>
<!-- src/main.ts&#45;&gt;src/determine&#45;policies.ts -->
<g id="edge12" class="edge">
<title>src/main.ts&#45;&gt;src/determine&#45;policies.ts</title>
<path fill="none" stroke="#000000" stroke-width="2" stroke-opacity="0.200000" d="M184.51,-182.2C204.17,-182.2 227.25,-182.2 227.25,-182.2 227.25,-182.2 227.25,-202.44 227.25,-202.44 227.25,-202.44 227.64,-202.44 227.64,-202.44"/>
<polygon fill="#000000" fill-opacity="0.200000" stroke="#000000" stroke-width="2" stroke-opacity="0.200000" points="222.18,-204.54 228.18,-202.44 222.18,-200.34 222.18,-204.54"/>
</g>
<!-- src/update&#45;manifest.ts -->
<g id="node12" class="node">
<title>src/update&#45;manifest.ts</title>
<g id="a_node12"><a xlink:href="https://github.com/sverweij/upem/blob/main/src/update-manifest.ts" xlink:title="update&#45;manifest.ts">
<path fill="#ddfeff" stroke="black" d="M321.46,-185.75C321.46,-185.75 242.29,-185.75 242.29,-185.75 239.33,-185.75 236.38,-182.79 236.38,-179.83 236.38,-179.83 236.38,-173.92 236.38,-173.92 236.38,-170.96 239.33,-168 242.29,-168 242.29,-168 321.46,-168 321.46,-168 324.42,-168 327.38,-170.96 327.38,-173.92 327.38,-173.92 327.38,-179.83 327.38,-179.83 327.38,-182.79 324.42,-185.75 321.46,-185.75"/>
<text text-anchor="start" x="244.38" y="-173.2" font-family="Helvetica,sans-Serif" font-size="9.00">update&#45;manifest.ts</text>
</a>
</g>
</g>
<!-- src/main.ts&#45;&gt;src/update&#45;manifest.ts -->
<g id="edge13" class="edge">
<title>src/main.ts&#45;&gt;src/update&#45;manifest.ts</title>
<path fill="none" stroke="#000000" stroke-width="2" stroke-opacity="0.200000" d="M184.6,-175.1C184.6,-175.1 226.97,-175.1 226.97,-175.1"/>
<polygon fill="#000000" fill-opacity="0.200000" stroke="#000000" stroke-width="2" stroke-opacity="0.200000" points="226.97,-177.2 232.97,-175.1 226.97,-173 226.97,-177.2"/>
</g>
<!-- src/determine&#45;policies.spec.ts -->
<g id="node8" class="node">
<title>src/determine&#45;policies.spec.ts</title>
<g id="a_node8"><a xlink:href="https://github.com/sverweij/upem/blob/main/src/determine-policies.spec.ts" xlink:title="determine&#45;policies.spec.ts">
<path fill="#ddfeff" stroke="black" d="M212.58,-245.75C212.58,-245.75 101.92,-245.75 101.92,-245.75 98.96,-245.75 96,-242.79 96,-239.83 96,-239.83 96,-233.92 96,-233.92 96,-230.96 98.96,-228 101.92,-228 101.92,-228 212.58,-228 212.58,-228 215.54,-228 218.5,-230.96 218.5,-233.92 218.5,-233.92 218.5,-239.83 218.5,-239.83 218.5,-242.79 215.54,-245.75 212.58,-245.75"/>
<text text-anchor="start" x="104" y="-233.2" font-family="Helvetica,sans-Serif" font-size="9.00">determine&#45;policies.spec.ts</text>
</a>
</g>
</g>
<!-- src/determine&#45;policies.spec.ts&#45;&gt;assert -->
<g id="edge5" class="edge">
<title>src/determine&#45;policies.spec.ts&#45;&gt;assert</title>
<path fill="none" stroke="#000000" stroke-dasharray="5,2" stroke-opacity="0.200000" d="M218.65,-239.83C250.26,-239.83 282.25,-239.83 282.25,-239.83 282.25,-239.83 282.25,-272.88 282.25,-272.88"/>
<polygon fill="#000000" fill-opacity="0.200000" stroke="#000000" stroke-opacity="0.200000" points="280.15,-272.88 282.25,-278.88 284.35,-272.88 280.15,-272.88"/>
</g>
<!-- src/determine&#45;policies.spec.ts&#45;&gt;src/determine&#45;policies.ts -->
<g id="edge4" class="edge">
<title>src/determine&#45;policies.spec.ts&#45;&gt;src/determine&#45;policies.ts</title>
<path fill="none" stroke="#000000" stroke-width="2" stroke-opacity="0.200000" d="M218.84,-233.92C232.62,-233.92 243.25,-233.92 243.25,-233.92 243.25,-233.92 243.25,-225.03 243.25,-225.03"/>
<polygon fill="#000000" fill-opacity="0.200000" stroke="#000000" stroke-width="2" stroke-opacity="0.200000" points="245.35,-225.03 243.25,-219.03 241.15,-225.03 245.35,-225.03"/>
</g>
<!-- src/main.spec.ts -->
<g id="node10" class="node">
<title>src/main.spec.ts</title>
<g id="a_node10"><a xlink:href="https://github.com/sverweij/upem/blob/main/src/main.spec.ts" xlink:title="main.spec.ts">
<path fill="#ddfeff" stroke="black" d="M77.08,-185.75C77.08,-185.75 21.92,-185.75 21.92,-185.75 18.96,-185.75 16,-182.79 16,-179.83 16,-179.83 16,-173.92 16,-173.92 16,-170.96 18.96,-168 21.92,-168 21.92,-168 77.08,-168 77.08,-168 80.04,-168 83,-170.96 83,-173.92 83,-173.92 83,-179.83 83,-179.83 83,-182.79 80.04,-185.75 77.08,-185.75"/>
<text text-anchor="start" x="24" y="-173.2" font-family="Helvetica,sans-Serif" font-size="9.00">main.spec.ts</text>
</a>
</g>
</g>
<!-- src/main.spec.ts&#45;&gt;assert -->
<g id="edge7" class="edge">
<title>src/main.spec.ts&#45;&gt;assert</title>
<path fill="none" stroke="#000000" stroke-dasharray="5,2" stroke-opacity="0.200000" d="M83.37,-172.44C85.16,-172.44 86.25,-172.44 86.25,-172.44 86.25,-172.44 86.25,-291.83 86.25,-291.83 86.25,-291.83 247.67,-291.83 247.67,-291.83"/>
<polygon fill="#000000" fill-opacity="0.200000" stroke="#000000" stroke-opacity="0.200000" points="247.67,-293.93 253.67,-291.83 247.67,-289.73 247.67,-293.93"/>
</g>
<!-- src/main.spec.ts&#45;&gt;fs -->
<g id="edge8" class="edge">
<title>src/main.spec.ts&#45;&gt;fs</title>
<path fill="none" stroke="#000000" stroke-dasharray="5,2" stroke-opacity="0.200000" d="M70.25,-167.55C70.25,-156.6 70.25,-139.92 70.25,-139.92 70.25,-139.92 247.64,-139.92 247.64,-139.92"/>
<polygon fill="#000000" fill-opacity="0.200000" stroke="#000000" stroke-opacity="0.200000" points="247.64,-142.02 253.64,-139.92 247.64,-137.82 247.64,-142.02"/>
</g>
<!-- src/main.spec.ts&#45;&gt;os -->
<g id="edge9" class="edge">
<title>src/main.spec.ts&#45;&gt;os</title>
<path fill="none" stroke="#000000" stroke-dasharray="5,2" stroke-opacity="0.200000" d="M56.25,-167.67C56.25,-142.96 56.25,-77.08 56.25,-77.08 56.25,-77.08 247.66,-77.08 247.66,-77.08"/>
<polygon fill="#000000" fill-opacity="0.200000" stroke="#000000" stroke-opacity="0.200000" points="247.66,-79.18 253.66,-77.08 247.66,-74.98 247.66,-79.18"/>
</g>
<!-- src/main.spec.ts&#45;&gt;path -->
<g id="edge10" class="edge">
<title>src/main.spec.ts&#45;&gt;path</title>
<path fill="none" stroke="#000000" stroke-dasharray="5,2" stroke-opacity="0.200000" d="M43.25,-167.85C43.25,-140.75 43.25,-61.92 43.25,-61.92 43.25,-61.92 122.94,-61.92 122.94,-61.92"/>
<polygon fill="#000000" fill-opacity="0.200000" stroke="#000000" stroke-opacity="0.200000" points="122.94,-64.02 128.94,-61.92 122.94,-59.82 122.94,-64.02"/>
</g>
<!-- src/main.spec.ts&#45;&gt;src/main.ts -->
<g id="edge6" class="edge">
<title>src/main.spec.ts&#45;&gt;src/main.ts</title>
<path fill="none" stroke="#000000" stroke-width="2" stroke-opacity="0.200000" d="M83.3,-176.88C83.3,-176.88 121.05,-176.88 121.05,-176.88"/>
<polygon fill="#000000" fill-opacity="0.200000" stroke="#000000" stroke-width="2" stroke-opacity="0.200000" points="121.05,-178.98 127.05,-176.88 121.05,-174.78 121.05,-178.98"/>
</g>
<!-- url -->
<g id="node11" class="node">
<title>url</title>
<g id="a_node11"><a xlink:title="url">
<path fill="#ffffcc" stroke="grey" d="M178.33,-17.75C178.33,-17.75 136.17,-17.75 136.17,-17.75 133.21,-17.75 130.25,-14.79 130.25,-11.83 130.25,-11.83 130.25,-5.92 130.25,-5.92 130.25,-2.96 133.21,0 136.17,0 136.17,0 178.33,0 178.33,0 181.29,0 184.25,-2.96 184.25,-5.92 184.25,-5.92 184.25,-11.83 184.25,-11.83 184.25,-14.79 181.29,-17.75 178.33,-17.75"/>
<text text-anchor="middle" x="157.25" y="-5.2" font-family="Helvetica,sans-Serif" font-size="9.00" fill="grey">url</text>
</a>
</g>
</g>
<!-- src/main.spec.ts&#45;&gt;url -->
<g id="edge11" class="edge">
<title>src/main.spec.ts&#45;&gt;url</title>
<path fill="none" stroke="#000000" stroke-dasharray="5,2" stroke-opacity="0.200000" d="M30.25,-167.84C30.25,-132.95 30.25,-8.88 30.25,-8.88 30.25,-8.88 123.01,-8.88 123.01,-8.88"/>
<polygon fill="#000000" fill-opacity="0.200000" stroke="#000000" stroke-opacity="0.200000" points="123.01,-10.98 129.01,-8.88 123.01,-6.78 123.01,-10.98"/>
</g>
<!-- src/update&#45;manifest.spec.ts -->
<g id="node13" class="node">
<title>src/update&#45;manifest.spec.ts</title>
<g id="a_node13"><a xlink:href="https://github.com/sverweij/upem/blob/main/src/update-manifest.spec.ts" xlink:title="update&#45;manifest.spec.ts">
<path fill="#ddfeff" stroke="black" d="M207.71,-215.75C207.71,-215.75 106.79,-215.75 106.79,-215.75 103.83,-215.75 100.88,-212.79 100.88,-209.83 100.88,-209.83 100.88,-203.92 100.88,-203.92 100.88,-200.96 103.83,-198 106.79,-198 106.79,-198 207.71,-198 207.71,-198 210.67,-198 213.62,-200.96 213.62,-203.92 213.62,-203.92 213.62,-209.83 213.62,-209.83 213.62,-212.79 210.67,-215.75 207.71,-215.75"/>
<text text-anchor="start" x="108.88" y="-203.2" font-family="Helvetica,sans-Serif" font-size="9.00">update&#45;manifest.spec.ts</text>
</a>
</g>
</g>
<!-- src/update&#45;manifest.spec.ts&#45;&gt;assert -->
<g id="edge18" class="edge">
<title>src/update&#45;manifest.spec.ts&#45;&gt;assert</title>
<path fill="none" stroke="#000000" stroke-dasharray="5,2" stroke-opacity="0.200000" d="M214.07,-211.31C219.62,-211.31 223.25,-211.31 223.25,-211.31 223.25,-211.31 223.25,-285.92 223.25,-285.92 223.25,-285.92 247.62,-285.92 247.62,-285.92"/>
<polygon fill="#000000" fill-opacity="0.200000" stroke="#000000" stroke-opacity="0.200000" points="247.62,-288.02 253.62,-285.92 247.62,-283.82 247.62,-288.02"/>
</g>
<!-- src/update&#45;manifest.spec.ts&#45;&gt;src/determine&#45;policies.ts -->
<g id="edge16" class="edge">
<title>src/update&#45;manifest.spec.ts&#45;&gt;src/determine&#45;policies.ts</title>
<path fill="none" stroke="#000000" stroke-width="2" stroke-opacity="0.200000" d="M214.09,-206.88C214.09,-206.88 222.03,-206.88 222.03,-206.88"/>
<polygon fill="#000000" fill-opacity="0.200000" stroke="#000000" stroke-width="2" stroke-opacity="0.200000" points="222.03,-208.98 228.03,-206.88 222.03,-204.78 222.03,-208.98"/>
</g>
<!-- src/update&#45;manifest.spec.ts&#45;&gt;src/update&#45;manifest.ts -->
<g id="edge17" class="edge">
<title>src/update&#45;manifest.spec.ts&#45;&gt;src/update&#45;manifest.ts</title>
<path fill="none" stroke="#000000" stroke-width="2" stroke-opacity="0.200000" d="M206.25,-197.63C206.25,-189.4 206.25,-178.65 206.25,-178.65 206.25,-178.65 227.14,-178.65 227.14,-178.65"/>
<polygon fill="#000000" fill-opacity="0.200000" stroke="#000000" stroke-width="2" stroke-opacity="0.200000" points="227.14,-180.75 233.14,-178.65 227.14,-176.55 227.14,-180.75"/>
</g>
</g>
</svg>
