<?xml version="1.0" encoding="UTF-8" standalone="no"?>
<!DOCTYPE svg PUBLIC "-//W3C//DTD SVG 1.1//EN"
 "http://www.w3.org/Graphics/SVG/1.1/DTD/svg11.dtd">
<!-- Generated by graphviz version 9.0.0 (20230911.1827)
 -->
<!-- Title: dependency&#45;cruiser output Pages: 1 -->
<svg width="346pt" height="344pt"
 viewBox="0.00 0.00 345.75 343.88" xmlns="http://www.w3.org/2000/svg" xmlns:xlink="http://www.w3.org/1999/xlink">
<g id="graph0" class="graph" transform="scale(1 1) rotate(0) translate(4 339.88)">
<title>dependency&#45;cruiser output</title>
<polygon fill="white" stroke="none" points="-4,4 -4,-339.88 341.75,-339.88 341.75,4 -4,4"/>
<g id="clust1" class="cluster">
<title>cluster_assert</title>
<path fill="#ffffff" stroke="black" stroke-width="2" d="M248.38,-275.88C248.38,-275.88 294.38,-275.88 294.38,-275.88 300.38,-275.88 306.38,-281.88 306.38,-287.88 306.38,-287.88 306.38,-315.88 306.38,-315.88 306.38,-321.88 300.38,-327.88 294.38,-327.88 294.38,-327.88 248.38,-327.88 248.38,-327.88 242.38,-327.88 236.38,-321.88 236.38,-315.88 236.38,-315.88 236.38,-287.88 236.38,-287.88 236.38,-281.88 242.38,-275.88 248.38,-275.88"/>
<text text-anchor="middle" x="271.38" y="-315.32" font-family="Helvetica,sans-Serif" font-weight="bold" font-size="9.00">assert</text>
</g>
<g id="clust2" class="cluster">
<title>cluster_node_modules</title>
<path fill="#ffffff" stroke="black" stroke-width="2" d="M119.12,-77.88C119.12,-77.88 179.62,-77.88 179.62,-77.88 185.62,-77.88 191.62,-83.88 191.62,-89.88 191.62,-89.88 191.62,-117.88 191.62,-117.88 191.62,-123.88 185.62,-129.88 179.62,-129.88 179.62,-129.88 119.12,-129.88 119.12,-129.88 113.12,-129.88 107.12,-123.88 107.12,-117.88 107.12,-117.88 107.12,-89.88 107.12,-89.88 107.12,-83.88 113.12,-77.88 119.12,-77.88"/>
<text text-anchor="middle" x="149.38" y="-117.33" font-family="Helvetica,sans-Serif" font-weight="bold" font-size="9.00">node_modules</text>
</g>
<g id="clust3" class="cluster">
<title>cluster_src</title>
<path fill="#ffffff" stroke="black" stroke-width="2" d="M20,-155.88C20,-155.88 317.75,-155.88 317.75,-155.88 323.75,-155.88 329.75,-161.88 329.75,-167.88 329.75,-167.88 329.75,-255.88 329.75,-255.88 329.75,-261.88 323.75,-267.88 317.75,-267.88 317.75,-267.88 20,-267.88 20,-267.88 14,-267.88 8,-261.88 8,-255.88 8,-255.88 8,-167.88 8,-167.88 8,-161.88 14,-155.88 20,-155.88"/>
<text text-anchor="middle" x="168.88" y="-255.32" font-family="Helvetica,sans-Serif" font-weight="bold" font-size="9.00">src</text>
</g>
<!-- assert/strict -->
<g id="node1" class="node">
<title>assert/strict</title>
<g id="a_node1"><a xlink:title="strict">
<path fill="#ffffcc" stroke="grey" d="M292.46,-301.75C292.46,-301.75 250.29,-301.75 250.29,-301.75 247.33,-301.75 244.38,-298.79 244.38,-295.83 244.38,-295.83 244.38,-289.92 244.38,-289.92 244.38,-286.96 247.33,-284 250.29,-284 250.29,-284 292.46,-284 292.46,-284 295.42,-284 298.38,-286.96 298.38,-289.92 298.38,-289.92 298.38,-295.83 298.38,-295.83 298.38,-298.79 295.42,-301.75 292.46,-301.75"/>
<text text-anchor="start" x="262" y="-289.2" font-family="Helvetica,sans-Serif" font-size="9.00" fill="grey">strict</text>
</a>
</g>
</g>
<!-- fs -->
<g id="node2" class="node">
<title>fs</title>
<g id="a_node2"><a xlink:title="fs">
<path fill="#ffffcc" stroke="grey" d="M292.46,-56.75C292.46,-56.75 250.29,-56.75 250.29,-56.75 247.33,-56.75 244.38,-53.79 244.38,-50.83 244.38,-50.83 244.38,-44.92 244.38,-44.92 244.38,-41.96 247.33,-39 250.29,-39 250.29,-39 292.46,-39 292.46,-39 295.42,-39 298.38,-41.96 298.38,-44.92 298.38,-44.92 298.38,-50.83 298.38,-50.83 298.38,-53.79 295.42,-56.75 292.46,-56.75"/>
<text text-anchor="middle" x="271.38" y="-44.2" font-family="Helvetica,sans-Serif" font-size="9.00" fill="grey">fs</text>
</a>
</g>
</g>
<!-- node_modules/libnpmconfig -->
<g id="node3" class="node">
<title>node_modules/libnpmconfig</title>
<g id="a_node3"><a xlink:href="https://github.com/sverweij/upem/blob/main/node_modules/libnpmconfig" xlink:title="libnpmconfig">
<polygon fill="#c40b0a" fill-opacity="0.101961" stroke="black" points="183.62,-103.75 117.1,-103.75 115.12,-101.78 115.12,-86 181.65,-86 183.62,-87.97 183.62,-103.75"/>
<polyline fill="none" stroke="black" points="181.65,-101.78 115.12,-101.78"/>
<polyline fill="none" stroke="black" points="181.65,-101.78 181.65,-86"/>
<polyline fill="none" stroke="black" points="181.65,-101.78 183.62,-103.75"/>
<text text-anchor="start" x="123.12" y="-91.2" font-family="Helvetica,sans-Serif" font-size="9.00" fill="#c40b0a">libnpmconfig</text>
</a>
</g>
</g>
<!-- os -->
<g id="node4" class="node">
<title>os</title>
<g id="a_node4"><a xlink:title="os">
<path fill="#ffffcc" stroke="grey" d="M292.46,-107.75C292.46,-107.75 250.29,-107.75 250.29,-107.75 247.33,-107.75 244.38,-104.79 244.38,-101.83 244.38,-101.83 244.38,-95.92 244.38,-95.92 244.38,-92.96 247.33,-90 250.29,-90 250.29,-90 292.46,-90 292.46,-90 295.42,-90 298.38,-92.96 298.38,-95.92 298.38,-95.92 298.38,-101.83 298.38,-101.83 298.38,-104.79 295.42,-107.75 292.46,-107.75"/>
<text text-anchor="middle" x="271.38" y="-95.2" font-family="Helvetica,sans-Serif" font-size="9.00" fill="grey">os</text>
</a>
</g>
</g>
<!-- path -->
<g id="node5" class="node">
<title>path</title>
<g id="a_node5"><a xlink:title="path">
<path fill="#ffffcc" stroke="grey" d="M170.46,-17.75C170.46,-17.75 128.29,-17.75 128.29,-17.75 125.33,-17.75 122.38,-14.79 122.38,-11.83 122.38,-11.83 122.38,-5.92 122.38,-5.92 122.38,-2.96 125.33,0 128.29,0 128.29,0 170.46,0 170.46,0 173.42,0 176.38,-2.96 176.38,-5.92 176.38,-5.92 176.38,-11.83 176.38,-11.83 176.38,-14.79 173.42,-17.75 170.46,-17.75"/>
<text text-anchor="middle" x="149.38" y="-5.2" font-family="Helvetica,sans-Serif" font-size="9.00" fill="grey">path</text>
</a>
</g>
</g>
<!-- src/cli.ts -->
<g id="node6" class="node">
<title>src/cli.ts</title>
<g id="a_node6"><a xlink:href="https://github.com/sverweij/upem/blob/main/src/cli.ts" xlink:title="cli.ts">
<path fill="#ddfeff" stroke="black" d="M67.96,-211.75C67.96,-211.75 25.79,-211.75 25.79,-211.75 22.83,-211.75 19.88,-208.79 19.88,-205.83 19.88,-205.83 19.88,-199.92 19.88,-199.92 19.88,-196.96 22.83,-194 25.79,-194 25.79,-194 67.96,-194 67.96,-194 70.92,-194 73.88,-196.96 73.88,-199.92 73.88,-199.92 73.88,-205.83 73.88,-205.83 73.88,-208.79 70.92,-211.75 67.96,-211.75"/>
<text text-anchor="start" x="37.88" y="-199.2" font-family="Helvetica,sans-Serif" font-size="9.00">cli.ts</text>
</a>
</g>
</g>
<!-- src/cli.ts&#45;&gt;node_modules/libnpmconfig -->
<g id="edge2" class="edge">
<title>src/cli.ts&#45;&gt;node_modules/libnpmconfig</title>
<path fill="none" stroke="#000000" stroke-opacity="0.200000" d="M74.07,-202.88C79.07,-202.88 82.75,-202.88 82.75,-202.88 82.75,-202.88 82.75,-94.88 82.75,-94.88 82.75,-94.88 107.38,-94.88 107.38,-94.88"/>
<polygon fill="#000000" fill-opacity="0.200000" stroke="#000000" stroke-opacity="0.200000" points="107.38,-96.98 113.38,-94.88 107.38,-92.78 107.38,-96.98"/>
</g>
<!-- src/cli.ts&#45;&gt;path -->
<g id="edge3" class="edge">
<title>src/cli.ts&#45;&gt;path</title>
<path fill="none" stroke="#000000" stroke-dasharray="5,2" stroke-opacity="0.200000" d="M74.32,-198.44C77.56,-198.44 79.75,-198.44 79.75,-198.44 79.75,-198.44 79.75,-8.88 79.75,-8.88 79.75,-8.88 114.74,-8.88 114.74,-8.88"/>
<polygon fill="#000000" fill-opacity="0.200000" stroke="#000000" stroke-opacity="0.200000" points="114.74,-10.98 120.74,-8.88 114.74,-6.78 114.74,-10.98"/>
</g>
<!-- src/main.ts -->
<g id="node7" class="node">
<title>src/main.ts</title>
<g id="a_node7"><a xlink:href="https://github.com/sverweij/upem/blob/main/src/main.ts" xlink:title="main.ts">
<path fill="#ddfeff" stroke="black" d="M170.46,-181.75C170.46,-181.75 128.29,-181.75 128.29,-181.75 125.33,-181.75 122.38,-178.79 122.38,-175.83 122.38,-175.83 122.38,-169.92 122.38,-169.92 122.38,-166.96 125.33,-164 128.29,-164 128.29,-164 170.46,-164 170.46,-164 173.42,-164 176.38,-166.96 176.38,-169.92 176.38,-169.92 176.38,-175.83 176.38,-175.83 176.38,-178.79 173.42,-181.75 170.46,-181.75"/>
<text text-anchor="start" x="134.75" y="-169.2" font-family="Helvetica,sans-Serif" font-size="9.00">main.ts</text>
</a>
</g>
</g>
<!-- src/cli.ts&#45;&gt;src/main.ts -->
<g id="edge1" class="edge">
<title>src/cli.ts&#45;&gt;src/main.ts</title>
<path fill="none" stroke="#000000" stroke-width="2" stroke-opacity="0.200000" d="M74.37,-207.31C81.76,-207.31 87.75,-207.31 87.75,-207.31 87.75,-207.31 87.75,-169.92 87.75,-169.92 87.75,-169.92 113.14,-169.92 113.14,-169.92"/>
<polygon fill="#000000" fill-opacity="0.200000" stroke="#000000" stroke-width="2" stroke-opacity="0.200000" points="113.14,-172.02 119.14,-169.92 113.14,-167.82 113.14,-172.02"/>
</g>
<!-- src/main.ts&#45;&gt;fs -->
<g id="edge14" class="edge">
<title>src/main.ts&#45;&gt;fs</title>
<path fill="none" stroke="#000000" stroke-dasharray="5,2" stroke-opacity="0.200000" d="M176.86,-166.96C183.01,-166.96 187.75,-166.96 187.75,-166.96 187.75,-166.96 187.75,-50.83 187.75,-50.83 187.75,-50.83 236.48,-50.83 236.48,-50.83"/>
<polygon fill="#000000" fill-opacity="0.200000" stroke="#000000" stroke-opacity="0.200000" points="236.48,-52.93 242.48,-50.83 236.48,-48.73 236.48,-52.93"/>
</g>
<!-- src/main.ts&#45;&gt;os -->
<g id="edge15" class="edge">
<title>src/main.ts&#45;&gt;os</title>
<path fill="none" stroke="#000000" stroke-dasharray="5,2" stroke-opacity="0.200000" d="M176.45,-169.92C184.76,-169.92 191.75,-169.92 191.75,-169.92 191.75,-169.92 191.75,-96.88 191.75,-96.88 191.75,-96.88 236.46,-96.88 236.46,-96.88"/>
<polygon fill="#000000" fill-opacity="0.200000" stroke="#000000" stroke-opacity="0.200000" points="236.46,-98.98 242.46,-96.88 236.46,-94.78 236.46,-98.98"/>
</g>
<!-- src/determine&#45;policies.ts -->
<g id="node9" class="node">
<title>src/determine&#45;policies.ts</title>
<g id="a_node9"><a xlink:href="https://github.com/sverweij/upem/blob/main/src/determine-policies.ts" xlink:title="determine&#45;policies.ts">
<path fill="#ddfeff" stroke="black" d="M315.83,-211.75C315.83,-211.75 226.92,-211.75 226.92,-211.75 223.96,-211.75 221,-208.79 221,-205.83 221,-205.83 221,-199.92 221,-199.92 221,-196.96 223.96,-194 226.92,-194 226.92,-194 315.83,-194 315.83,-194 318.79,-194 321.75,-196.96 321.75,-199.92 321.75,-199.92 321.75,-205.83 321.75,-205.83 321.75,-208.79 318.79,-211.75 315.83,-211.75"/>
<text text-anchor="start" x="229" y="-199.2" font-family="Helvetica,sans-Serif" font-size="9.00">determine&#45;policies.ts</text>
</a>
</g>
</g>
<!-- src/main.ts&#45;&gt;src/determine&#45;policies.ts -->
<g id="edge12" class="edge">
<title>src/main.ts&#45;&gt;src/determine&#45;policies.ts</title>
<path fill="none" stroke="#000000" stroke-width="2" stroke-opacity="0.200000" d="M176.79,-178.79C195.81,-178.79 217.75,-178.79 217.75,-178.79 217.75,-178.79 217.75,-198.44 217.75,-198.44 217.75,-198.44 218.04,-198.44 218.04,-198.44"/>
<polygon fill="#000000" fill-opacity="0.200000" stroke="#000000" stroke-width="2" stroke-opacity="0.200000" points="211.61,-200.54 217.61,-198.44 211.61,-196.34 211.61,-200.54"/>
</g>
<!-- src/update&#45;manifest.ts -->
<g id="node12" class="node">
<title>src/update&#45;manifest.ts</title>
<g id="a_node12"><a xlink:href="https://github.com/sverweij/upem/blob/main/src/update-manifest.ts" xlink:title="update&#45;manifest.ts">
<path fill="#ddfeff" stroke="black" d="M310.96,-181.75C310.96,-181.75 231.79,-181.75 231.79,-181.75 228.83,-181.75 225.88,-178.79 225.88,-175.83 225.88,-175.83 225.88,-169.92 225.88,-169.92 225.88,-166.96 228.83,-164 231.79,-164 231.79,-164 310.96,-164 310.96,-164 313.92,-164 316.88,-166.96 316.88,-169.92 316.88,-169.92 316.88,-175.83 316.88,-175.83 316.88,-178.79 313.92,-181.75 310.96,-181.75"/>
<text text-anchor="start" x="233.88" y="-169.2" font-family="Helvetica,sans-Serif" font-size="9.00">update&#45;manifest.ts</text>
</a>
</g>
</g>
<!-- src/main.ts&#45;&gt;src/update&#45;manifest.ts -->
<g id="edge13" class="edge">
<title>src/main.ts&#45;&gt;src/update&#45;manifest.ts</title>
<path fill="none" stroke="#000000" stroke-width="2" stroke-opacity="0.200000" d="M176.75,-172.88C176.75,-172.88 216.38,-172.88 216.38,-172.88"/>
<polygon fill="#000000" fill-opacity="0.200000" stroke="#000000" stroke-width="2" stroke-opacity="0.200000" points="216.38,-174.98 222.38,-172.88 216.38,-170.78 216.38,-174.98"/>
</g>
<!-- src/determine&#45;policies.test.ts -->
<g id="node8" class="node">
<title>src/determine&#45;policies.test.ts</title>
<g id="a_node8"><a xlink:href="https://github.com/sverweij/upem/blob/main/src/determine-policies.test.ts" xlink:title="determine&#45;policies.test.ts">
<path fill="#ddfeff" stroke="black" d="M202.08,-241.75C202.08,-241.75 96.67,-241.75 96.67,-241.75 93.71,-241.75 90.75,-238.79 90.75,-235.83 90.75,-235.83 90.75,-229.92 90.75,-229.92 90.75,-226.96 93.71,-224 96.67,-224 96.67,-224 202.08,-224 202.08,-224 205.04,-224 208,-226.96 208,-229.92 208,-229.92 208,-235.83 208,-235.83 208,-238.79 205.04,-241.75 202.08,-241.75"/>
<text text-anchor="start" x="98.75" y="-229.2" font-family="Helvetica,sans-Serif" font-size="9.00">determine&#45;policies.test.ts</text>
</a>
</g>
</g>
<!-- src/determine&#45;policies.test.ts&#45;&gt;assert/strict -->
<g id="edge5" class="edge">
<title>src/determine&#45;policies.test.ts&#45;&gt;assert/strict</title>
<path fill="none" stroke="#000000" stroke-dasharray="5,2" stroke-opacity="0.200000" d="M208.41,-237.31C239.71,-237.31 271.75,-237.31 271.75,-237.31 271.75,-237.31 271.75,-276.19 271.75,-276.19"/>
<polygon fill="#000000" fill-opacity="0.200000" stroke="#000000" stroke-opacity="0.200000" points="269.65,-276.19 271.75,-282.19 273.85,-276.19 269.65,-276.19"/>
</g>
<!-- src/determine&#45;policies.test.ts&#45;&gt;src/determine&#45;policies.ts -->
<g id="edge4" class="edge">
<title>src/determine&#45;policies.test.ts&#45;&gt;src/determine&#45;policies.ts</title>
<path fill="none" stroke="#000000" stroke-width="2" stroke-opacity="0.200000" d="M208.19,-232.88C221.98,-232.88 232.75,-232.88 232.75,-232.88 232.75,-232.88 232.75,-221.07 232.75,-221.07"/>
<polygon fill="#000000" fill-opacity="0.200000" stroke="#000000" stroke-width="2" stroke-opacity="0.200000" points="234.85,-221.07 232.75,-215.07 230.65,-221.07 234.85,-221.07"/>
</g>
<!-- test -->
<g id="node10" class="node">
<title>test</title>
<g id="a_node10"><a xlink:title="test">
<path fill="#ffffcc" stroke="grey" d="M292.46,-147.75C292.46,-147.75 250.29,-147.75 250.29,-147.75 247.33,-147.75 244.38,-144.79 244.38,-141.83 244.38,-141.83 244.38,-135.92 244.38,-135.92 244.38,-132.96 247.33,-130 250.29,-130 250.29,-130 292.46,-130 292.46,-130 295.42,-130 298.38,-132.96 298.38,-135.92 298.38,-135.92 298.38,-141.83 298.38,-141.83 298.38,-144.79 295.42,-147.75 292.46,-147.75"/>
<text text-anchor="middle" x="271.38" y="-135.2" font-family="Helvetica,sans-Serif" font-size="9.00" fill="grey">test</text>
</a>
</g>
</g>
<!-- src/determine&#45;policies.test.ts&#45;&gt;test -->
<g id="edge6" class="edge">
<title>src/determine&#45;policies.test.ts&#45;&gt;test</title>
<path fill="none" stroke="#000000" stroke-dasharray="5,2" stroke-opacity="0.200000" d="M208.4,-228.44C210.52,-228.44 211.75,-228.44 211.75,-228.44 211.75,-228.44 211.75,-143.31 211.75,-143.31 211.75,-143.31 236.49,-143.31 236.49,-143.31"/>
<polygon fill="#000000" fill-opacity="0.200000" stroke="#000000" stroke-opacity="0.200000" points="236.49,-145.41 242.49,-143.31 236.49,-141.21 236.49,-145.41"/>
</g>
<!-- src/main.test.ts -->
<g id="node11" class="node">
<title>src/main.test.ts</title>
<g id="a_node11"><a xlink:href="https://github.com/sverweij/upem/blob/main/src/main.test.ts" xlink:title="main.test.ts">
<path fill="#ddfeff" stroke="black" d="M71.83,-241.75C71.83,-241.75 21.92,-241.75 21.92,-241.75 18.96,-241.75 16,-238.79 16,-235.83 16,-235.83 16,-229.92 16,-229.92 16,-226.96 18.96,-224 21.92,-224 21.92,-224 71.83,-224 71.83,-224 74.79,-224 77.75,-226.96 77.75,-229.92 77.75,-229.92 77.75,-235.83 77.75,-235.83 77.75,-238.79 74.79,-241.75 71.83,-241.75"/>
<text text-anchor="start" x="24" y="-229.2" font-family="Helvetica,sans-Serif" font-size="9.00">main.test.ts</text>
</a>
</g>
</g>
<!-- src/main.test.ts&#45;&gt;assert/strict -->
<g id="edge8" class="edge">
<title>src/main.test.ts&#45;&gt;assert/strict</title>
<path fill="none" stroke="#000000" stroke-dasharray="5,2" stroke-opacity="0.200000" d="M47.75,-242.16C47.75,-259.68 47.75,-295.83 47.75,-295.83 47.75,-295.83 236.44,-295.83 236.44,-295.83"/>
<polygon fill="#000000" fill-opacity="0.200000" stroke="#000000" stroke-opacity="0.200000" points="236.44,-297.93 242.44,-295.83 236.44,-293.73 236.44,-297.93"/>
</g>
<!-- src/main.test.ts&#45;&gt;fs -->
<g id="edge9" class="edge">
<title>src/main.test.ts&#45;&gt;fs</title>
<path fill="none" stroke="#000000" stroke-dasharray="5,2" stroke-opacity="0.200000" d="M78.02,-227.55C80.31,-227.55 81.75,-227.55 81.75,-227.55 81.75,-227.55 81.75,-44.92 81.75,-44.92 81.75,-44.92 236.69,-44.92 236.69,-44.92"/>
<polygon fill="#000000" fill-opacity="0.200000" stroke="#000000" stroke-opacity="0.200000" points="236.69,-47.02 242.69,-44.92 236.69,-42.82 236.69,-47.02"/>
</g>
<!-- src/main.test.ts&#45;&gt;os -->
<g id="edge10" class="edge">
<title>src/main.test.ts&#45;&gt;os</title>
<path fill="none" stroke="#000000" stroke-dasharray="5,2" stroke-opacity="0.200000" d="M78.15,-231.1C82.08,-231.1 84.75,-231.1 84.75,-231.1 84.75,-231.1 84.75,-118.88 84.75,-118.88 84.75,-118.88 271.75,-118.88 271.75,-118.88 271.75,-118.88 271.75,-115.45 271.75,-115.45"/>
<polygon fill="#000000" fill-opacity="0.200000" stroke="#000000" stroke-opacity="0.200000" points="273.85,-115.45 271.75,-109.45 269.65,-115.45 273.85,-115.45"/>
</g>
<!-- src/main.test.ts&#45;&gt;src/main.ts -->
<g id="edge7" class="edge">
<title>src/main.test.ts&#45;&gt;src/main.ts</title>
<path fill="none" stroke="#000000" stroke-width="2" stroke-opacity="0.200000" d="M78.03,-238.2C84.68,-238.2 89.75,-238.2 89.75,-238.2 89.75,-238.2 89.75,-175.83 89.75,-175.83 89.75,-175.83 112.98,-175.83 112.98,-175.83"/>
<polygon fill="#000000" fill-opacity="0.200000" stroke="#000000" stroke-width="2" stroke-opacity="0.200000" points="112.98,-177.93 118.98,-175.83 112.98,-173.73 112.98,-177.93"/>
</g>
<!-- src/main.test.ts&#45;&gt;test -->
<g id="edge11" class="edge">
<title>src/main.test.ts&#45;&gt;test</title>
<path fill="none" stroke="#000000" stroke-dasharray="5,2" stroke-opacity="0.200000" d="M77.9,-234.65C83.05,-234.65 86.75,-234.65 86.75,-234.65 86.75,-234.65 86.75,-134.44 86.75,-134.44 86.75,-134.44 236.62,-134.44 236.62,-134.44"/>
<polygon fill="#000000" fill-opacity="0.200000" stroke="#000000" stroke-opacity="0.200000" points="236.62,-136.54 242.62,-134.44 236.62,-132.34 236.62,-136.54"/>
</g>
<!-- src/types.d.ts -->
<g id="node13" class="node">
<title>src/types.d.ts</title>
<g id="a_node13"><a xlink:href="https://github.com/sverweij/upem/blob/main/src/types.d.ts" xlink:title="types.d.ts">
<path fill="#ccffcc" stroke="black" d="M68.08,-181.75C68.08,-181.75 25.67,-181.75 25.67,-181.75 22.71,-181.75 19.75,-178.79 19.75,-175.83 19.75,-175.83 19.75,-169.92 19.75,-169.92 19.75,-166.96 22.71,-164 25.67,-164 25.67,-164 68.08,-164 68.08,-164 71.04,-164 74,-166.96 74,-169.92 74,-169.92 74,-175.83 74,-175.83 74,-178.79 71.04,-181.75 68.08,-181.75"/>
<text text-anchor="start" x="27.75" y="-169.2" font-family="Helvetica,sans-Serif" font-size="9.00">types.d.ts</text>
</a>
</g>
</g>
<!-- src/update&#45;manifest.test.ts -->
<g id="node14" class="node">
<title>src/update&#45;manifest.test.ts</title>
<g id="a_node14"><a xlink:href="https://github.com/sverweij/upem/blob/main/src/update-manifest.test.ts" xlink:title="update&#45;manifest.test.ts">
<path fill="#ddfeff" stroke="black" d="M197.21,-211.75C197.21,-211.75 101.54,-211.75 101.54,-211.75 98.58,-211.75 95.62,-208.79 95.62,-205.83 95.62,-205.83 95.62,-199.92 95.62,-199.92 95.62,-196.96 98.58,-194 101.54,-194 101.54,-194 197.21,-194 197.21,-194 200.17,-194 203.12,-196.96 203.12,-199.92 203.12,-199.92 203.12,-205.83 203.12,-205.83 203.12,-208.79 200.17,-211.75 197.21,-211.75"/>
<text text-anchor="start" x="103.62" y="-199.2" font-family="Helvetica,sans-Serif" font-size="9.00">update&#45;manifest.test.ts</text>
</a>
</g>
</g>
<!-- src/update&#45;manifest.test.ts&#45;&gt;assert/strict -->
<g id="edge18" class="edge">
<title>src/update&#45;manifest.test.ts&#45;&gt;assert/strict</title>
<path fill="none" stroke="#000000" stroke-dasharray="5,2" stroke-opacity="0.200000" d="M203.36,-207.31C210.14,-207.31 214.75,-207.31 214.75,-207.31 214.75,-207.31 214.75,-289.92 214.75,-289.92 214.75,-289.92 236.54,-289.92 236.54,-289.92"/>
<polygon fill="#000000" fill-opacity="0.200000" stroke="#000000" stroke-opacity="0.200000" points="236.54,-292.02 242.54,-289.92 236.54,-287.82 236.54,-292.02"/>
</g>
<!-- src/update&#45;manifest.test.ts&#45;&gt;src/determine&#45;policies.ts -->
<g id="edge16" class="edge">
<title>src/update&#45;manifest.test.ts&#45;&gt;src/determine&#45;policies.ts</title>
<path fill="none" stroke="#000000" stroke-width="2" stroke-opacity="0.200000" d="M203.6,-202.88C203.6,-202.88 211.79,-202.88 211.79,-202.88"/>
<polygon fill="#000000" fill-opacity="0.200000" stroke="#000000" stroke-width="2" stroke-opacity="0.200000" points="211.79,-204.98 217.79,-202.88 211.79,-200.78 211.79,-204.98"/>
</g>
<!-- src/update&#45;manifest.test.ts&#45;&gt;test -->
<g id="edge19" class="edge">
<title>src/update&#45;manifest.test.ts&#45;&gt;test</title>
<path fill="none" stroke="#000000" stroke-dasharray="5,2" stroke-opacity="0.200000" d="M195.75,-193.71C195.75,-176.01 195.75,-138.88 195.75,-138.88 195.75,-138.88 236.56,-138.88 236.56,-138.88"/>
<polygon fill="#000000" fill-opacity="0.200000" stroke="#000000" stroke-opacity="0.200000" points="236.56,-140.98 242.56,-138.88 236.56,-136.78 236.56,-140.98"/>
</g>
<!-- src/update&#45;manifest.test.ts&#45;&gt;src/update&#45;manifest.ts -->
<g id="edge17" class="edge">
<title>src/update&#45;manifest.test.ts&#45;&gt;src/update&#45;manifest.ts</title>
<path fill="none" stroke="#000000" stroke-width="2" stroke-opacity="0.200000" d="M199.75,-193.72C199.75,-185.87 199.75,-175.83 199.75,-175.83 199.75,-175.83 216.58,-175.83 216.58,-175.83"/>
<polygon fill="#000000" fill-opacity="0.200000" stroke="#000000" stroke-width="2" stroke-opacity="0.200000" points="216.58,-177.93 222.58,-175.83 216.58,-173.73 216.58,-177.93"/>
</g>
</g>
</svg>
