<?xml version="1.0" encoding="UTF-8" standalone="no"?>
<!DOCTYPE svg PUBLIC "-//W3C//DTD SVG 1.1//EN"
 "http://www.w3.org/Graphics/SVG/1.1/DTD/svg11.dtd">
<!-- Generated by graphviz version 5.0.0 (20220707.1540)
 -->
<!-- Title: dependency&#45;cruiser output Pages: 1 -->
<svg width="358pt" height="244pt"
 viewBox="0.00 0.00 358.00 244.00" xmlns="http://www.w3.org/2000/svg" xmlns:xlink="http://www.w3.org/1999/xlink">
<g id="graph0" class="graph" transform="scale(1 1) rotate(0) translate(4 240)">
<title>dependency&#45;cruiser output</title>
<polygon fill="white" stroke="transparent" points="-4,4 -4,-240 354,-240 354,4 -4,4"/>
<g id="clust1" class="cluster">
<title>cluster_node_modules</title>
<path fill="#ffffff" stroke="black" stroke-width="2" d="M128,-56C128,-56 189,-56 189,-56 195,-56 201,-62 201,-68 201,-68 201,-96 201,-96 201,-102 195,-108 189,-108 189,-108 128,-108 128,-108 122,-108 116,-102 116,-96 116,-96 116,-68 116,-68 116,-62 122,-56 128,-56"/>
<text text-anchor="middle" x="158.5" y="-96.8" font-family="Helvetica,sans-Serif" font-weight="bold" font-size="9.00">node_modules</text>
</g>
<g id="clust2" class="cluster">
<title>cluster_src</title>
<path fill="#ffffff" stroke="black" stroke-width="2" d="M20,-116C20,-116 330,-116 330,-116 336,-116 342,-122 342,-128 342,-128 342,-216 342,-216 342,-222 336,-228 330,-228 330,-228 20,-228 20,-228 14,-228 8,-222 8,-216 8,-216 8,-128 8,-128 8,-122 14,-116 20,-116"/>
<text text-anchor="middle" x="175" y="-216.8" font-family="Helvetica,sans-Serif" font-weight="bold" font-size="9.00">src</text>
</g>
<!-- fs -->
<g id="node1" class="node">
<title>fs</title>
<g id="a_node1"><a xlink:title="fs">
<path fill="#ffffcc" stroke="grey" d="M304.5,-49C304.5,-49 262.5,-49 262.5,-49 259.5,-49 256.5,-46 256.5,-43 256.5,-43 256.5,-37 256.5,-37 256.5,-34 259.5,-31 262.5,-31 262.5,-31 304.5,-31 304.5,-31 307.5,-31 310.5,-34 310.5,-37 310.5,-37 310.5,-43 310.5,-43 310.5,-46 307.5,-49 304.5,-49"/>
<text text-anchor="middle" x="283.5" y="-37.8" font-family="Helvetica,sans-Serif" font-size="9.00" fill="grey">fs</text>
</a>
</g>
</g>
<!-- node_modules/libnpmconfig -->
<g id="node2" class="node">
<title>node_modules/libnpmconfig</title>
<g id="a_node2"><a xlink:href="https://github.com/sverweij/upem/blob/master/node_modules/libnpmconfig" xlink:title="libnpmconfig">
<polygon fill="#c40b0a" fill-opacity="0.101961" stroke="black" points="193,-82 126,-82 124,-80 124,-64 191,-64 193,-66 193,-82"/>
<polyline fill="none" stroke="black" points="191,-80 124,-80 "/>
<polyline fill="none" stroke="black" points="191,-80 191,-64 "/>
<polyline fill="none" stroke="black" points="191,-80 193,-82 "/>
<text text-anchor="start" x="132" y="-70.8" font-family="Helvetica,sans-Serif" font-size="9.00" fill="#c40b0a">libnpmconfig</text>
</a>
</g>
</g>
<!-- path -->
<g id="node3" class="node">
<title>path</title>
<g id="a_node3"><a xlink:title="path">
<path fill="#ffffcc" stroke="grey" d="M179.5,-48C179.5,-48 137.5,-48 137.5,-48 134.5,-48 131.5,-45 131.5,-42 131.5,-42 131.5,-36 131.5,-36 131.5,-33 134.5,-30 137.5,-30 137.5,-30 179.5,-30 179.5,-30 182.5,-30 185.5,-33 185.5,-36 185.5,-36 185.5,-42 185.5,-42 185.5,-45 182.5,-48 179.5,-48"/>
<text text-anchor="middle" x="158.5" y="-36.8" font-family="Helvetica,sans-Serif" font-size="9.00" fill="grey">path</text>
</a>
</g>
</g>
<!-- src/cli.js -->
<g id="node4" class="node">
<title>src/cli.js</title>
<g id="a_node4"><a xlink:href="https://github.com/sverweij/upem/blob/master/src/cli.js" xlink:title="cli.js">
<path fill="#ffffcc" stroke="black" d="M71,-172C71,-172 29,-172 29,-172 26,-172 23,-169 23,-166 23,-166 23,-160 23,-160 23,-157 26,-154 29,-154 29,-154 71,-154 71,-154 74,-154 77,-157 77,-160 77,-160 77,-166 77,-166 77,-169 74,-172 71,-172"/>
<text text-anchor="start" x="40.5" y="-160.8" font-family="Helvetica,sans-Serif" font-size="9.00">cli.js</text>
</a>
</g>
</g>
<!-- src/cli.js&#45;&gt;node_modules/libnpmconfig -->
<g id="edge2" class="edge">
<title>src/cli.js&#45;&gt;node_modules/libnpmconfig</title>
<path fill="none" stroke="#000000" stroke-opacity="0.200000" d="M77.12,-163C84.74,-163 91,-163 91,-163 91,-163 91,-73 91,-73 91,-73 117.96,-73 117.96,-73"/>
<polygon fill="#000000" fill-opacity="0.200000" stroke="#000000" stroke-opacity="0.200000" points="117.96,-75.1 123.96,-73 117.96,-70.9 117.96,-75.1"/>
</g>
<!-- src/cli.js&#45;&gt;path -->
<g id="edge3" class="edge">
<title>src/cli.js&#45;&gt;path</title>
<path fill="none" stroke="#000000" stroke-dasharray="5,2" stroke-opacity="0.200000" d="M77.21,-158.5C83.3,-158.5 88,-158.5 88,-158.5 88,-158.5 88,-42 88,-42 88,-42 125.44,-42 125.44,-42"/>
<polygon fill="#000000" fill-opacity="0.200000" stroke="#000000" stroke-opacity="0.200000" points="125.44,-44.1 131.44,-42 125.44,-39.9 125.44,-44.1"/>
</g>
<!-- src/main.js -->
<g id="node5" class="node">
<title>src/main.js</title>
<g id="a_node5"><a xlink:href="https://github.com/sverweij/upem/blob/master/src/main.js" xlink:title="main.js">
<path fill="#ffffcc" stroke="black" d="M179.5,-142C179.5,-142 137.5,-142 137.5,-142 134.5,-142 131.5,-139 131.5,-136 131.5,-136 131.5,-130 131.5,-130 131.5,-127 134.5,-124 137.5,-124 137.5,-124 179.5,-124 179.5,-124 182.5,-124 185.5,-127 185.5,-130 185.5,-130 185.5,-136 185.5,-136 185.5,-139 182.5,-142 179.5,-142"/>
<text text-anchor="start" x="143.5" y="-130.8" font-family="Helvetica,sans-Serif" font-size="9.00">main.js</text>
</a>
</g>
</g>
<!-- src/cli.js&#45;&gt;src/main.js -->
<g id="edge1" class="edge">
<title>src/cli.js&#45;&gt;src/main.js</title>
<path fill="none" stroke="#000000" stroke-width="2" stroke-opacity="0.200000" d="M77.11,-167.5C86.17,-167.5 94,-167.5 94,-167.5 94,-167.5 94,-136 94,-136 94,-136 125.15,-136 125.15,-136"/>
<polygon fill="#000000" fill-opacity="0.200000" stroke="#000000" stroke-width="2" stroke-opacity="0.200000" points="125.15,-138.1 131.15,-136 125.15,-133.9 125.15,-138.1"/>
</g>
<!-- src/main.js&#45;&gt;fs -->
<g id="edge7" class="edge">
<title>src/main.js&#45;&gt;fs</title>
<path fill="none" stroke="#000000" stroke-dasharray="5,2" stroke-opacity="0.200000" d="M185.66,-127.6C193.99,-127.6 201,-127.6 201,-127.6 201,-127.6 201,-39.5 201,-39.5 201,-39.5 250.49,-39.5 250.49,-39.5"/>
<polygon fill="#000000" fill-opacity="0.200000" stroke="#000000" stroke-opacity="0.200000" points="250.49,-41.6 256.49,-39.5 250.49,-37.4 250.49,-41.6"/>
</g>
<!-- src/determine&#45;policies.js -->
<g id="node6" class="node">
<title>src/determine&#45;policies.js</title>
<g id="a_node6"><a xlink:href="https://github.com/sverweij/upem/blob/master/src/determine-policies.js" xlink:title="determine&#45;policies.js">
<path fill="#ffffcc" stroke="black" d="M328,-172C328,-172 239,-172 239,-172 236,-172 233,-169 233,-166 233,-166 233,-160 233,-160 233,-157 236,-154 239,-154 239,-154 328,-154 328,-154 331,-154 334,-157 334,-160 334,-160 334,-166 334,-166 334,-169 331,-172 328,-172"/>
<text text-anchor="start" x="241" y="-160.8" font-family="Helvetica,sans-Serif" font-size="9.00">determine&#45;policies.js</text>
</a>
</g>
</g>
<!-- src/main.js&#45;&gt;src/determine&#45;policies.js -->
<g id="edge5" class="edge">
<title>src/main.js&#45;&gt;src/determine&#45;policies.js</title>
<path fill="none" stroke="#000000" stroke-width="2" stroke-opacity="0.200000" d="M185.57,-134.8C204.72,-134.8 227,-134.8 227,-134.8 227,-134.8 227,-160 227,-160 227,-160 227.56,-160 227.56,-160"/>
<polygon fill="#000000" fill-opacity="0.200000" stroke="#000000" stroke-width="2" stroke-opacity="0.200000" points="226.62,-162.1 232.62,-160 226.62,-157.9 226.62,-162.1"/>
</g>
<!-- src/update&#45;manifest.js -->
<g id="node8" class="node">
<title>src/update&#45;manifest.js</title>
<g id="a_node8"><a xlink:href="https://github.com/sverweij/upem/blob/master/src/update-manifest.js" xlink:title="update&#45;manifest.js">
<path fill="#ffffcc" stroke="black" d="M323.5,-142C323.5,-142 243.5,-142 243.5,-142 240.5,-142 237.5,-139 237.5,-136 237.5,-136 237.5,-130 237.5,-130 237.5,-127 240.5,-124 243.5,-124 243.5,-124 323.5,-124 323.5,-124 326.5,-124 329.5,-127 329.5,-130 329.5,-130 329.5,-136 329.5,-136 329.5,-139 326.5,-142 323.5,-142"/>
<text text-anchor="start" x="245.5" y="-130.8" font-family="Helvetica,sans-Serif" font-size="9.00">update&#45;manifest.js</text>
</a>
</g>
</g>
<!-- src/main.js&#45;&gt;src/update&#45;manifest.js -->
<g id="edge6" class="edge">
<title>src/main.js&#45;&gt;src/update&#45;manifest.js</title>
<path fill="none" stroke="#000000" stroke-width="2" stroke-opacity="0.200000" d="M185.62,-131.2C185.62,-131.2 231.25,-131.2 231.25,-131.2"/>
<polygon fill="#000000" fill-opacity="0.200000" stroke="#000000" stroke-width="2" stroke-opacity="0.200000" points="231.25,-133.3 237.25,-131.2 231.25,-129.1 231.25,-133.3"/>
</g>
<!-- src/determine&#45;policies.spec.js -->
<g id="node7" class="node">
<title>src/determine&#45;policies.spec.js</title>
<g id="a_node7"><a xlink:href="https://github.com/sverweij/upem/blob/master/src/determine-policies.spec.js" xlink:title="determine&#45;policies.spec.js">
<path fill="#ccccff" stroke="black" d="M214,-202C214,-202 103,-202 103,-202 100,-202 97,-199 97,-196 97,-196 97,-190 97,-190 97,-187 100,-184 103,-184 103,-184 214,-184 214,-184 217,-184 220,-187 220,-190 220,-190 220,-196 220,-196 220,-199 217,-202 214,-202"/>
<text text-anchor="start" x="105" y="-190.8" font-family="Helvetica,sans-Serif" font-size="9.00">determine&#45;policies.spec.js</text>
</a>
</g>
</g>
<!-- src/determine&#45;policies.spec.js&#45;&gt;src/determine&#45;policies.js -->
<g id="edge4" class="edge">
<title>src/determine&#45;policies.spec.js&#45;&gt;src/determine&#45;policies.js</title>
<path fill="none" stroke="#000000" stroke-width="2" stroke-opacity="0.200000" d="M220.15,-193C251.89,-193 284,-193 284,-193 284,-193 284,-178.16 284,-178.16"/>
<polygon fill="#000000" fill-opacity="0.200000" stroke="#000000" stroke-width="2" stroke-opacity="0.200000" points="286.1,-178.16 284,-172.16 281.9,-178.16 286.1,-178.16"/>
</g>
<!-- src/main.spec.js -->
<g id="node9" class="node">
<title>src/main.spec.js</title>
<g id="a_node9"><a xlink:href="https://github.com/sverweij/upem/blob/master/src/main.spec.js" xlink:title="main.spec.js">
<path fill="#ccccff" stroke="black" d="M78,-142C78,-142 22,-142 22,-142 19,-142 16,-139 16,-136 16,-136 16,-130 16,-130 16,-127 19,-124 22,-124 22,-124 78,-124 78,-124 81,-124 84,-127 84,-130 84,-130 84,-136 84,-136 84,-139 81,-142 78,-142"/>
<text text-anchor="start" x="24" y="-130.8" font-family="Helvetica,sans-Serif" font-size="9.00">main.spec.js</text>
</a>
</g>
</g>
<!-- src/main.spec.js&#45;&gt;fs -->
<g id="edge9" class="edge">
<title>src/main.spec.js&#45;&gt;fs</title>
<path fill="none" stroke="#000000" stroke-dasharray="5,2" stroke-opacity="0.200000" d="M67,-123.92C67,-103.66 67,-56.5 67,-56.5 67,-56.5 284,-56.5 284,-56.5 284,-56.5 284,-55.02 284,-55.02"/>
<polygon fill="#000000" fill-opacity="0.200000" stroke="#000000" stroke-opacity="0.200000" points="286.1,-55.02 284,-49.02 281.9,-55.02 286.1,-55.02"/>
</g>
<!-- src/main.spec.js&#45;&gt;path -->
<g id="edge10" class="edge">
<title>src/main.spec.js&#45;&gt;path</title>
<path fill="none" stroke="#000000" stroke-dasharray="5,2" stroke-opacity="0.200000" d="M50,-123.7C50,-99.42 50,-36 50,-36 50,-36 125.4,-36 125.4,-36"/>
<polygon fill="#000000" fill-opacity="0.200000" stroke="#000000" stroke-opacity="0.200000" points="125.4,-38.1 131.4,-36 125.4,-33.9 125.4,-38.1"/>
</g>
<!-- src/main.spec.js&#45;&gt;src/main.js -->
<g id="edge8" class="edge">
<title>src/main.spec.js&#45;&gt;src/main.js</title>
<path fill="none" stroke="#000000" stroke-width="2" stroke-opacity="0.200000" d="M84.03,-130C84.03,-130 125.47,-130 125.47,-130"/>
<polygon fill="#000000" fill-opacity="0.200000" stroke="#000000" stroke-width="2" stroke-opacity="0.200000" points="125.47,-132.1 131.47,-130 125.47,-127.9 125.47,-132.1"/>
</g>
<!-- url -->
<g id="node10" class="node">
<title>url</title>
<g id="a_node10"><a xlink:title="url">
<path fill="#ffffcc" stroke="grey" d="M179.5,-18C179.5,-18 137.5,-18 137.5,-18 134.5,-18 131.5,-15 131.5,-12 131.5,-12 131.5,-6 131.5,-6 131.5,-3 134.5,0 137.5,0 137.5,0 179.5,0 179.5,0 182.5,0 185.5,-3 185.5,-6 185.5,-6 185.5,-12 185.5,-12 185.5,-15 182.5,-18 179.5,-18"/>
<text text-anchor="middle" x="158.5" y="-6.8" font-family="Helvetica,sans-Serif" font-size="9.00" fill="grey">url</text>
</a>
</g>
</g>
<!-- src/main.spec.js&#45;&gt;url -->
<g id="edge11" class="edge">
<title>src/main.spec.js&#45;&gt;url</title>
<path fill="none" stroke="#000000" stroke-dasharray="5,2" stroke-opacity="0.200000" d="M33,-123.68C33,-94.84 33,-9 33,-9 33,-9 125.27,-9 125.27,-9"/>
<polygon fill="#000000" fill-opacity="0.200000" stroke="#000000" stroke-opacity="0.200000" points="125.27,-11.1 131.27,-9 125.27,-6.9 125.27,-11.1"/>
</g>
<!-- src/update&#45;manifest.spec.js -->
<g id="node11" class="node">
<title>src/update&#45;manifest.spec.js</title>
<g id="a_node11"><a xlink:href="https://github.com/sverweij/upem/blob/master/src/update-manifest.spec.js" xlink:title="update&#45;manifest.spec.js">
<path fill="#ccccff" stroke="black" d="M209,-172C209,-172 108,-172 108,-172 105,-172 102,-169 102,-166 102,-166 102,-160 102,-160 102,-157 105,-154 108,-154 108,-154 209,-154 209,-154 212,-154 215,-157 215,-160 215,-160 215,-166 215,-166 215,-169 212,-172 209,-172"/>
<text text-anchor="start" x="110" y="-160.8" font-family="Helvetica,sans-Serif" font-size="9.00">update&#45;manifest.spec.js</text>
</a>
</g>
</g>
<!-- src/update&#45;manifest.spec.js&#45;&gt;src/determine&#45;policies.js -->
<g id="edge12" class="edge">
<title>src/update&#45;manifest.spec.js&#45;&gt;src/determine&#45;policies.js</title>
<path fill="none" stroke="#000000" stroke-width="2" stroke-opacity="0.200000" d="M215.15,-166C215.15,-166 226.97,-166 226.97,-166"/>
<polygon fill="#000000" fill-opacity="0.200000" stroke="#000000" stroke-width="2" stroke-opacity="0.200000" points="226.97,-168.1 232.97,-166 226.97,-163.9 226.97,-168.1"/>
</g>
<!-- src/update&#45;manifest.spec.js&#45;&gt;src/update&#45;manifest.js -->
<g id="edge13" class="edge">
<title>src/update&#45;manifest.spec.js&#45;&gt;src/update&#45;manifest.js</title>
<path fill="none" stroke="#000000" stroke-width="2" stroke-opacity="0.200000" d="M208,-153.84C208,-146.85 208,-138.4 208,-138.4 208,-138.4 231.41,-138.4 231.41,-138.4"/>
<polygon fill="#000000" fill-opacity="0.200000" stroke="#000000" stroke-width="2" stroke-opacity="0.200000" points="231.41,-140.5 237.41,-138.4 231.41,-136.3 231.41,-140.5"/>
</g>
</g>
</svg>
