<?xml version="1.0" encoding="UTF-8" standalone="no"?>
<!DOCTYPE svg PUBLIC "-//W3C//DTD SVG 1.1//EN"
 "http://www.w3.org/Graphics/SVG/1.1/DTD/svg11.dtd">
<!-- Generated by graphviz version 2.43.0 (0)
 -->
<!-- Title: dependency&#45;cruiser output Pages: 1 -->
<svg width="345pt" height="175pt"
 viewBox="0.00 0.00 345.03 174.50" xmlns="http://www.w3.org/2000/svg" xmlns:xlink="http://www.w3.org/1999/xlink">
<g id="graph0" class="graph" transform="scale(1 1) rotate(0) translate(4 170.5)">
<title>dependency&#45;cruiser output</title>
<polygon fill="white" stroke="transparent" points="-4,4 -4,-170.5 341.03,-170.5 341.03,4 -4,4"/>
<g id="clust1" class="cluster">
<title>cluster_bin</title>
<path fill="#ffffff" stroke="black" stroke-width="2" d="M20,-19.5C20,-19.5 66,-19.5 66,-19.5 72,-19.5 78,-25.5 78,-31.5 78,-31.5 78,-58.5 78,-58.5 78,-64.5 72,-70.5 66,-70.5 66,-70.5 20,-70.5 20,-70.5 14,-70.5 8,-64.5 8,-58.5 8,-58.5 8,-31.5 8,-31.5 8,-25.5 14,-19.5 20,-19.5"/>
<text text-anchor="middle" x="43" y="-59.3" font-family="Helvetica,sans-Serif" font-weight="bold" font-size="9.00">bin</text>
</g>
<g id="clust2" class="cluster">
<title>cluster_node_modules</title>
<path fill="#ffffff" stroke="black" stroke-width="2" d="M243,-20.5C243,-20.5 317.03,-20.5 317.03,-20.5 323.03,-20.5 329.03,-26.5 329.03,-32.5 329.03,-32.5 329.03,-146.5 329.03,-146.5 329.03,-152.5 323.03,-158.5 317.03,-158.5 317.03,-158.5 243,-158.5 243,-158.5 237,-158.5 231,-152.5 231,-146.5 231,-146.5 231,-32.5 231,-32.5 231,-26.5 237,-20.5 243,-20.5"/>
<text text-anchor="middle" x="280.02" y="-147.3" font-family="Helvetica,sans-Serif" font-weight="bold" font-size="9.00">node_modules</text>
</g>
<g id="clust3" class="cluster">
<title>cluster_src</title>
<path fill="#ffffff" stroke="black" stroke-width="2" d="M98,-107.5C98,-107.5 211,-107.5 211,-107.5 217,-107.5 223,-113.5 223,-119.5 223,-119.5 223,-146.5 223,-146.5 223,-152.5 217,-158.5 211,-158.5 211,-158.5 98,-158.5 98,-158.5 92,-158.5 86,-152.5 86,-146.5 86,-146.5 86,-119.5 86,-119.5 86,-113.5 92,-107.5 98,-107.5"/>
<text text-anchor="middle" x="154.5" y="-147.3" font-family="Helvetica,sans-Serif" font-weight="bold" font-size="9.00">src</text>
</g>
<!-- bin/upem.js -->
<g id="node1" class="node">
<title>bin/upem.js</title>
<g id="a_node1"><a xlink:href="https://github.com/sverweij/upem/blob/master/bin/upem.js" xlink:title="upem.js">
<path fill="#ffffcc" stroke="black" d="M64.33,-45C64.33,-45 21.67,-45 21.67,-45 18.83,-45 16,-42.17 16,-39.33 16,-39.33 16,-33.67 16,-33.67 16,-30.83 18.83,-28 21.67,-28 21.67,-28 64.33,-28 64.33,-28 67.17,-28 70,-30.83 70,-33.67 70,-33.67 70,-39.33 70,-39.33 70,-42.17 67.17,-45 64.33,-45"/>
<text text-anchor="middle" x="43" y="-33.8" font-family="Helvetica,sans-Serif" font-size="9.00">upem.js</text>
</a>
</g>
</g>
<!-- src/index.js -->
<g id="node2" class="node">
<title>src/index.js</title>
<g id="a_node2"><a xlink:href="https://github.com/sverweij/upem/blob/master/src/index.js" xlink:title="index.js">
<path fill="#ffffcc" stroke="black" d="M142.33,-133C142.33,-133 99.67,-133 99.67,-133 96.83,-133 94,-130.17 94,-127.33 94,-127.33 94,-121.67 94,-121.67 94,-118.83 96.83,-116 99.67,-116 99.67,-116 142.33,-116 142.33,-116 145.17,-116 148,-118.83 148,-121.67 148,-121.67 148,-127.33 148,-127.33 148,-130.17 145.17,-133 142.33,-133"/>
<text text-anchor="middle" x="121" y="-121.8" font-family="Helvetica,sans-Serif" font-size="9.00">index.js</text>
</a>
</g>
</g>
<!-- bin/upem.js&#45;&gt;src/index.js -->
<g id="edge1" class="edge">
<title>bin/upem.js&#45;&gt;src/index.js</title>
<path fill="none" stroke="#000000" stroke-width="2" stroke-opacity="0.200000" d="M51.57,-45.26C64.88,-60.68 92.59,-92.76 108.36,-111.02"/>
<polygon fill="#000000" fill-opacity="0.200000" stroke="#000000" stroke-width="2" stroke-opacity="0.200000" points="106.95,-112.61 112.47,-115.78 110.13,-109.86 106.95,-112.61"/>
</g>
<!-- node_modules/get&#45;stdin -->
<g id="node3" class="node">
<title>node_modules/get&#45;stdin</title>
<g id="a_node3"><a xlink:href="https://github.com/sverweij/upem/blob/master/node_modules/get-stdin" xlink:title="get&#45;stdin">
<polygon fill="#c40b0a" fill-opacity="0.101961" stroke="black" points="307.02,-75 254.91,-75 253.02,-73.11 253.02,-58 305.13,-58 307.02,-59.89 307.02,-75"/>
<polyline fill="none" stroke="black" points="305.13,-73.11 253.02,-73.11 "/>
<polyline fill="none" stroke="black" points="305.13,-73.11 305.13,-58 "/>
<polyline fill="none" stroke="black" points="305.13,-73.11 307.02,-75 "/>
<text text-anchor="middle" x="280.02" y="-63.8" font-family="Helvetica,sans-Serif" font-size="9.00" fill="#c40b0a">get&#45;stdin</text>
</a>
</g>
</g>
<!-- bin/upem.js&#45;&gt;node_modules/get&#45;stdin -->
<g id="edge2" class="edge">
<title>bin/upem.js&#45;&gt;node_modules/get&#45;stdin</title>
<path fill="none" stroke="#000000" stroke-dasharray="5,2" stroke-opacity="0.200000" d="M70.1,-43.27C75.34,-44.47 80.83,-45.62 86,-46.5 142.04,-56.03 208.06,-61.69 246.56,-64.44"/>
<polygon fill="#000000" fill-opacity="0.200000" stroke="#000000" stroke-opacity="0.200000" points="246.83,-66.56 252.96,-64.88 247.12,-62.37 246.83,-66.56"/>
</g>
<!-- node_modules/libnpmconfig -->
<g id="node4" class="node">
<title>node_modules/libnpmconfig</title>
<g id="a_node4"><a xlink:href="https://github.com/sverweij/upem/blob/master/node_modules/libnpmconfig" xlink:title="libnpmconfig">
<polygon fill="#c40b0a" fill-opacity="0.101961" stroke="black" points="313.05,-46 248.88,-46 246.99,-44.11 246.99,-29 311.16,-29 313.05,-30.89 313.05,-46"/>
<polyline fill="none" stroke="black" points="311.16,-44.11 246.99,-44.11 "/>
<polyline fill="none" stroke="black" points="311.16,-44.11 311.16,-29 "/>
<polyline fill="none" stroke="black" points="311.16,-44.11 313.05,-46 "/>
<text text-anchor="middle" x="280.02" y="-34.8" font-family="Helvetica,sans-Serif" font-size="9.00" fill="#c40b0a">libnpmconfig</text>
</a>
</g>
</g>
<!-- bin/upem.js&#45;&gt;node_modules/libnpmconfig -->
<g id="edge3" class="edge">
<title>bin/upem.js&#45;&gt;node_modules/libnpmconfig</title>
<path fill="none" stroke="#000000" stroke-dasharray="5,2" stroke-opacity="0.200000" d="M70.05,-36.61C111.45,-36.79 192.5,-37.13 240.59,-37.34"/>
<polygon fill="#000000" fill-opacity="0.200000" stroke="#000000" stroke-opacity="0.200000" points="240.85,-39.44 246.86,-37.36 240.87,-35.24 240.85,-39.44"/>
</g>
<!-- path -->
<g id="node5" class="node">
<title>path</title>
<path fill="#ffffcc" stroke="grey" d="M142.33,-17C142.33,-17 99.67,-17 99.67,-17 96.83,-17 94,-14.17 94,-11.33 94,-11.33 94,-5.67 94,-5.67 94,-2.83 96.83,0 99.67,0 99.67,0 142.33,0 142.33,0 145.17,0 148,-2.83 148,-5.67 148,-5.67 148,-11.33 148,-11.33 148,-14.17 145.17,-17 142.33,-17"/>
<text text-anchor="middle" x="121" y="-5.8" font-family="Helvetica,sans-Serif" font-size="9.00" fill="grey">path</text>
</g>
<!-- bin/upem.js&#45;&gt;path -->
<g id="edge4" class="edge">
<title>bin/upem.js&#45;&gt;path</title>
<path fill="none" stroke="#000000" stroke-dasharray="5,2" stroke-opacity="0.200000" d="M67.22,-27.95C74.73,-25.18 83.16,-22.07 91.03,-19.17"/>
<polygon fill="#000000" fill-opacity="0.200000" stroke="#000000" stroke-opacity="0.200000" points="92.02,-21.05 96.93,-17 90.57,-17.1 92.02,-21.05"/>
</g>
<!-- fs -->
<g id="node6" class="node">
<title>fs</title>
<path fill="#ffffcc" stroke="grey" d="M209.33,-99C209.33,-99 166.67,-99 166.67,-99 163.83,-99 161,-96.17 161,-93.33 161,-93.33 161,-87.67 161,-87.67 161,-84.83 163.83,-82 166.67,-82 166.67,-82 209.33,-82 209.33,-82 212.17,-82 215,-84.83 215,-87.67 215,-87.67 215,-93.33 215,-93.33 215,-96.17 212.17,-99 209.33,-99"/>
<text text-anchor="middle" x="188" y="-87.8" font-family="Helvetica,sans-Serif" font-size="9.00" fill="grey">fs</text>
</g>
<!-- src/index.js&#45;&gt;fs -->
<g id="edge8" class="edge">
<title>src/index.js&#45;&gt;fs</title>
<path fill="none" stroke="#000000" stroke-dasharray="5,2" stroke-opacity="0.200000" d="M138.4,-115.92C146.35,-111.76 156.01,-106.71 164.62,-102.21"/>
<polygon fill="#000000" fill-opacity="0.200000" stroke="#000000" stroke-opacity="0.200000" points="166.03,-103.84 170.38,-99.2 164.09,-100.12 166.03,-103.84"/>
</g>
<!-- src/core.js -->
<g id="node9" class="node">
<title>src/core.js</title>
<g id="a_node9"><a xlink:href="https://github.com/sverweij/upem/blob/master/src/core.js" xlink:title="core.js">
<path fill="#ffffcc" stroke="black" d="M209.33,-133C209.33,-133 166.67,-133 166.67,-133 163.83,-133 161,-130.17 161,-127.33 161,-127.33 161,-121.67 161,-121.67 161,-118.83 163.83,-116 166.67,-116 166.67,-116 209.33,-116 209.33,-116 212.17,-116 215,-118.83 215,-121.67 215,-121.67 215,-127.33 215,-127.33 215,-130.17 212.17,-133 209.33,-133"/>
<text text-anchor="middle" x="188" y="-121.8" font-family="Helvetica,sans-Serif" font-size="9.00">core.js</text>
</a>
</g>
</g>
<!-- src/index.js&#45;&gt;src/core.js -->
<g id="edge7" class="edge">
<title>src/index.js&#45;&gt;src/core.js</title>
<path fill="none" stroke="#000000" stroke-width="2" stroke-opacity="0.200000" d="M148.06,-124.5C150.32,-124.5 152.61,-124.5 154.9,-124.5"/>
<polygon fill="#000000" fill-opacity="0.200000" stroke="#000000" stroke-width="2" stroke-opacity="0.200000" points="154.93,-126.6 160.93,-124.5 154.93,-122.4 154.93,-126.6"/>
</g>
<!-- node_modules/lodash.castarray -->
<g id="node7" class="node">
<title>node_modules/lodash.castarray</title>
<g id="a_node7"><a xlink:href="https://github.com/sverweij/upem/blob/master/node_modules/lodash.castarray" xlink:title="lodash.castarray">
<polygon fill="#c40b0a" fill-opacity="0.101961" stroke="black" points="321.05,-133 240.87,-133 238.98,-131.11 238.98,-116 319.16,-116 321.05,-117.89 321.05,-133"/>
<polyline fill="none" stroke="black" points="319.16,-131.11 238.98,-131.11 "/>
<polyline fill="none" stroke="black" points="319.16,-131.11 319.16,-116 "/>
<polyline fill="none" stroke="black" points="319.16,-131.11 321.05,-133 "/>
<text text-anchor="middle" x="280.02" y="-121.8" font-family="Helvetica,sans-Serif" font-size="9.00" fill="#c40b0a">lodash.castarray</text>
</a>
</g>
</g>
<!-- node_modules/lodash.get -->
<g id="node8" class="node">
<title>node_modules/lodash.get</title>
<g id="a_node8"><a xlink:href="https://github.com/sverweij/upem/blob/master/node_modules/lodash.get" xlink:title="lodash.get">
<polygon fill="#c40b0a" fill-opacity="0.101961" stroke="black" points="308.55,-104 253.37,-104 251.48,-102.11 251.48,-87 306.66,-87 308.55,-88.89 308.55,-104"/>
<polyline fill="none" stroke="black" points="306.66,-102.11 251.48,-102.11 "/>
<polyline fill="none" stroke="black" points="306.66,-102.11 306.66,-87 "/>
<polyline fill="none" stroke="black" points="306.66,-102.11 308.55,-104 "/>
<text text-anchor="middle" x="280.02" y="-92.8" font-family="Helvetica,sans-Serif" font-size="9.00" fill="#c40b0a">lodash.get</text>
</a>
</g>
</g>
<!-- src/core.js&#45;&gt;node_modules/lodash.castarray -->
<g id="edge5" class="edge">
<title>src/core.js&#45;&gt;node_modules/lodash.castarray</title>
<path fill="none" stroke="#000000" stroke-dasharray="5,2" stroke-opacity="0.200000" d="M215.04,-124.5C220.64,-124.5 226.73,-124.5 232.85,-124.5"/>
<polygon fill="#000000" fill-opacity="0.200000" stroke="#000000" stroke-opacity="0.200000" points="232.96,-126.6 238.96,-124.5 232.96,-122.4 232.96,-126.6"/>
</g>
<!-- src/core.js&#45;&gt;node_modules/lodash.get -->
<g id="edge6" class="edge">
<title>src/core.js&#45;&gt;node_modules/lodash.get</title>
<path fill="none" stroke="#000000" stroke-dasharray="5,2" stroke-opacity="0.200000" d="M214.29,-115.98C219.79,-114.15 225.59,-112.25 231,-110.5 235.62,-109.01 240.49,-107.46 245.29,-105.95"/>
<polygon fill="#000000" fill-opacity="0.200000" stroke="#000000" stroke-opacity="0.200000" points="246.22,-107.86 251.31,-104.06 244.96,-103.85 246.22,-107.86"/>
</g>
</g>
</svg>
