<?xml version="1.0" encoding="UTF-8" standalone="no"?>
<!DOCTYPE svg PUBLIC "-//W3C//DTD SVG 1.1//EN"
 "http://www.w3.org/Graphics/SVG/1.1/DTD/svg11.dtd">
<!-- Generated by graphviz version 2.40.1 (20161225.0304)
 -->
<!-- Title: dependency&#45;cruiser output Pages: 1 -->
<svg width="411pt" height="147pt"
 viewBox="0.00 0.00 411.02 146.50" xmlns="http://www.w3.org/2000/svg" xmlns:xlink="http://www.w3.org/1999/xlink">
<g id="graph0" class="graph" transform="scale(1 1) rotate(0) translate(4 142.5)">
<title>dependency&#45;cruiser output</title>
<polygon fill="#ffffff" stroke="transparent" points="-4,4 -4,-142.5 407.0186,-142.5 407.0186,4 -4,4"/>
<g id="clust1" class="cluster">
<title>cluster_/bin</title>
<path fill="none" stroke="#000000" stroke-width="2" d="M20,-54.5C20,-54.5 66,-54.5 66,-54.5 72,-54.5 78,-60.5 78,-66.5 78,-66.5 78,-93.5 78,-93.5 78,-99.5 72,-105.5 66,-105.5 66,-105.5 20,-105.5 20,-105.5 14,-105.5 8,-99.5 8,-93.5 8,-93.5 8,-66.5 8,-66.5 8,-60.5 14,-54.5 20,-54.5"/>
<text text-anchor="middle" x="43" y="-94.3" font-family="Helvetica,sans-Serif" font-weight="bold" font-size="9.00" fill="#000000">bin</text>
</g>
<g id="clust2" class="cluster">
<title>cluster_/node_modules</title>
<path fill="none" stroke="#000000" stroke-width="2" d="M321.0186,-46.5C321.0186,-46.5 383.0186,-46.5 383.0186,-46.5 389.0186,-46.5 395.0186,-52.5 395.0186,-58.5 395.0186,-58.5 395.0186,-118.5 395.0186,-118.5 395.0186,-124.5 389.0186,-130.5 383.0186,-130.5 383.0186,-130.5 321.0186,-130.5 321.0186,-130.5 315.0186,-130.5 309.0186,-124.5 309.0186,-118.5 309.0186,-118.5 309.0186,-58.5 309.0186,-58.5 309.0186,-52.5 315.0186,-46.5 321.0186,-46.5"/>
<text text-anchor="middle" x="352.0186" y="-119.3" font-family="Helvetica,sans-Serif" font-weight="bold" font-size="9.00" fill="#000000">node_modules</text>
</g>
<g id="clust3" class="cluster">
<title>cluster_/node_modules/lodash.get</title>
<path fill="none" stroke="#000000" stroke-width="2" d="M329.0186,-54.5C329.0186,-54.5 375.0186,-54.5 375.0186,-54.5 381.0186,-54.5 387.0186,-60.5 387.0186,-66.5 387.0186,-66.5 387.0186,-93.5 387.0186,-93.5 387.0186,-99.5 381.0186,-105.5 375.0186,-105.5 375.0186,-105.5 329.0186,-105.5 329.0186,-105.5 323.0186,-105.5 317.0186,-99.5 317.0186,-93.5 317.0186,-93.5 317.0186,-66.5 317.0186,-66.5 317.0186,-60.5 323.0186,-54.5 329.0186,-54.5"/>
<text text-anchor="middle" x="352.0186" y="-94.3" font-family="Helvetica,sans-Serif" font-weight="bold" font-size="9.00" fill="#000000">lodash.get</text>
</g>
<g id="clust4" class="cluster">
<title>cluster_/src</title>
<path fill="none" stroke="#000000" stroke-width="2" d="M110,-25.5C110,-25.5 285.0186,-25.5 285.0186,-25.5 291.0186,-25.5 297.0186,-31.5 297.0186,-37.5 297.0186,-37.5 297.0186,-93.5 297.0186,-93.5 297.0186,-99.5 291.0186,-105.5 285.0186,-105.5 285.0186,-105.5 110,-105.5 110,-105.5 104,-105.5 98,-99.5 98,-93.5 98,-93.5 98,-37.5 98,-37.5 98,-31.5 104,-25.5 110,-25.5"/>
<text text-anchor="middle" x="197.5093" y="-94.3" font-family="Helvetica,sans-Serif" font-weight="bold" font-size="9.00" fill="#000000">src</text>
</g>
<!-- bin/upem.js -->
<g id="node1" class="node">
<title>bin/upem.js</title>
<g id="a_node1"><a xlink:href="https:/github.com/sverweij/upem/blob/develop/bin/upem.js" xlink:title="upem.js">
<path fill="#ffffcc" stroke="#000000" d="M64.3333,-80C64.3333,-80 21.6667,-80 21.6667,-80 18.8333,-80 16,-77.1667 16,-74.3333 16,-74.3333 16,-68.6667 16,-68.6667 16,-65.8333 18.8333,-63 21.6667,-63 21.6667,-63 64.3333,-63 64.3333,-63 67.1667,-63 70,-65.8333 70,-68.6667 70,-68.6667 70,-74.3333 70,-74.3333 70,-77.1667 67.1667,-80 64.3333,-80"/>
<text text-anchor="middle" x="43" y="-68.8" font-family="Helvetica,sans-Serif" font-size="9.00" fill="#000000">upem.js</text>
</a>
</g>
</g>
<!-- path -->
<g id="node4" class="node">
<title>path</title>
<path fill="#ffffcc" stroke="#c0c0c0" d="M173.8426,-131C173.8426,-131 131.1759,-131 131.1759,-131 128.3426,-131 125.5093,-128.1667 125.5093,-125.3333 125.5093,-125.3333 125.5093,-119.6667 125.5093,-119.6667 125.5093,-116.8333 128.3426,-114 131.1759,-114 131.1759,-114 173.8426,-114 173.8426,-114 176.6759,-114 179.5093,-116.8333 179.5093,-119.6667 179.5093,-119.6667 179.5093,-125.3333 179.5093,-125.3333 179.5093,-128.1667 176.6759,-131 173.8426,-131"/>
<text text-anchor="middle" x="152.5093" y="-119.8" font-family="Helvetica,sans-Serif" font-size="9.00" fill="#c0c0c0">path</text>
</g>
<!-- bin/upem.js&#45;&gt;path -->
<g id="edge3" class="edge">
<title>bin/upem.js&#45;&gt;path</title>
<path fill="none" stroke="#c0c0c0" d="M53.3151,-80.0268C63.9161,-88.3931 81.2007,-100.9617 98,-108.5 103.4822,-110.96 109.4763,-113.0461 115.4199,-114.7958"/>
<polygon fill="#c0c0c0" stroke="#c0c0c0" points="114.7109,-118.2291 125.2756,-117.4297 116.5183,-111.4665 114.7109,-118.2291"/>
</g>
<!-- src/index.js -->
<g id="node6" class="node">
<title>src/index.js</title>
<g id="a_node6"><a xlink:href="https:/github.com/sverweij/upem/blob/develop/src/index.js" xlink:title="index.js">
<path fill="#ffffcc" stroke="#000000" d="M173.8426,-80C173.8426,-80 131.1759,-80 131.1759,-80 128.3426,-80 125.5093,-77.1667 125.5093,-74.3333 125.5093,-74.3333 125.5093,-68.6667 125.5093,-68.6667 125.5093,-65.8333 128.3426,-63 131.1759,-63 131.1759,-63 173.8426,-63 173.8426,-63 176.6759,-63 179.5093,-65.8333 179.5093,-68.6667 179.5093,-68.6667 179.5093,-74.3333 179.5093,-74.3333 179.5093,-77.1667 176.6759,-80 173.8426,-80"/>
<text text-anchor="middle" x="152.5093" y="-68.8" font-family="Helvetica,sans-Serif" font-size="9.00" fill="#000000">index.js</text>
</a>
</g>
</g>
<!-- bin/upem.js&#45;&gt;src/index.js -->
<g id="edge1" class="edge">
<title>bin/upem.js&#45;&gt;src/index.js</title>
<path fill="none" stroke="#000000" d="M70.0697,-71.5C83.6269,-71.5 100.257,-71.5 115.0212,-71.5"/>
<polygon fill="#000000" stroke="#000000" points="115.3715,-75.0001 125.3714,-71.5 115.3714,-68.0001 115.3715,-75.0001"/>
</g>
<!-- src/readFromStream.js -->
<g id="node7" class="node">
<title>src/readFromStream.js</title>
<g id="a_node7"><a xlink:href="https:/github.com/sverweij/upem/blob/develop/src/readFromStream.js" xlink:title="readFromStream.js">
<path fill="#ffffcc" stroke="#000000" d="M193.3612,-51C193.3612,-51 111.6574,-51 111.6574,-51 108.8241,-51 105.9907,-48.1667 105.9907,-45.3333 105.9907,-45.3333 105.9907,-39.6667 105.9907,-39.6667 105.9907,-36.8333 108.8241,-34 111.6574,-34 111.6574,-34 193.3612,-34 193.3612,-34 196.1945,-34 199.0278,-36.8333 199.0278,-39.6667 199.0278,-39.6667 199.0278,-45.3333 199.0278,-45.3333 199.0278,-48.1667 196.1945,-51 193.3612,-51"/>
<text text-anchor="middle" x="152.5093" y="-39.8" font-family="Helvetica,sans-Serif" font-size="9.00" fill="#000000">readFromStream.js</text>
</a>
</g>
</g>
<!-- bin/upem.js&#45;&gt;src/readFromStream.js -->
<g id="edge2" class="edge">
<title>bin/upem.js&#45;&gt;src/readFromStream.js</title>
<path fill="none" stroke="#000000" d="M70.0697,-64.3315C82.183,-61.1236 96.7495,-57.2662 110.2463,-53.692"/>
<polygon fill="#000000" stroke="#000000" points="111.5298,-56.9728 120.3006,-51.0294 109.7378,-50.2061 111.5298,-56.9728"/>
</g>
<!-- fs -->
<g id="node2" class="node">
<title>fs</title>
<path fill="#ffffcc" stroke="#c0c0c0" d="M283.3519,-17C283.3519,-17 240.6852,-17 240.6852,-17 237.8519,-17 235.0186,-14.1667 235.0186,-11.3333 235.0186,-11.3333 235.0186,-5.6667 235.0186,-5.6667 235.0186,-2.8333 237.8519,0 240.6852,0 240.6852,0 283.3519,0 283.3519,0 286.1852,0 289.0186,-2.8333 289.0186,-5.6667 289.0186,-5.6667 289.0186,-11.3333 289.0186,-11.3333 289.0186,-14.1667 286.1852,-17 283.3519,-17"/>
<text text-anchor="middle" x="262.0186" y="-5.8" font-family="Helvetica,sans-Serif" font-size="9.00" fill="#c0c0c0">fs</text>
</g>
<!-- node_modules/lodash.get/index.js -->
<g id="node3" class="node">
<title>node_modules/lodash.get/index.js</title>
<g id="a_node3"><a xlink:href="https:/github.com/sverweij/upem/blob/develop/node_modules/lodash.get/index.js" xlink:title="index.js">
<polygon fill="#c40b0a" stroke="#000000" points="379.0186,-80 377.6019,-81.8889 367.6852,-81.8889 366.2686,-80 325.0186,-80 325.0186,-63 379.0186,-63 379.0186,-80"/>
<text text-anchor="middle" x="352.0186" y="-68.8" font-family="Helvetica,sans-Serif" font-size="9.00" fill="#ffffff">index.js</text>
</a>
</g>
</g>
<!-- src/core.js -->
<g id="node5" class="node">
<title>src/core.js</title>
<g id="a_node5"><a xlink:href="https:/github.com/sverweij/upem/blob/develop/src/core.js" xlink:title="core.js">
<path fill="#ffffcc" stroke="#000000" d="M283.3519,-80C283.3519,-80 240.6852,-80 240.6852,-80 237.8519,-80 235.0186,-77.1667 235.0186,-74.3333 235.0186,-74.3333 235.0186,-68.6667 235.0186,-68.6667 235.0186,-65.8333 237.8519,-63 240.6852,-63 240.6852,-63 283.3519,-63 283.3519,-63 286.1852,-63 289.0186,-65.8333 289.0186,-68.6667 289.0186,-68.6667 289.0186,-74.3333 289.0186,-74.3333 289.0186,-77.1667 286.1852,-80 283.3519,-80"/>
<text text-anchor="middle" x="262.0186" y="-68.8" font-family="Helvetica,sans-Serif" font-size="9.00" fill="#000000">core.js</text>
</a>
</g>
</g>
<!-- src/core.js&#45;&gt;node_modules/lodash.get/index.js -->
<g id="edge4" class="edge">
<title>src/core.js&#45;&gt;node_modules/lodash.get/index.js</title>
<path fill="none" stroke="#000000" d="M289.0215,-71.5C297.0462,-71.5 305.9851,-71.5 314.5494,-71.5"/>
<polygon fill="#000000" stroke="#000000" points="314.7236,-75.0001 324.7236,-71.5 314.7235,-68.0001 314.7236,-75.0001"/>
</g>
<!-- src/index.js&#45;&gt;fs -->
<g id="edge6" class="edge">
<title>src/index.js&#45;&gt;fs</title>
<path fill="none" stroke="#c0c0c0" d="M179.9873,-65.598C186.4822,-63.5711 193.2044,-60.9211 199.0186,-57.5 218.2515,-46.1832 216.9194,-35.5536 235.0186,-22.5 235.1015,-22.4402 235.1848,-22.3804 235.2683,-22.3208"/>
<polygon fill="#c0c0c0" stroke="#c0c0c0" points="236.9469,-25.399 243.5769,-17.135 233.2405,-19.4607 236.9469,-25.399"/>
</g>
<!-- src/index.js&#45;&gt;src/core.js -->
<g id="edge5" class="edge">
<title>src/index.js&#45;&gt;src/core.js</title>
<path fill="none" stroke="#000000" d="M179.579,-71.5C193.1362,-71.5 209.7663,-71.5 224.5305,-71.5"/>
<polygon fill="#000000" stroke="#000000" points="224.8808,-75.0001 234.8807,-71.5 224.8807,-68.0001 224.8808,-75.0001"/>
</g>
</g>
</svg>
