<?xml version="1.0" encoding="UTF-8" standalone="no"?>
<!DOCTYPE svg PUBLIC "-//W3C//DTD SVG 1.1//EN"
 "http://www.w3.org/Graphics/SVG/1.1/DTD/svg11.dtd">
<!-- Generated by graphviz version 5.0.0 (20220707.1540)
 -->
<!-- Title: dependency&#45;cruiser output Pages: 1 -->
<svg width="358pt" height="280pt"
 viewBox="0.00 0.00 358.00 280.00" xmlns="http://www.w3.org/2000/svg" xmlns:xlink="http://www.w3.org/1999/xlink">
<g id="graph0" class="graph" transform="scale(1 1) rotate(0) translate(4 276)">
<title>dependency&#45;cruiser output</title>
<polygon fill="white" stroke="transparent" points="-4,4 -4,-276 354,-276 354,4 -4,4"/>
<g id="clust1" class="cluster">
<title>cluster_node_modules</title>
<path fill="#ffffff" stroke="black" stroke-width="2" d="M128,-56C128,-56 189,-56 189,-56 195,-56 201,-62 201,-68 201,-68 201,-96 201,-96 201,-102 195,-108 189,-108 189,-108 128,-108 128,-108 122,-108 116,-102 116,-96 116,-96 116,-68 116,-68 116,-62 122,-56 128,-56"/>
<text text-anchor="middle" x="158.5" y="-96.8" font-family="Helvetica,sans-Serif" font-weight="bold" font-size="9.00">node_modules</text>
</g>
<g id="clust2" class="cluster">
<title>cluster_src</title>
<path fill="#ffffff" stroke="black" stroke-width="2" d="M20,-134C20,-134 330,-134 330,-134 336,-134 342,-140 342,-146 342,-146 342,-234 342,-234 342,-240 336,-246 330,-246 330,-246 20,-246 20,-246 14,-246 8,-240 8,-234 8,-234 8,-146 8,-146 8,-140 14,-134 20,-134"/>
<text text-anchor="middle" x="175" y="-234.8" font-family="Helvetica,sans-Serif" font-weight="bold" font-size="9.00">src</text>
</g>
<!-- fs -->
<g id="node1" class="node">
<title>fs</title>
<g id="a_node1"><a xlink:title="fs">
<path fill="#ffffcc" stroke="grey" d="M304.5,-272C304.5,-272 262.5,-272 262.5,-272 259.5,-272 256.5,-269 256.5,-266 256.5,-266 256.5,-260 256.5,-260 256.5,-257 259.5,-254 262.5,-254 262.5,-254 304.5,-254 304.5,-254 307.5,-254 310.5,-257 310.5,-260 310.5,-260 310.5,-266 310.5,-266 310.5,-269 307.5,-272 304.5,-272"/>
<text text-anchor="middle" x="283.5" y="-260.8" font-family="Helvetica,sans-Serif" font-size="9.00" fill="grey">fs</text>
</a>
</g>
</g>
<!-- node_modules/libnpmconfig -->
<g id="node2" class="node">
<title>node_modules/libnpmconfig</title>
<g id="a_node2"><a xlink:href="https://github.com/sverweij/upem/blob/main/node_modules/libnpmconfig" xlink:title="libnpmconfig">
<polygon fill="#c40b0a" fill-opacity="0.101961" stroke="black" points="193,-82 126,-82 124,-80 124,-64 191,-64 193,-66 193,-82"/>
<polyline fill="none" stroke="black" points="191,-80 124,-80 "/>
<polyline fill="none" stroke="black" points="191,-80 191,-64 "/>
<polyline fill="none" stroke="black" points="191,-80 193,-82 "/>
<text text-anchor="start" x="132" y="-70.8" font-family="Helvetica,sans-Serif" font-size="9.00" fill="#c40b0a">libnpmconfig</text>
</a>
</g>
</g>
<!-- os -->
<g id="node3" class="node">
<title>os</title>
<g id="a_node3"><a xlink:title="os">
<path fill="#ffffcc" stroke="grey" d="M304.5,-126C304.5,-126 262.5,-126 262.5,-126 259.5,-126 256.5,-123 256.5,-120 256.5,-120 256.5,-114 256.5,-114 256.5,-111 259.5,-108 262.5,-108 262.5,-108 304.5,-108 304.5,-108 307.5,-108 310.5,-111 310.5,-114 310.5,-114 310.5,-120 310.5,-120 310.5,-123 307.5,-126 304.5,-126"/>
<text text-anchor="middle" x="283.5" y="-114.8" font-family="Helvetica,sans-Serif" font-size="9.00" fill="grey">os</text>
</a>
</g>
</g>
<!-- path -->
<g id="node4" class="node">
<title>path</title>
<g id="a_node4"><a xlink:title="path">
<path fill="#ffffcc" stroke="grey" d="M179.5,-18C179.5,-18 137.5,-18 137.5,-18 134.5,-18 131.5,-15 131.5,-12 131.5,-12 131.5,-6 131.5,-6 131.5,-3 134.5,0 137.5,0 137.5,0 179.5,0 179.5,0 182.5,0 185.5,-3 185.5,-6 185.5,-6 185.5,-12 185.5,-12 185.5,-15 182.5,-18 179.5,-18"/>
<text text-anchor="middle" x="158.5" y="-6.8" font-family="Helvetica,sans-Serif" font-size="9.00" fill="grey">path</text>
</a>
</g>
</g>
<!-- src/cli.js -->
<g id="node5" class="node">
<title>src/cli.js</title>
<g id="a_node5"><a xlink:href="https://github.com/sverweij/upem/blob/main/src/cli.js" xlink:title="cli.js">
<path fill="#ffffcc" stroke="black" d="M71,-160C71,-160 29,-160 29,-160 26,-160 23,-157 23,-154 23,-154 23,-148 23,-148 23,-145 26,-142 29,-142 29,-142 71,-142 71,-142 74,-142 77,-145 77,-148 77,-148 77,-154 77,-154 77,-157 74,-160 71,-160"/>
<text text-anchor="start" x="40.5" y="-148.8" font-family="Helvetica,sans-Serif" font-size="9.00">cli.js</text>
</a>
</g>
</g>
<!-- src/cli.js&#45;&gt;node_modules/libnpmconfig -->
<g id="edge2" class="edge">
<title>src/cli.js&#45;&gt;node_modules/libnpmconfig</title>
<path fill="none" stroke="#000000" stroke-opacity="0.200000" d="M59,-141.75C59,-121.08 59,-73 59,-73 59,-73 117.98,-73 117.98,-73"/>
<polygon fill="#000000" fill-opacity="0.200000" stroke="#000000" stroke-opacity="0.200000" points="117.98,-75.1 123.98,-73 117.98,-70.9 117.98,-75.1"/>
</g>
<!-- src/cli.js&#45;&gt;path -->
<g id="edge3" class="edge">
<title>src/cli.js&#45;&gt;path</title>
<path fill="none" stroke="#000000" stroke-dasharray="5,2" stroke-opacity="0.200000" d="M41,-141.93C41,-110.19 41,-6 41,-6 41,-6 125.25,-6 125.25,-6"/>
<polygon fill="#000000" fill-opacity="0.200000" stroke="#000000" stroke-opacity="0.200000" points="125.25,-8.1 131.25,-6 125.25,-3.9 125.25,-8.1"/>
</g>
<!-- src/main.js -->
<g id="node6" class="node">
<title>src/main.js</title>
<g id="a_node6"><a xlink:href="https://github.com/sverweij/upem/blob/main/src/main.js" xlink:title="main.js">
<path fill="#ffffcc" stroke="black" d="M179.5,-220C179.5,-220 137.5,-220 137.5,-220 134.5,-220 131.5,-217 131.5,-214 131.5,-214 131.5,-208 131.5,-208 131.5,-205 134.5,-202 137.5,-202 137.5,-202 179.5,-202 179.5,-202 182.5,-202 185.5,-205 185.5,-208 185.5,-208 185.5,-214 185.5,-214 185.5,-217 182.5,-220 179.5,-220"/>
<text text-anchor="start" x="143.5" y="-208.8" font-family="Helvetica,sans-Serif" font-size="9.00">main.js</text>
</a>
</g>
</g>
<!-- src/cli.js&#45;&gt;src/main.js -->
<g id="edge1" class="edge">
<title>src/cli.js&#45;&gt;src/main.js</title>
<path fill="none" stroke="#000000" stroke-width="2" stroke-opacity="0.200000" d="M77.12,-151C84.74,-151 91,-151 91,-151 91,-151 91,-208 91,-208 91,-208 125.43,-208 125.43,-208"/>
<polygon fill="#000000" fill-opacity="0.200000" stroke="#000000" stroke-width="2" stroke-opacity="0.200000" points="125.43,-210.1 131.43,-208 125.43,-205.9 125.43,-210.1"/>
</g>
<!-- src/main.js&#45;&gt;fs -->
<g id="edge7" class="edge">
<title>src/main.js&#45;&gt;fs</title>
<path fill="none" stroke="#000000" stroke-dasharray="5,2" stroke-opacity="0.200000" d="M159,-220.45C159,-234.69 159,-260 159,-260 159,-260 250.49,-260 250.49,-260"/>
<polygon fill="#000000" fill-opacity="0.200000" stroke="#000000" stroke-opacity="0.200000" points="250.49,-262.1 256.49,-260 250.49,-257.9 250.49,-262.1"/>
</g>
<!-- src/main.js&#45;&gt;os -->
<g id="edge8" class="edge">
<title>src/main.js&#45;&gt;os</title>
<path fill="none" stroke="#000000" stroke-dasharray="5,2" stroke-opacity="0.200000" d="M185.55,-205.6C203.96,-205.6 225,-205.6 225,-205.6 225,-205.6 225,-120 225,-120 225,-120 250.31,-120 250.31,-120"/>
<polygon fill="#000000" fill-opacity="0.200000" stroke="#000000" stroke-opacity="0.200000" points="250.31,-122.1 256.31,-120 250.31,-117.9 250.31,-122.1"/>
</g>
<!-- src/determine&#45;policies.js -->
<g id="node7" class="node">
<title>src/determine&#45;policies.js</title>
<g id="a_node7"><a xlink:href="https://github.com/sverweij/upem/blob/main/src/determine-policies.js" xlink:title="determine&#45;policies.js">
<path fill="#ffffcc" stroke="black" d="M328,-190C328,-190 239,-190 239,-190 236,-190 233,-187 233,-184 233,-184 233,-178 233,-178 233,-175 236,-172 239,-172 239,-172 328,-172 328,-172 331,-172 334,-175 334,-178 334,-178 334,-184 334,-184 334,-187 331,-190 328,-190"/>
<text text-anchor="start" x="241" y="-178.8" font-family="Helvetica,sans-Serif" font-size="9.00">determine&#45;policies.js</text>
</a>
</g>
</g>
<!-- src/main.js&#45;&gt;src/determine&#45;policies.js -->
<g id="edge5" class="edge">
<title>src/main.js&#45;&gt;src/determine&#45;policies.js</title>
<path fill="none" stroke="#000000" stroke-width="2" stroke-opacity="0.200000" d="M185.56,-209.2C205.44,-209.2 229,-209.2 229,-209.2 229,-209.2 229,-184 229,-184 229,-184 229.39,-184 229.39,-184"/>
<polygon fill="#000000" fill-opacity="0.200000" stroke="#000000" stroke-width="2" stroke-opacity="0.200000" points="226.92,-186.1 232.92,-184 226.92,-181.9 226.92,-186.1"/>
</g>
<!-- src/update&#45;manifest.js -->
<g id="node9" class="node">
<title>src/update&#45;manifest.js</title>
<g id="a_node9"><a xlink:href="https://github.com/sverweij/upem/blob/main/src/update-manifest.js" xlink:title="update&#45;manifest.js">
<path fill="#ffffcc" stroke="black" d="M323.5,-220C323.5,-220 243.5,-220 243.5,-220 240.5,-220 237.5,-217 237.5,-214 237.5,-214 237.5,-208 237.5,-208 237.5,-205 240.5,-202 243.5,-202 243.5,-202 323.5,-202 323.5,-202 326.5,-202 329.5,-205 329.5,-208 329.5,-208 329.5,-214 329.5,-214 329.5,-217 326.5,-220 323.5,-220"/>
<text text-anchor="start" x="245.5" y="-208.8" font-family="Helvetica,sans-Serif" font-size="9.00">update&#45;manifest.js</text>
</a>
</g>
</g>
<!-- src/main.js&#45;&gt;src/update&#45;manifest.js -->
<g id="edge6" class="edge">
<title>src/main.js&#45;&gt;src/update&#45;manifest.js</title>
<path fill="none" stroke="#000000" stroke-width="2" stroke-opacity="0.200000" d="M185.62,-216.4C185.62,-216.4 231.25,-216.4 231.25,-216.4"/>
<polygon fill="#000000" fill-opacity="0.200000" stroke="#000000" stroke-width="2" stroke-opacity="0.200000" points="231.25,-218.5 237.25,-216.4 231.25,-214.3 231.25,-218.5"/>
</g>
<!-- src/determine&#45;policies.spec.js -->
<g id="node8" class="node">
<title>src/determine&#45;policies.spec.js</title>
<g id="a_node8"><a xlink:href="https://github.com/sverweij/upem/blob/main/src/determine-policies.spec.js" xlink:title="determine&#45;policies.spec.js">
<path fill="#ccccff" stroke="black" d="M214,-160C214,-160 103,-160 103,-160 100,-160 97,-157 97,-154 97,-154 97,-148 97,-148 97,-145 100,-142 103,-142 103,-142 214,-142 214,-142 217,-142 220,-145 220,-148 220,-148 220,-154 220,-154 220,-157 217,-160 214,-160"/>
<text text-anchor="start" x="105" y="-148.8" font-family="Helvetica,sans-Serif" font-size="9.00">determine&#45;policies.spec.js</text>
</a>
</g>
</g>
<!-- src/determine&#45;policies.spec.js&#45;&gt;src/determine&#45;policies.js -->
<g id="edge4" class="edge">
<title>src/determine&#45;policies.spec.js&#45;&gt;src/determine&#45;policies.js</title>
<path fill="none" stroke="#000000" stroke-width="2" stroke-opacity="0.200000" d="M220.44,-151C234.31,-151 245,-151 245,-151 245,-151 245,-165.84 245,-165.84"/>
<polygon fill="#000000" fill-opacity="0.200000" stroke="#000000" stroke-width="2" stroke-opacity="0.200000" points="242.9,-165.84 245,-171.84 247.1,-165.84 242.9,-165.84"/>
</g>
<!-- src/main.spec.js -->
<g id="node10" class="node">
<title>src/main.spec.js</title>
<g id="a_node10"><a xlink:href="https://github.com/sverweij/upem/blob/main/src/main.spec.js" xlink:title="main.spec.js">
<path fill="#ccccff" stroke="black" d="M78,-190C78,-190 22,-190 22,-190 19,-190 16,-187 16,-184 16,-184 16,-178 16,-178 16,-175 19,-172 22,-172 22,-172 78,-172 78,-172 81,-172 84,-175 84,-178 84,-178 84,-184 84,-184 84,-187 81,-190 78,-190"/>
<text text-anchor="start" x="24" y="-178.8" font-family="Helvetica,sans-Serif" font-size="9.00">main.spec.js</text>
</a>
</g>
</g>
<!-- src/main.spec.js&#45;&gt;fs -->
<g id="edge10" class="edge">
<title>src/main.spec.js&#45;&gt;fs</title>
<path fill="none" stroke="#000000" stroke-dasharray="5,2" stroke-opacity="0.200000" d="M39,-190.1C39,-212.02 39,-266 39,-266 39,-266 250.4,-266 250.4,-266"/>
<polygon fill="#000000" fill-opacity="0.200000" stroke="#000000" stroke-opacity="0.200000" points="250.4,-268.1 256.4,-266 250.4,-263.9 250.4,-268.1"/>
</g>
<!-- src/main.spec.js&#45;&gt;os -->
<g id="edge11" class="edge">
<title>src/main.spec.js&#45;&gt;os</title>
<path fill="none" stroke="#000000" stroke-dasharray="5,2" stroke-opacity="0.200000" d="M83,-171.96C83,-153.68 83,-114 83,-114 83,-114 250.46,-114 250.46,-114"/>
<polygon fill="#000000" fill-opacity="0.200000" stroke="#000000" stroke-opacity="0.200000" points="250.46,-116.1 256.46,-114 250.46,-111.9 250.46,-116.1"/>
</g>
<!-- src/main.spec.js&#45;&gt;path -->
<g id="edge12" class="edge">
<title>src/main.spec.js&#45;&gt;path</title>
<path fill="none" stroke="#000000" stroke-dasharray="5,2" stroke-opacity="0.200000" d="M79,-171.91C79,-136.81 79,-12 79,-12 79,-12 125.14,-12 125.14,-12"/>
<polygon fill="#000000" fill-opacity="0.200000" stroke="#000000" stroke-opacity="0.200000" points="125.14,-14.1 131.14,-12 125.14,-9.9 125.14,-14.1"/>
</g>
<!-- src/main.spec.js&#45;&gt;src/main.js -->
<g id="edge9" class="edge">
<title>src/main.spec.js&#45;&gt;src/main.js</title>
<path fill="none" stroke="#000000" stroke-width="2" stroke-opacity="0.200000" d="M62,-190.02C62,-199.79 62,-214 62,-214 62,-214 125.36,-214 125.36,-214"/>
<polygon fill="#000000" fill-opacity="0.200000" stroke="#000000" stroke-width="2" stroke-opacity="0.200000" points="125.36,-216.1 131.36,-214 125.36,-211.9 125.36,-216.1"/>
</g>
<!-- url -->
<g id="node11" class="node">
<title>url</title>
<g id="a_node11"><a xlink:title="url">
<path fill="#ffffcc" stroke="grey" d="M179.5,-48C179.5,-48 137.5,-48 137.5,-48 134.5,-48 131.5,-45 131.5,-42 131.5,-42 131.5,-36 131.5,-36 131.5,-33 134.5,-30 137.5,-30 137.5,-30 179.5,-30 179.5,-30 182.5,-30 185.5,-33 185.5,-36 185.5,-36 185.5,-42 185.5,-42 185.5,-45 182.5,-48 179.5,-48"/>
<text text-anchor="middle" x="158.5" y="-36.8" font-family="Helvetica,sans-Serif" font-size="9.00" fill="grey">url</text>
</a>
</g>
</g>
<!-- src/main.spec.js&#45;&gt;url -->
<g id="edge13" class="edge">
<title>src/main.spec.js&#45;&gt;url</title>
<path fill="none" stroke="#000000" stroke-dasharray="5,2" stroke-opacity="0.200000" d="M81,-171.68C81,-140.09 81,-39 81,-39 81,-39 125.39,-39 125.39,-39"/>
<polygon fill="#000000" fill-opacity="0.200000" stroke="#000000" stroke-opacity="0.200000" points="125.39,-41.1 131.39,-39 125.39,-36.9 125.39,-41.1"/>
</g>
<!-- src/update&#45;manifest.spec.js -->
<g id="node12" class="node">
<title>src/update&#45;manifest.spec.js</title>
<g id="a_node12"><a xlink:href="https://github.com/sverweij/upem/blob/main/src/update-manifest.spec.js" xlink:title="update&#45;manifest.spec.js">
<path fill="#ccccff" stroke="black" d="M209,-190C209,-190 108,-190 108,-190 105,-190 102,-187 102,-184 102,-184 102,-178 102,-178 102,-175 105,-172 108,-172 108,-172 209,-172 209,-172 212,-172 215,-175 215,-178 215,-178 215,-184 215,-184 215,-187 212,-190 209,-190"/>
<text text-anchor="start" x="110" y="-178.8" font-family="Helvetica,sans-Serif" font-size="9.00">update&#45;manifest.spec.js</text>
</a>
</g>
</g>
<!-- src/update&#45;manifest.spec.js&#45;&gt;src/determine&#45;policies.js -->
<g id="edge14" class="edge">
<title>src/update&#45;manifest.spec.js&#45;&gt;src/determine&#45;policies.js</title>
<path fill="none" stroke="#000000" stroke-width="2" stroke-opacity="0.200000" d="M215.15,-178C215.15,-178 226.97,-178 226.97,-178"/>
<polygon fill="#000000" fill-opacity="0.200000" stroke="#000000" stroke-width="2" stroke-opacity="0.200000" points="226.97,-180.1 232.97,-178 226.97,-175.9 226.97,-180.1"/>
</g>
<!-- src/update&#45;manifest.spec.js&#45;&gt;src/update&#45;manifest.js -->
<g id="edge15" class="edge">
<title>src/update&#45;manifest.spec.js&#45;&gt;src/update&#45;manifest.js</title>
<path fill="none" stroke="#000000" stroke-width="2" stroke-opacity="0.200000" d="M201,-190.03C201,-199.43 201,-212.8 201,-212.8 201,-212.8 231.43,-212.8 231.43,-212.8"/>
<polygon fill="#000000" fill-opacity="0.200000" stroke="#000000" stroke-width="2" stroke-opacity="0.200000" points="231.43,-214.9 237.43,-212.8 231.43,-210.7 231.43,-214.9"/>
</g>
</g>
</svg>
