<?xml version="1.0" encoding="UTF-8" standalone="no"?>
<!DOCTYPE svg PUBLIC "-//W3C//DTD SVG 1.1//EN"
 "http://www.w3.org/Graphics/SVG/1.1/DTD/svg11.dtd">
<!-- Generated by graphviz version 2.40.1 (20161225.0304)
 -->
<!-- Title: dependency&#45;cruiser output Pages: 1 -->
<svg width="321pt" height="151pt"
 viewBox="0.00 0.00 321.02 150.50" xmlns="http://www.w3.org/2000/svg" xmlns:xlink="http://www.w3.org/1999/xlink">
<g id="graph0" class="graph" transform="scale(1 1) rotate(0) translate(4 146.5)">
<title>dependency&#45;cruiser output</title>
<polygon fill="#ffffff" stroke="transparent" points="-4,4 -4,-146.5 317.0186,-146.5 317.0186,4 -4,4"/>
<g id="clust1" class="cluster">
<title>cluster_/bin</title>
<path fill="none" stroke="#000000" stroke-width="2" d="M20,-49C20,-49 66,-49 66,-49 72,-49 78,-55 78,-61 78,-61 78,-88 78,-88 78,-94 72,-100 66,-100 66,-100 20,-100 20,-100 14,-100 8,-94 8,-88 8,-88 8,-61 8,-61 8,-55 14,-49 20,-49"/>
<text text-anchor="middle" x="43" y="-88.8" font-family="Helvetica,sans-Serif" font-weight="bold" font-size="9.00" fill="#000000">bin</text>
</g>
<g id="clust2" class="cluster">
<title>cluster_/node_modules</title>
<path fill="none" stroke="#000000" stroke-width="2" d="M231.0186,-29C231.0186,-29 293.0186,-29 293.0186,-29 299.0186,-29 305.0186,-35 305.0186,-41 305.0186,-41 305.0186,-101 305.0186,-101 305.0186,-107 299.0186,-113 293.0186,-113 293.0186,-113 231.0186,-113 231.0186,-113 225.0186,-113 219.0186,-107 219.0186,-101 219.0186,-101 219.0186,-41 219.0186,-41 219.0186,-35 225.0186,-29 231.0186,-29"/>
<text text-anchor="middle" x="262.0186" y="-101.8" font-family="Helvetica,sans-Serif" font-weight="bold" font-size="9.00" fill="#000000">node_modules</text>
</g>
<g id="clust3" class="cluster">
<title>cluster_/node_modules/lodash.get</title>
<path fill="none" stroke="#000000" stroke-width="2" d="M239.0186,-37C239.0186,-37 285.0186,-37 285.0186,-37 291.0186,-37 297.0186,-43 297.0186,-49 297.0186,-49 297.0186,-76 297.0186,-76 297.0186,-82 291.0186,-88 285.0186,-88 285.0186,-88 239.0186,-88 239.0186,-88 233.0186,-88 227.0186,-82 227.0186,-76 227.0186,-76 227.0186,-49 227.0186,-49 227.0186,-43 233.0186,-37 239.0186,-37"/>
<text text-anchor="middle" x="262.0186" y="-76.8" font-family="Helvetica,sans-Serif" font-weight="bold" font-size="9.00" fill="#000000">lodash.get</text>
</g>
<g id="clust4" class="cluster">
<title>cluster_/src</title>
<path fill="none" stroke="#000000" stroke-width="2" d="M110,-8C110,-8 195.0186,-8 195.0186,-8 201.0186,-8 207.0186,-14 207.0186,-20 207.0186,-20 207.0186,-76 207.0186,-76 207.0186,-82 201.0186,-88 195.0186,-88 195.0186,-88 110,-88 110,-88 104,-88 98,-82 98,-76 98,-76 98,-20 98,-20 98,-14 104,-8 110,-8"/>
<text text-anchor="middle" x="152.5093" y="-76.8" font-family="Helvetica,sans-Serif" font-weight="bold" font-size="9.00" fill="#000000">src</text>
</g>
<!-- bin/upem.js -->
<g id="node1" class="node">
<title>bin/upem.js</title>
<g id="a_node1"><a xlink:href="https:/github.com/sverweij/upem/blob/develop/bin/upem.js" xlink:title="upem.js">
<path fill="#ffffcc" stroke="#000000" d="M64.3333,-74.5C64.3333,-74.5 21.6667,-74.5 21.6667,-74.5 18.8333,-74.5 16,-71.6667 16,-68.8333 16,-68.8333 16,-63.1667 16,-63.1667 16,-60.3333 18.8333,-57.5 21.6667,-57.5 21.6667,-57.5 64.3333,-57.5 64.3333,-57.5 67.1667,-57.5 70,-60.3333 70,-63.1667 70,-63.1667 70,-68.8333 70,-68.8333 70,-71.6667 67.1667,-74.5 64.3333,-74.5"/>
<text text-anchor="middle" x="43" y="-63.3" font-family="Helvetica,sans-Serif" font-size="9.00" fill="#000000">upem.js</text>
</a>
</g>
</g>
<!-- fs -->
<g id="node2" class="node">
<title>fs</title>
<path fill="#ffffcc" stroke="#c0c0c0" d="M173.8426,-142.5C173.8426,-142.5 131.1759,-142.5 131.1759,-142.5 128.3426,-142.5 125.5093,-139.6667 125.5093,-136.8333 125.5093,-136.8333 125.5093,-131.1667 125.5093,-131.1667 125.5093,-128.3333 128.3426,-125.5 131.1759,-125.5 131.1759,-125.5 173.8426,-125.5 173.8426,-125.5 176.6759,-125.5 179.5093,-128.3333 179.5093,-131.1667 179.5093,-131.1667 179.5093,-136.8333 179.5093,-136.8333 179.5093,-139.6667 176.6759,-142.5 173.8426,-142.5"/>
<text text-anchor="middle" x="152.5093" y="-131.3" font-family="Helvetica,sans-Serif" font-size="9.00" fill="#c0c0c0">fs</text>
</g>
<!-- bin/upem.js&#45;&gt;fs -->
<g id="edge3" class="edge">
<title>bin/upem.js&#45;&gt;fs</title>
<path fill="none" stroke="#c0c0c0" d="M49.4291,-74.7239C58.7691,-86.7591 77.2564,-108.2928 98,-120 103.342,-123.0149 109.3422,-125.3931 115.3565,-127.2655"/>
<polygon fill="#c0c0c0" stroke="#c0c0c0" points="114.8116,-130.7433 125.3776,-129.9622 116.6307,-123.9838 114.8116,-130.7433"/>
</g>
<!-- path -->
<g id="node4" class="node">
<title>path</title>
<path fill="#ffffcc" stroke="#c0c0c0" d="M173.8426,-113.5C173.8426,-113.5 131.1759,-113.5 131.1759,-113.5 128.3426,-113.5 125.5093,-110.6667 125.5093,-107.8333 125.5093,-107.8333 125.5093,-102.1667 125.5093,-102.1667 125.5093,-99.3333 128.3426,-96.5 131.1759,-96.5 131.1759,-96.5 173.8426,-96.5 173.8426,-96.5 176.6759,-96.5 179.5093,-99.3333 179.5093,-102.1667 179.5093,-102.1667 179.5093,-107.8333 179.5093,-107.8333 179.5093,-110.6667 176.6759,-113.5 173.8426,-113.5"/>
<text text-anchor="middle" x="152.5093" y="-102.3" font-family="Helvetica,sans-Serif" font-size="9.00" fill="#c0c0c0">path</text>
</g>
<!-- bin/upem.js&#45;&gt;path -->
<g id="edge4" class="edge">
<title>bin/upem.js&#45;&gt;path</title>
<path fill="none" stroke="#c0c0c0" d="M60.021,-74.6735C70.7281,-79.8928 84.9429,-86.3957 98,-91 103.6079,-92.9775 109.63,-94.806 115.5526,-96.4446"/>
<polygon fill="#c0c0c0" stroke="#c0c0c0" points="114.7739,-99.8587 125.3352,-99.0157 116.5533,-93.0886 114.7739,-99.8587"/>
</g>
<!-- src/index.js -->
<g id="node5" class="node">
<title>src/index.js</title>
<g id="a_node5"><a xlink:href="https:/github.com/sverweij/upem/blob/develop/src/index.js" xlink:title="index.js">
<path fill="#ffffcc" stroke="#000000" d="M173.8426,-62.5C173.8426,-62.5 131.1759,-62.5 131.1759,-62.5 128.3426,-62.5 125.5093,-59.6667 125.5093,-56.8333 125.5093,-56.8333 125.5093,-51.1667 125.5093,-51.1667 125.5093,-48.3333 128.3426,-45.5 131.1759,-45.5 131.1759,-45.5 173.8426,-45.5 173.8426,-45.5 176.6759,-45.5 179.5093,-48.3333 179.5093,-51.1667 179.5093,-51.1667 179.5093,-56.8333 179.5093,-56.8333 179.5093,-59.6667 176.6759,-62.5 173.8426,-62.5"/>
<text text-anchor="middle" x="152.5093" y="-51.3" font-family="Helvetica,sans-Serif" font-size="9.00" fill="#000000">index.js</text>
</a>
</g>
</g>
<!-- bin/upem.js&#45;&gt;src/index.js -->
<g id="edge1" class="edge">
<title>bin/upem.js&#45;&gt;src/index.js</title>
<path fill="none" stroke="#000000" d="M70.0697,-63.0337C83.6269,-61.5481 100.257,-59.7258 115.0212,-58.1079"/>
<polygon fill="#000000" stroke="#000000" points="115.8122,-61.5423 125.3714,-56.9738 115.0497,-54.5839 115.8122,-61.5423"/>
</g>
<!-- src/readFromStream.js -->
<g id="node6" class="node">
<title>src/readFromStream.js</title>
<g id="a_node6"><a xlink:href="https:/github.com/sverweij/upem/blob/develop/src/readFromStream.js" xlink:title="readFromStream.js">
<path fill="#ffffcc" stroke="#000000" d="M193.3612,-33.5C193.3612,-33.5 111.6574,-33.5 111.6574,-33.5 108.8241,-33.5 105.9907,-30.6667 105.9907,-27.8333 105.9907,-27.8333 105.9907,-22.1667 105.9907,-22.1667 105.9907,-19.3333 108.8241,-16.5 111.6574,-16.5 111.6574,-16.5 193.3612,-16.5 193.3612,-16.5 196.1945,-16.5 199.0278,-19.3333 199.0278,-22.1667 199.0278,-22.1667 199.0278,-27.8333 199.0278,-27.8333 199.0278,-30.6667 196.1945,-33.5 193.3612,-33.5"/>
<text text-anchor="middle" x="152.5093" y="-22.3" font-family="Helvetica,sans-Serif" font-size="9.00" fill="#000000">readFromStream.js</text>
</a>
</g>
</g>
<!-- bin/upem.js&#45;&gt;src/readFromStream.js -->
<g id="edge2" class="edge">
<title>bin/upem.js&#45;&gt;src/readFromStream.js</title>
<path fill="none" stroke="#000000" d="M58.5072,-57.3211C69.3237,-51.5354 84.2303,-44.0869 98,-39 100.3658,-38.126 102.8086,-37.286 105.289,-36.4819"/>
<polygon fill="#000000" stroke="#000000" points="106.3961,-39.8037 114.9579,-33.563 104.373,-33.1024 106.3961,-39.8037"/>
</g>
<!-- node_modules/lodash.get/index.js -->
<g id="node3" class="node">
<title>node_modules/lodash.get/index.js</title>
<g id="a_node3"><a xlink:href="https:/github.com/sverweij/upem/blob/develop/node_modules/lodash.get/index.js" xlink:title="index.js">
<polygon fill="#c40b0a" stroke="#000000" points="289.0186,-62.5 287.6019,-64.3889 277.6852,-64.3889 276.2686,-62.5 235.0186,-62.5 235.0186,-45.5 289.0186,-45.5 289.0186,-62.5"/>
<text text-anchor="middle" x="262.0186" y="-51.3" font-family="Helvetica,sans-Serif" font-size="9.00" fill="#ffffff">index.js</text>
</a>
</g>
</g>
<!-- src/index.js&#45;&gt;node_modules/lodash.get/index.js -->
<g id="edge5" class="edge">
<title>src/index.js&#45;&gt;node_modules/lodash.get/index.js</title>
<path fill="none" stroke="#000000" d="M179.579,-54C193.1362,-54 209.7663,-54 224.5305,-54"/>
<polygon fill="#000000" stroke="#000000" points="224.8808,-57.5001 234.8807,-54 224.8807,-50.5001 224.8808,-57.5001"/>
</g>
</g>
</svg>
